<svg xmlns="http://www.w3.org/2000/svg" viewBox="0 0 843 848"><defs><style>.cls-1{fill:#fff}</style></defs><g id="_レイヤー_1" data-name="レイヤー_1"><path d="M720 424c0 41.5-8.1 81.7-24.1 119.6-15.5 36.6-37.6 69.4-65.8 97.6-28.2 28.2-61.1 50.4-97.6 65.8-37.9 16-78.1 24.1-119.6 24.1S331.2 723 293.3 707c-36.6-15.5-69.4-37.6-97.6-65.8-28.2-28.2-50.4-61.1-65.8-97.6-16-37.9-24.1-78.1-24.1-119.6s8.1-81.7 24.1-119.6c15.5-36.6 37.6-69.4 65.8-97.6s61.1-50.4 97.6-65.8c37.9-16 78.1-24.1 119.6-24.1s81.7 8.1 119.6 24.1c36.6 15.5 69.4 37.6 97.6 65.8 28.2 28.2 50.4 61.1 65.8 97.6 16 37.9 24.1 78.1 24.1 119.6z"/><path class="cls-1" d="M593.9 542.3l.2-.2s0-.2.2-.2V308.5c0-4.4-3.5-7.9-7.9-7.9H483c-4.4 0-7.9 3.5-7.9 7.9s3.5 7.9 7.9 7.9h95.5v199.9l-53.1-62.5c-4.3-5-9.4-9-15.3-11.8-5.7-2.7-11.7-4.2-17.9-4.4-6.2-.2-12.3.9-18.1 3.2-6 2.4-11.3 6-15.9 10.8l-21.8 22.7-.3.3-48.5 55.4h-94.3c-4.4 0-7.9 3.5-7.9 7.9s3.5 7.9 7.9 7.9h297l.2-.2.2-.2.2-.2v-.2l.2-.2s0-.2.2-.3l1.8-1.7zm-144.6-57.9l21.7-22.5c5.9-6.2 13.8-9.4 22.1-9.1 8.4.3 16.1 4 21.6 10.6l56 66H410.1l39.2-44.9z"/><path class="cls-1" d="M491.6 422.8c16.4 0 29.7-13.7 29.7-30.6s-13.3-30.6-29.7-30.6-29.7 13.7-29.7 30.6 13.3 30.6 29.7 30.6zm0-45.3c7.7 0 13.9 6.6 13.9 14.7s-6.2 14.7-13.9 14.7-13.9-6.6-13.9-14.7 6.2-14.7 13.9-14.7zM260.1 529.3h-14.5v-63l85.2-109.9 33.3 33.3c3.1 3.1 8.1 3.1 11.2 0s3.1-8.1 0-11.2l-39.6-39.6c-1.6-1.6-3.8-2.4-6.1-2.3-2.3.1-4.4 1.3-5.8 3.1l-78.1 100.9V315.9h204.2c4.4 0 7.9-3.5 7.9-7.9s-3.5-7.9-7.9-7.9H237.8c-4.4 0-7.9 3.5-7.9 7.9v229.4c0 4.4 3.5 7.9 7.9 7.9h22.4c4.4 0 7.9-3.5 7.9-7.9s-3.5-7.9-7.9-7.9v-.2z"/><path d="M257.9 589.7c-1.8 0-3.6-.6-5-1.8-3.4-2.8-3.8-7.8-1.1-11.2l260.9-315.6c2.8-3.4 7.8-3.8 11.2-1.1 3.4 2.8 3.8 7.8 1.1 11.2L264.1 586.8c-1.6 1.9-3.8 2.9-6.1 2.9z" fill="red"/></g></svg>