<svg data-name="レイヤー_1" xmlns="http://www.w3.org/2000/svg" viewBox="0 0 24 24"><path d="M12 7.5c-.9 0-1.8.3-2.5.8s-1.3 1.2-1.7 2c-.3.8-.4 1.7-.3 2.6.2.9.6 1.7 1.2 2.3.6.6 1.4 1.1 2.3 1.2.9.2 1.8 0 2.6-.3s1.5-.9 2-1.7c.5-.7.8-1.6.8-2.5 0-1.2-.5-2.3-1.3-3.2-.8-.8-2-1.3-3.2-1.3zm0 7.5c-.6 0-1.2-.2-1.7-.5s-.9-.8-1.1-1.3c-.2-.5-.3-1.2-.2-1.7.1-.6.4-1.1.8-1.5.4-.4 1-.7 1.5-.8.6-.1 1.2 0 1.7.2s1 .6 1.3 1.1c.3.5.5 1.1.5 1.7s-.3 1.6-.9 2.1-1.3.9-2.1.9zm4.5-12.8h-9c-1.4 0-2.7.6-3.7 1.5-1 1-1.5 2.3-1.5 3.7v9c0 1.4.6 2.7 1.5 3.7 1 1 2.3 1.5 3.7 1.5h9c1.4 0 2.7-.6 3.7-1.5 1-1 1.5-2.3 1.5-3.7V7.5c0-1.4-.6-2.7-1.5-3.7-1-1-2.3-1.5-3.7-1.5zm3.7 14.3c0 1-.4 1.9-1.1 2.7-.7.7-1.7 1.1-2.7 1.1H7.5c-1 0-1.9-.4-2.7-1.1-.7-.7-1.1-1.7-1.1-2.7v-9c0-1 .4-1.9 1.1-2.7s1.7-1.1 2.7-1.1h9c1 0 1.9.4 2.7 1.1.7.7 1.1 1.7 1.1 2.7v9zM18 7.1c0 .2 0 .4-.2.6-.1.2-.3.3-.5.4-.2 0-.4.1-.6 0-.2 0-.4-.2-.6-.3-.2-.2-.3-.4-.3-.6v-.7c0-.2.2-.4.4-.5.2-.1.4-.2.6-.2s.6.1.8.3c.2.2.3.5.3.8z" fill="#666"/></svg>