<svg width="164" height="28" fill="none" xmlns="http://www.w3.org/2000/svg"><path d="M20.134.294c.07.174.174.485.21.71.051.208.173.433.277.503.105.069.14-.035.07-.312A3.292 3.292 0 0120.57.38c0-.225-.104-.38-.278-.38-.209 0-.244.086-.157.293z" fill="#666"/><path d="M21.424.346c-.035.225-.105.502-.157.606-.07.139-.122.416-.157.71 0 .139-.104.208-.208.156-.105-.07-.174-.017-.14.104.087.64-.034 1.004-.278.918-.14-.07-.26-.018-.26.086s-.123.19-.28.19c-.156 0-.243.105-.19.208.034.122.156.208.26.19.296-.068.47 1.005.192 1.178-.122.07-.174.19-.122.26.07.052-.035.26-.226.468-.174.19-.33.467-.33.606 0 .138-.314.762-.697 1.368-.4.606-.66 1.194-.591 1.298.07.121.052.139-.087.07-.14-.087-.279.051-.418.398-.104.294-.26.537-.313.537-.07 0-.313.294-.522.64-.226.364-.505.762-.626.883-.122.121-.227.347-.227.485 0 .139-.07.242-.174.242-.086 0-.278.208-.417.468-.14.277-.261.416-.278.329 0-.086-.122-.052-.261.07-.14.12-.227.259-.192.328.035.052-.139.295-.383.537-.243.242-.348.294-.208.121.191-.26.191-.294-.07-.19-.313.121-.4 1.195-.087 1.385.244.156 1.583-1.16 1.462-1.454-.035-.122-.018-.174.087-.122.156.104.626-.588.556-.83-.017-.07.052-.122.157-.122.104 0 .156-.121.104-.26a.286.286 0 01.087-.363c.105-.07.14-.052.07.069-.052.104-.035.225.07.294.086.052.173 0 .173-.138 0-.139.157-.45.366-.71.313-.381.33-.502.139-.762-.191-.242-.191-.26.017-.087.296.26.592.295.435.052-.052-.104-.034-.173.053-.173s.208-.138.278-.311c.052-.156.418-.866.8-1.576.4-.71.731-1.42.748-1.593.018-.19.087-.33.174-.33s.122-.155.07-.346c-.052-.19-.035-.311.052-.26.07.053.226-.172.348-.484.435-1.178.522-1.333.679-1.333.104 0 .139-.156.104-.347-.035-.19 0-.346.104-.346.087 0 .157.156.157.346 0 .416.435.468.591.07.087-.243.07-.26-.139-.087-.208.173-.226.156-.156-.139.07-.26.017-.363-.174-.363-.157 0-.33-.156-.383-.364-.087-.26.035-.485.505-.9.487-.433.591-.624.452-.814-.14-.208-.174-.19-.174.104 0 .208-.104.415-.244.467-.191.07-.226-.017-.174-.346.053-.26.14-.537.21-.64.173-.295.19-.624.017-.624a.174.174 0 00-.174.173z" fill="#666"/><path d="M22.45 1.54c-.279.26-.487.624-.487.797 0 .243-.053.26-.244.104-.174-.156-.278-.138-.452.07-.174.207-.122.242.365.173.383-.052.505-.018.365.12-.191.191-.087.659.14.659.087 0 .121-.33.104-.71-.052-.658 0-.745.522-1.056.33-.19.54-.416.487-.502-.14-.243-.296-.19-.8.346zm-2.106.66c-.07.052-.121.19-.121.294 0 .104.087.087.208-.034.105-.104.157-.243.122-.295-.052-.052-.156-.034-.209.035zm-8.405.554c-.21.086-.522.363-.731.606-.278.38-.505.467-1.2.467-1.392.035-1.862.243-2.14.987-.296.78-.331 1.23-.14 1.351.07.052.14.208.14.346 0 .139.139.381.313.554.156.156.452.485.643.728.192.242.662.71 1.044 1.021.383.33.679.676.661.745-.034.07.053.138.174.138.47 0 1.862 2.078 1.862 2.77 0 .243.104.607.244.78.226.312.26.277.382-.52.087-.623.053-1.073-.174-1.662-.156-.45-.278-.935-.278-1.073 0-.156-.104-.381-.226-.502-.557-.555-.922-1.61-.627-1.801.244-.139 1.775 1.61 1.619 1.852-.053.087.034.174.173.174.157.017.348.034.435.052.088.017.418-.312.714-.728.296-.398.609-.692.713-.623.453.277-.209 2.857-.8 3.065a.492.492 0 00-.261.398c0 .208.174.139.661-.294.348-.312.626-.64.591-.71-.017-.087.088-.19.227-.26.591-.225 1.827-3.29 1.827-4.537 0-.692-1.01-1.575-1.827-1.575-.435 0-.61-.07-.61-.277 0-.139-.121-.381-.26-.52-.14-.138-.366-.433-.522-.623-.192-.295-.47-.381-1.253-.433-.557-.017-1.183.017-1.374.104zm1.74 6.008c.052.139.034.208-.07.156a.33.33 0 01-.174-.277c0-.242.122-.19.243.121zm2.54 1.04c0 .138-.33.224-.418.103-.052-.086.018-.156.157-.156s.26.035.26.052zm-3.706 1.142c-.052.139-.104.087-.104-.104-.018-.19.034-.294.086-.225.053.052.07.208.018.33zM3.834 8.399c-.278.312-.487.658-.487.762 0 .225-.47.45-1.514.71-.4.104-.887.363-1.061.606-.191.242-.435.433-.54.433-.19 0-.278.45-.208 1.125.017.173.174.485.348.693.504.537 1.044 1.783.94 2.164-.053.19 0 .347.104.347.087 0 .139.103.104.207-.052.122.209.433.574.676.627.432.661.45 1.514.19a25.15 25.15 0 011.444-.329c.296-.052.557-.156.557-.225 0-.104.278-.225.696-.312.052 0 .33-.104.609-.207 1.217-.485 2.33-.676 3.27-.572.61.052.992.035.992-.07 0-.224-1.392-.536-3.375-.744-.853-.104-1.67-.242-1.81-.329-.452-.26.47-.588 1.497-.554.522.018 1.044-.052 1.165-.156.14-.12.33-.138.453-.069.122.07.174.035.122-.121-.053-.139-.174-.225-.279-.208-.122.035-.156-.07-.087-.242.087-.226.035-.26-.191-.173-.174.069-.261.051-.192-.053.053-.086-.208-.363-.609-.623-1.391-.917-.504-1.368 1.305-.658.679.26 1.81 1.108 1.914 1.437.052.19.226.381.365.433.227.087.21-.017-.07-.45-.695-1.09-1.687-2.39-1.826-2.39-.07 0-.33-.207-.557-.45-.243-.26-.435-.415-.435-.346 0 .07-.208-.017-.47-.208-.539-.363-2.557-.9-3.305-.883-.33 0-.644.19-.957.589zm17.956-.261a1.47 1.47 0 01-.644.173c-.226 0-.4.104-.4.225 0 .121-.278.364-.609.537-.33.19-.609.433-.609.571 0 .139-.087.19-.208.122-.14-.087-.157-.035-.07.207.07.174.07.26.017.208-.139-.138-1.13.953-1.13 1.23 0 .104-.088.19-.192.19-.087 0-.14.07-.087.156.052.087 0 .19-.14.242-.364.139-.712 1.316-.469 1.559.14.138.192.138.192-.018a.2.2 0 01.208-.207c.105 0 .557-.295.992-.658.435-.364.957-.745 1.148-.849.54-.277 1.705-.415 2.001-.242.226.156.209.208-.087.433-.191.155-.452.225-.557.19-.121-.035-.226-.017-.226.052 0 .121-.522.45-1.079.658-.174.052-.313.19-.313.277 0 .087-.087.104-.208.035-.122-.087-.157-.035-.087.156.07.173 0 .294-.192.346-.156.034.33.07 1.096.087 1.81.051 2.697.294 2.697.727s-.261.485-1.305.294c-.974-.173-3.392 0-3.392.242 0 .087-.192.156-.418.156-.244 0-.47.052-.505.122-.052.086.662.138 1.584.155 1.618.018 1.74.035 2.992.71 2.801 1.49 3.393 1.784 3.532 1.784.174 0 .644-.45.644-.623 0-.07.139-.278.296-.45.226-.243.313-.763.365-2.27.035-1.055.139-2.008.226-2.094.244-.277.174-1.316-.104-1.593-.14-.156-.261-.433-.261-.64 0-.468-1.183-1.092-1.914-1.023-.33.035-.627-.086-.975-.45-.504-.502-1.13-.9-1.409-.9-.07 0-.26.086-.4.173zm3.428 9.281c-.053.052-.21.07-.331.017-.14-.052-.087-.104.104-.104.192-.017.296.035.227.087zm-14.649-1.835c-.053.087-.21.122-.349.052-.156-.052-.365 0-.504.104-.122.104-.278.139-.33.087-.053-.052-.192-.052-.314.034-.122.07-.574.156-1.009.19-1.34.105-2.349.555-2.818 1.248-.227.346-.488.675-.557.727-.087.07-.157.571-.157 1.143 0 .796.087 1.16.435 1.645.244.363.47 1.004.522 1.54.14 1.16.626 2.408 1.079 2.788.435.364 1.74.416 1.879.07.14-.346 2.053-.502 3.166-.277 1.131.225 1.88-.035 2.54-.9.818-1.04 1.323-3.066.836-3.343-.105-.069-.122-.329-.07-.64.087-.381.035-.572-.209-.762-.174-.156-.208-.225-.087-.156.105.052.21.035.21-.07 0-.259-.697-1.575-1.097-2.094l-.33-.433.086.52c.105.467.192 2.614.14 3.15-.018.243-.888.312-.905.087 0-.07-.018-.45-.052-.848-.053-.953-.192-1.074-.644-.52-.191.26-.452.468-.574.468-.14 0-.279.208-.33.467-.123.537-1.288 2.147-1.636 2.269-.33.086-.296-.918.035-1.247.139-.139.26-.33.26-.433 0-.104.244-.623.522-1.143.296-.52.522-1.039.522-1.143 0-.277-1.757.052-2.21.416-.12.087-.434.104-.695.017-.278-.069-.592-.104-.73-.086-.331.052.573-.676 1.426-1.16.365-.208.783-.381.922-.381.14 0 .244-.07.244-.156 0-.087.26-.243.574-.364.94-.346 1.34-.571 1.34-.744 0-.087-.122-.122-.262-.052-.139.052-.26.017-.26-.07 0-.225-.47-.225-.61 0zm3.914 3.013c0 .052-.07.139-.174.19-.087.053-.174.018-.174-.069 0-.103.087-.19.174-.19.105 0 .174.035.174.07z" fill="#666"/><path d="M17.23 16.052c-.47.07-.522.121-.557.606-.017.19.696.346 3.166.744.453.07 1.062.728 1.08 1.16 0 .381-.801.433-1.201.07-.157-.139-.592-.295-.975-.364-.556-.086-.626-.069-.382.087.87.554 1.896 1.887 1.966 2.58.034.242.104.623.156.83.07.33.018.4-.348.4-.296 0-.504-.14-.609-.4-.313-.692-1.218-1.852-1.461-1.852-.035 0-.087.45-.087.987-.035 1.368-.244 2.216-.54 2.216-.208 0-.243-.207-.208-.986.035-.554-.035-1.022-.14-1.091-.087-.052-.174-.364-.174-.658 0-.658-1.13-2.442-1.426-2.269-.104.07-.14.052-.087-.034.122-.225-.174-.71-.33-.537-.07.07-.036.312.069.554.122.242.209.589.209.78 0 .172.07.346.156.38.174.052.313 3.082.157 3.342-.052.104-.192.623-.33 1.177-.123.555-.28 1.04-.331 1.074-.07.052-.053.381.052.745.156.588.278.692.922.883.609.173.87.173 1.41-.018.365-.12.695-.26.747-.311.053-.052.348-.277.662-.502.574-.399.591-.399 1.357-.104.417.155.765.346.765.433 0 .19.627.329 1.044.225.191-.052.348-.174.348-.295 0-.104.191-.398.435-.658.452-.484.574-1.368.26-1.87-.12-.19-.034-.38.297-.727.26-.277.556-.485.678-.485.244 0 .487-1.35.279-1.628-.087-.103-.261-.484-.366-.848-.122-.346-.33-.64-.452-.64-.14 0-.365-.226-.522-.485a3.75 3.75 0 00-.73-.832c-.227-.173-.68-.554-1.01-.813-.313-.26-.644-.45-.73-.433-.07.017-.314-.052-.505-.173-.435-.226-2.018-.381-2.714-.26zm31.913 2.685l-2.918-.159.104-2.011 2.84.132.078-4.155-3.435.423-.18-2.038 3.666-.423.103-5.902 2.118.026-.103 5.638L58 9.5l-1.704 9.608-5.035-.265-.155 8.76-2.118-.026.155-8.84zM39.15 6.483l3.59 3.043-1.318 1.694-3.614-3.017 1.342-1.72zm3.564 4.102l2.091-.212.852 9.264-2.065.212-.878-9.264zm-5.578 1.059l3.9 2.62-1.163 1.853L36 13.497l1.136-1.853zm14.228.662l-.078 4.499 3.254.132.904-5.134-4.08.502zm-10.742 4.896l1.782 1.19-4.183 7.174-1.808-1.191 4.21-7.173zm66.41-1.115l24.986-.109-.03 2.005-24.847.226-.109-2.122zM99.541 9.86l-14.181.756-.225-2.009 18.096-.857-4.949 8.89-1.959-.629 3.218-6.15zm-6.587 2.298l2.243.195-2.942 12.469-2.011-.215 2.71-12.449zm-24.53-4.124l1.95-.363 1.421 7.165-2.115.521-1.256-7.323zm8.914-.005l2.044 1.114-9.22 15.715-1.862-.857 9.038-15.972zm-14.23.916l1.861-.571 2.304 6.947-2.002.73-2.163-7.106zm78.715 9.308l.574.121-.223.592a.626.626 0 01-.757.951.622.622 0 01-.356-.685.627.627 0 01.583-.507l.179-.473zm15.471 2.909a1.072 1.072 0 00.396 1.83 1.083 1.083 0 001.285-.553 1.073 1.073 0 00-1.068-1.54l-.298-.69h-.729l.414.953zm3.54-3.845c0 .334-.011.658-.032.95h.521v-1.726h-.51c.012.246.021.508.021.777v-.001zm-1.171 2.058h-4.128c-5.903 0-10.92-1.45-14.646-2.161-1.612-.308-1.889-.893-1.889-1.574 0-.91.493-3.037 2.007-3.037 1.257 0 2.715 3.124 3.193 3.124.204 0 8.697-.465 8.697-.465 0 .425.708.637 1.417.637.71 0 1.427-.214 1.427-.642v-1.146s1.221.65 1.562 1.148h2.359c.45 0 .45 4.118 0 4.118l.001-.002zm-.827-1.97c0-.204-.188-.37-.416-.37h-7.801c-.23 0-.416.165-.416.37 0 .203.188.368.416.368h7.798c.231.002.418-.163.418-.367l.001-.002zm3.784-2.903a.415.415 0 00-.416.414v4.8a.415.415 0 00.418.411.419.419 0 00.418-.411V14.92a.419.419 0 00-.26-.386.419.419 0 00-.161-.03l.001-.002z" fill="#666"/></svg>