<svg width="180" height="67" viewBox="0 0 180 67" fill="none" xmlns="http://www.w3.org/2000/svg">
<path d="M49.9663 0.733957C50.139 1.16569 50.398 1.94281 50.4844 2.50406C50.6139 3.02214 50.9161 3.58339 51.1751 3.75608C51.4342 3.92878 51.5205 3.66974 51.3478 2.97897C51.1751 2.41771 51.0456 1.51108 51.0456 0.949823C51.0456 0.388571 50.7866 1.20013e-05 50.3548 1.20013e-05C49.8368 1.20013e-05 49.7504 0.215878 49.9663 0.733957Z" fill="#FB0767"/>
<path d="M53.1614 0.863514C53.0751 1.42477 52.9024 2.11554 52.7729 2.37458C52.6002 2.71996 52.4707 3.41074 52.3843 4.14468C52.3843 4.49007 52.1253 4.66276 51.8662 4.53324C51.6072 4.36055 51.4345 4.49007 51.5208 4.79228C51.7367 6.38969 51.4345 7.29633 50.8301 7.08046C50.4847 6.90777 50.1825 7.03729 50.1825 7.29633C50.1825 7.55537 49.8803 7.77123 49.4917 7.77123C49.1031 7.77123 48.8873 8.03027 49.0168 8.28931C49.1031 8.59152 49.4053 8.80739 49.6644 8.76422C50.3983 8.59152 50.8301 11.2683 50.1393 11.7C49.8371 11.8727 49.7076 12.1749 49.8371 12.3476C50.0098 12.4771 49.7507 12.9952 49.2758 13.5133C48.8441 13.9882 48.4555 14.679 48.4555 15.0243C48.4555 15.3697 47.6784 16.924 46.7286 18.435C45.7356 19.9461 45.088 21.414 45.2607 21.673C45.4334 21.9752 45.3902 22.0184 45.0449 21.8457C44.6995 21.6298 44.3541 21.9752 44.0087 22.8387C43.7497 23.5726 43.3611 24.1771 43.2316 24.1771C43.0589 24.1771 42.4545 24.911 41.9364 25.7745C41.3751 26.6811 40.6844 27.6741 40.3821 27.9763C40.0799 28.2785 39.8209 28.8398 39.8209 29.1852C39.8209 29.5305 39.6482 29.7896 39.3892 29.7896C39.1733 29.7896 38.6984 30.3077 38.353 30.9553C38.0076 31.646 37.7054 31.9914 37.6622 31.7756C37.6622 31.5597 37.36 31.646 37.0146 31.9482C36.6692 32.2505 36.4534 32.5958 36.5397 32.7685C36.6261 32.8981 36.1943 33.5025 35.5899 34.1069C34.9855 34.7113 34.7264 34.8409 35.0718 34.4091C35.5467 33.7615 35.5467 33.6752 34.8991 33.9342C34.122 34.2364 33.9062 36.9132 34.6833 37.3881C35.2877 37.7766 38.612 34.4955 38.3098 33.7615C38.2235 33.4593 38.2667 33.3298 38.5257 33.4593C38.9143 33.7183 40.0799 31.9914 39.9072 31.387C39.8641 31.2143 40.0368 31.0848 40.2958 31.0848C40.5548 31.0848 40.6844 30.7826 40.5548 30.4372C40.3821 30.0918 40.5117 29.7032 40.7707 29.5305C41.0297 29.3579 41.1161 29.401 40.9434 29.7032C40.8139 29.9623 40.857 30.2645 41.1161 30.4372C41.332 30.5667 41.5478 30.4372 41.5478 30.0918C41.5478 29.7464 41.9364 28.9693 42.4545 28.3217C43.2316 27.3719 43.2747 27.0697 42.7998 26.4221C42.3249 25.8176 42.3249 25.7745 42.843 26.2062C43.577 26.8538 44.3109 26.9402 43.9223 26.3357C43.7928 26.0767 43.836 25.904 44.0519 25.904C44.2677 25.904 44.5699 25.5586 44.7426 25.1269C44.8722 24.7383 45.7788 22.9682 46.7286 21.1981C47.7216 19.428 48.5419 17.6579 48.5851 17.2262C48.6282 16.7513 48.8009 16.4059 49.0168 16.4059C49.2327 16.4059 49.319 16.0173 49.1895 15.5424C49.06 15.0675 49.1031 14.7653 49.319 14.8948C49.4917 15.0243 49.8803 14.4631 50.1825 13.686C51.2618 10.7502 51.4777 10.3616 51.8662 10.3616C52.1253 10.3616 52.2116 9.97307 52.1253 9.49816C52.0389 9.02326 52.1253 8.6347 52.3843 8.6347C52.6002 8.6347 52.7729 9.02326 52.7729 9.49816C52.7729 10.5343 53.8522 10.6638 54.2408 9.67086C54.4566 9.06643 54.4134 9.02326 53.8954 9.45499C53.3773 9.88672 53.3341 9.84355 53.5068 9.1096C53.6795 8.462 53.55 8.20296 53.0751 8.20296C52.6865 8.20296 52.2548 7.81441 52.1253 7.29633C51.9094 6.64873 52.2116 6.08748 53.3773 5.05132C54.5861 3.97199 54.8452 3.49708 54.4998 3.02218C54.1544 2.5041 54.0681 2.54727 54.0681 3.28122C54.0681 3.79929 53.809 4.31737 53.4636 4.44689C52.9887 4.61959 52.9024 4.40372 53.0319 3.58343C53.1614 2.93583 53.3773 2.24506 53.55 1.98602C53.9817 1.25207 54.0249 0.431782 53.5932 0.431782C53.3773 0.431782 53.1614 0.604475 53.1614 0.863514Z" fill="#FB0767"/>
<path d="M55.7091 3.8424C55.0183 4.49 54.5002 5.39664 54.5002 5.82837C54.5002 6.43279 54.3707 6.47597 53.8958 6.08741C53.4641 5.69885 53.205 5.74202 52.7733 6.2601C52.3416 6.77818 52.4711 6.86453 53.68 6.69183C54.6298 6.56231 54.932 6.64866 54.5866 6.99405C54.1117 7.46895 54.3707 8.63463 54.932 8.63463C55.1478 8.63463 55.2342 7.81434 55.191 6.86453C55.0615 5.22394 55.191 5.00808 56.4862 4.23096C57.3065 3.75605 57.8246 3.1948 57.6951 2.97893C57.3497 2.37451 56.9611 2.50403 55.7091 3.8424Z" fill="#FB0767"/>
<path d="M50.4848 5.48306C50.3121 5.61258 50.1826 5.95797 50.1826 6.21701C50.1826 6.47605 50.3985 6.43288 50.7007 6.13066C50.9597 5.87162 51.0893 5.52624 51.0029 5.39672C50.8734 5.2672 50.6143 5.31037 50.4848 5.48306Z" fill="#FB0767"/>
<path d="M29.6288 6.86458C29.1107 7.08044 28.3336 7.77122 27.8155 8.37564C27.1248 9.32545 26.5635 9.54132 24.8366 9.54132C21.3827 9.62766 20.217 10.1457 19.5263 12.0022C18.7923 13.945 18.706 15.0675 19.1809 15.3697C19.3536 15.4992 19.5263 15.8878 19.5263 16.2332C19.5263 16.5786 19.8717 17.183 20.3034 17.6147C20.6919 18.0033 21.4259 18.8236 21.9008 19.428C22.3757 20.0324 23.5414 21.1981 24.4912 21.9752C25.441 22.7955 26.1749 23.659 26.1318 23.8317C26.0454 24.0044 26.2613 24.177 26.5635 24.177C27.7292 24.177 31.183 29.3578 31.183 31.0848C31.183 31.6892 31.4421 32.5958 31.7875 33.0276C32.3487 33.8047 32.4351 33.7183 32.7373 31.7324C32.9531 30.1781 32.8668 29.0556 32.3055 27.5877C31.917 26.4652 31.6148 25.2564 31.6148 24.911C31.6148 24.5224 31.3557 23.9612 31.0535 23.659C29.672 22.2774 28.7653 19.6439 29.4993 19.169C30.1037 18.8236 33.903 23.1841 33.5144 23.7885C33.3849 24.0044 33.6007 24.2202 33.9461 24.2202C34.3347 24.2634 34.8096 24.3066 35.0255 24.3497C35.2413 24.3929 36.0616 23.5726 36.7956 22.5365C37.5295 21.5435 38.3066 20.8095 38.5657 20.9822C39.6882 21.673 38.0476 28.1058 36.5797 28.6239C36.2343 28.7966 35.9321 29.2283 35.9321 29.6169C35.9321 30.135 36.3638 29.9623 37.5727 28.8829C38.4361 28.1058 39.1269 27.2855 39.0406 27.1128C38.9974 26.897 39.2564 26.6379 39.6018 26.4652C41.0697 25.904 44.135 18.2623 44.135 15.1538C44.135 13.4269 41.631 11.2251 39.6018 11.2251C38.5225 11.2251 38.0908 11.0524 38.0908 10.5343C38.0908 10.1889 37.7885 9.58449 37.4432 9.23911C37.0978 8.89372 36.5365 8.15977 36.148 7.68487C35.6731 6.95092 34.9823 6.73506 33.0395 6.60554C31.658 6.56236 30.1037 6.64871 29.6288 6.86458ZM33.9461 21.8457C34.0757 22.1911 34.0325 22.3638 33.7734 22.2343C33.5144 22.1047 33.3417 21.8025 33.3417 21.5435C33.3417 20.9391 33.6439 21.0686 33.9461 21.8457ZM40.2494 24.4361C40.2494 24.7815 39.4291 24.9973 39.2133 24.6951C39.0837 24.4793 39.2564 24.3066 39.6018 24.3066C39.9472 24.3066 40.2494 24.3929 40.2494 24.4361ZM31.0535 27.2855C30.924 27.6309 30.7945 27.5014 30.7945 27.0265C30.7513 26.5516 30.8808 26.2925 31.0104 26.4652C31.1399 26.5947 31.183 26.9833 31.0535 27.2855Z" fill="#FB0767"/>
<path d="M9.51401 20.939C8.82324 21.7162 8.30516 22.5796 8.30516 22.8387C8.30516 23.3999 7.13948 23.9612 4.54909 24.6088C3.5561 24.8678 2.34725 25.5154 1.91552 26.1198C1.44061 26.7243 0.836189 27.1992 0.57715 27.1992C0.102244 27.1992 -0.113622 28.3217 0.059071 30.0054C0.102244 30.4372 0.490803 31.2143 0.922536 31.7324C2.17456 33.0707 3.51293 36.1792 3.25389 37.129C3.12437 37.6039 3.25389 37.9925 3.51293 37.9925C3.7288 37.9925 3.85832 38.2515 3.77197 38.5106C3.64245 38.8128 4.29005 39.5899 5.19669 40.1943C6.75092 41.2736 6.83727 41.3168 8.95276 40.6692C10.1616 40.367 11.759 39.9784 12.5361 39.8489C13.2701 39.7194 13.9177 39.4604 13.9177 39.2877C13.9177 39.0286 14.6084 38.7264 15.6446 38.5106C15.7741 38.5106 16.4649 38.2515 17.1557 37.9925C20.1778 36.7836 22.9409 36.3087 25.2722 36.5678C26.7833 36.6973 27.7331 36.6541 27.7331 36.3951C27.7331 35.8338 24.2793 35.0567 19.3575 34.5386C17.242 34.2796 15.2129 33.9342 14.8675 33.7183C13.745 33.0707 16.0332 32.2504 18.5804 32.3368C19.8756 32.38 21.1708 32.2073 21.473 31.9482C21.8184 31.646 22.2933 31.6028 22.5955 31.7755C22.8977 31.9482 23.0272 31.8619 22.8977 31.4733C22.7682 31.1279 22.466 30.9121 22.2069 30.9552C21.9047 31.0416 21.8184 30.7825 21.9911 30.3508C22.2069 29.7896 22.0774 29.7032 21.5162 29.9191C21.0844 30.0918 20.8686 30.0486 21.0413 29.7896C21.1708 29.5737 20.5232 28.8829 19.5302 28.2353C16.0763 25.9471 18.2782 24.8246 22.7682 26.5947C24.4519 27.2423 27.2582 29.3578 27.5172 30.1781C27.6468 30.653 28.0785 31.1279 28.4239 31.2575C28.9851 31.4733 28.942 31.2143 28.2512 30.1349C26.5243 27.415 24.0634 24.177 23.718 24.177C23.5453 24.177 22.8977 23.659 22.3365 23.0545C21.732 22.4069 21.2571 22.0184 21.2571 22.1911C21.2571 22.3638 20.739 22.1479 20.0914 21.673C18.7531 20.7664 13.745 19.428 11.8885 19.4712C11.0682 19.4712 10.2911 19.9461 9.51401 20.939Z" fill="#FB0767"/>
<path d="M54.0668 20.2915C53.7214 20.5073 52.9875 20.7232 52.4694 20.7232C51.9082 20.7232 51.4764 20.9822 51.4764 21.2844C51.4764 21.5867 50.7857 22.1911 49.9654 22.6228C49.1451 23.0977 48.4543 23.7022 48.4543 24.0475C48.4543 24.3929 48.2384 24.5224 47.9362 24.3498C47.5908 24.1339 47.5477 24.2634 47.7635 24.8678C47.9362 25.2996 47.9362 25.5154 47.8067 25.3859C47.4613 25.0405 45.0005 27.7604 45.0005 28.4512C45.0005 28.7102 44.7846 28.9261 44.5255 28.9261C44.3097 28.9261 44.1802 29.0988 44.3097 29.3147C44.4392 29.5305 44.3097 29.7896 43.9643 29.9191C43.0577 30.2645 42.1942 33.2003 42.7986 33.8047C43.144 34.1501 43.2735 34.1501 43.2735 33.7615C43.2735 33.4593 43.4894 33.2434 43.7916 33.2434C44.0506 33.2434 45.1731 32.5095 46.2525 31.6029C47.3318 30.6962 48.627 29.7464 49.1019 29.4874C50.4403 28.7966 53.3329 28.4512 54.0668 28.8829C54.6281 29.2715 54.5849 29.401 53.851 29.9623C53.3761 30.3508 52.7285 30.5235 52.4694 30.4372C52.1672 30.3508 51.9082 30.394 51.9082 30.5667C51.9082 30.8689 50.613 31.6892 49.2314 32.2073C48.7997 32.3368 48.4543 32.6822 48.4543 32.8981C48.4543 33.1139 48.2384 33.1571 47.9362 32.9844C47.634 32.7685 47.5477 32.8981 47.7204 33.373C47.8931 33.8047 47.7204 34.1069 47.2455 34.2364C46.8569 34.3228 48.0658 34.4091 49.9654 34.4523C54.4554 34.5818 56.6572 35.1862 56.6572 36.2656C56.6572 37.3449 56.0096 37.4744 53.4192 36.9995C51.0015 36.5678 45.0005 36.9995 45.0005 37.6039C45.0005 37.8198 44.5255 37.9925 43.9643 37.9925C43.3599 37.9925 42.7986 38.122 42.7123 38.2947C42.5827 38.5106 44.3529 38.6401 46.641 38.6833C50.6561 38.7264 50.9584 38.7696 54.0668 40.4534C61.0177 44.1663 62.4856 44.9002 62.831 44.9002C63.2627 44.9002 64.4284 43.7777 64.4284 43.346C64.4284 43.1733 64.7738 42.6552 65.1624 42.2235C65.7236 41.6191 65.9395 40.3239 66.069 36.5678C66.1553 33.9342 66.4144 31.5597 66.6302 31.3438C67.2347 30.653 67.062 28.0627 66.3712 27.3719C66.0258 26.9833 65.7236 26.2925 65.7236 25.7745C65.7236 24.6088 62.7878 23.0546 60.9745 23.2272C60.1543 23.3136 59.4203 23.0114 58.5568 22.1047C57.3048 20.8527 55.7506 19.8597 55.0598 19.8597C54.8871 19.8597 54.4122 20.0756 54.0668 20.2915ZM62.572 43.4323C62.4424 43.5619 62.0539 43.605 61.7517 43.4755C61.4063 43.346 61.5358 43.2165 62.0107 43.2165C62.4856 43.1733 62.7447 43.3028 62.572 43.4323Z" fill="#FB0767"/>
<path d="M26.2253 38.8559C26.0957 39.0718 25.7072 39.1581 25.3618 38.9854C24.9732 38.8559 24.4552 38.9854 24.1098 39.2445C23.8076 39.5035 23.419 39.5899 23.2895 39.4604C23.16 39.3308 22.8146 39.3308 22.5124 39.5467C22.2101 39.7194 21.0876 39.9353 20.0083 40.0216C16.684 40.2806 14.1799 41.4031 13.0142 43.1301C12.453 43.9935 11.8054 44.8138 11.6327 44.9434C11.4168 45.116 11.2441 46.3681 11.2441 47.7928C11.2441 49.7788 11.46 50.6854 12.3235 51.8943C12.9279 52.8009 13.4891 54.3983 13.6187 55.7367C13.9641 58.6293 15.1729 61.7378 16.2954 62.6876C17.3747 63.5942 20.6127 63.7237 20.9581 62.8603C21.3035 61.9968 26.0526 61.6082 28.8157 62.1695C31.6219 62.7307 33.4784 62.0831 35.1189 59.9245C37.1481 57.3341 38.4001 52.2828 37.1913 51.592C36.9322 51.4193 36.8891 50.7717 37.0186 49.9946C37.2344 49.0448 37.1049 48.5699 36.5005 48.095C36.0688 47.7064 35.9824 47.5338 36.2846 47.7064C36.5437 47.836 36.8027 47.7928 36.8027 47.5338C36.8027 46.8862 35.0758 43.605 34.0828 42.3098L33.2625 41.2305L33.4784 42.5257C33.7374 43.6913 33.9533 49.0448 33.8238 50.3832C33.7806 50.9876 31.6219 51.1603 31.5787 50.5991C31.5787 50.4264 31.5356 49.4765 31.4492 48.4836C31.3197 46.109 30.9743 45.8068 29.8518 47.1884C29.3769 47.836 28.7293 48.354 28.4271 48.354C28.0817 48.354 27.7363 48.8721 27.6068 49.5197C27.3046 50.8581 24.412 54.8732 23.5485 55.1754C22.7282 55.3913 22.8146 52.8872 23.6349 52.0669C23.9802 51.7216 24.2825 51.2467 24.2825 50.9876C24.2825 50.7286 24.8869 49.4334 25.5777 48.1382C26.3116 46.843 26.8729 45.5478 26.8729 45.2887C26.8729 44.598 22.5124 45.4183 21.3899 46.3249C21.0876 46.5408 20.3105 46.5839 19.6629 46.3681C18.9722 46.1954 18.195 46.109 17.8496 46.1522C17.0294 46.2817 19.2744 44.4685 21.3899 43.2596C22.2965 42.7415 23.3327 42.3098 23.678 42.3098C24.0234 42.3098 24.2825 42.1371 24.2825 41.9212C24.2825 41.7054 24.9301 41.3168 25.7072 41.0146C28.0385 40.1511 29.0315 39.5899 29.0315 39.1581C29.0315 38.9423 28.7293 38.8559 28.3839 39.0286C28.0385 39.1581 27.7363 39.0718 27.7363 38.8559C27.7363 38.2947 26.5706 38.2947 26.2253 38.8559ZM35.9392 46.3681C35.9392 46.4976 35.7665 46.7135 35.5075 46.843C35.2916 46.9725 35.0758 46.8862 35.0758 46.6703C35.0758 46.4112 35.2916 46.1954 35.5075 46.1954C35.7665 46.1954 35.9392 46.2817 35.9392 46.3681Z" fill="#FB0767"/>
<path d="M42.7577 40.0216C41.592 40.1943 41.4625 40.3238 41.3762 41.5327C41.333 42.0076 43.1031 42.3962 49.2337 43.3891C50.3562 43.5618 51.8673 45.2024 51.9104 46.2817C51.9104 47.2316 49.9245 47.3611 48.9315 46.4544C48.5429 46.1091 47.4636 45.7205 46.5138 45.5478C45.1322 45.3319 44.9596 45.3751 45.564 45.7637C47.7226 47.1452 50.2699 50.4696 50.4426 52.1965C50.5289 52.8009 50.7016 53.7507 50.8311 54.2688C51.0038 55.0891 50.8743 55.2618 49.9676 55.2618C49.2337 55.2618 48.7156 54.9164 48.4566 54.2688C47.6795 52.5419 45.4345 49.6493 44.83 49.6493C44.7437 49.6493 44.6142 50.7718 44.6142 52.1101C44.5278 55.5208 44.0097 57.6363 43.2758 57.6363C42.7577 57.6363 42.6714 57.1182 42.7577 55.1754C42.8441 53.7939 42.6714 52.6282 42.4123 52.4555C42.1965 52.326 41.9806 51.5489 41.9806 50.8149C41.9806 49.1744 39.1743 44.7275 38.4404 45.1592C38.1814 45.3319 38.095 45.2888 38.2245 45.0729C38.5267 44.5116 37.7928 43.3028 37.4042 43.7345C37.2315 43.9072 37.3179 44.5116 37.5769 45.1161C37.8791 45.7205 38.095 46.584 38.095 47.0589C38.095 47.4906 38.2677 47.9223 38.4836 48.0087C38.9153 48.1382 39.2607 55.6935 38.8721 56.3411C38.7426 56.6002 38.3972 57.8954 38.0518 59.2769C37.7496 60.6584 37.3611 61.8673 37.2315 61.9536C37.0589 62.0832 37.102 62.9035 37.3611 63.8101C37.7496 65.278 38.0518 65.537 39.6492 66.0119C41.1603 66.4437 41.8079 66.4437 43.1463 65.9688C44.0529 65.6665 44.8732 65.3212 45.0027 65.1916C45.1322 65.0621 45.8662 64.5009 46.6433 63.9396C48.068 62.9466 48.1112 62.9466 50.0108 63.6806C51.047 64.0691 51.9104 64.544 51.9104 64.7599C51.9104 65.2348 53.4647 65.5802 54.5008 65.3212C54.9757 65.1916 55.3643 64.8894 55.3643 64.5872C55.3643 64.3282 55.8392 63.5942 56.4436 62.9466C57.5661 61.7378 57.8684 59.5359 57.0912 58.2839C56.789 57.809 57.0049 57.3341 57.8252 56.4706C58.4728 55.7799 59.2067 55.2618 59.5089 55.2618C60.1134 55.2618 60.7178 51.8943 60.1997 51.2035C59.9838 50.9445 59.5521 49.9946 59.2931 49.088C58.9909 48.2245 58.4728 47.4906 58.1706 47.4906C57.8252 47.4906 57.2639 46.9293 56.8754 46.2817C56.4436 45.591 55.6665 44.6843 55.0621 44.2094C54.5008 43.7777 53.3783 42.8279 52.558 42.1803C51.7809 41.5327 50.9606 41.0578 50.7448 41.101C50.5721 41.1441 49.9676 40.9714 49.4927 40.6692C48.4134 40.108 44.4846 39.7194 42.7577 40.0216Z" fill="#FB0767"/>
<path d="M139.262 13.896C139.424 14.0117 139.551 14.1333 139.644 14.2606C139.748 14.3763 139.8 14.4863 139.8 14.5905C139.8 14.6715 139.759 14.7467 139.678 14.8162L139.366 15.0419C139.25 15.1229 139.14 15.1634 139.036 15.1634C138.932 15.1634 138.845 15.1287 138.776 15.0592C138.475 14.8046 138.22 14.6367 138.012 14.5557C137.803 14.4631 137.589 14.4168 137.369 14.4168C136.987 14.4168 136.617 14.5962 136.258 14.955C135.911 15.3139 135.627 15.7884 135.407 16.3787C135.187 16.969 135.077 17.6114 135.077 18.3058V21.7955C135.077 22.1775 134.887 22.3685 134.505 22.3685H133.619C133.457 22.3685 133.318 22.3106 133.202 22.1948C133.087 22.0791 133.029 21.9402 133.029 21.7782V14.087C133.029 13.705 133.22 13.514 133.602 13.514H134.505C134.887 13.514 135.077 13.6876 135.077 14.0349C135.402 13.8265 135.755 13.6645 136.137 13.5488C136.518 13.433 136.929 13.3751 137.369 13.3751C137.728 13.3751 138.069 13.4156 138.394 13.4967C138.718 13.5661 139.007 13.6992 139.262 13.896Z" fill="#666666"/>
<path d="M131.289 21.7782C131.289 21.9402 131.231 22.0791 131.115 22.1948C130.999 22.3106 130.86 22.3685 130.698 22.3685H129.83C129.691 22.3685 129.564 22.3279 129.448 22.2469C129.344 22.1543 129.281 22.0386 129.257 21.8997C128.887 22.0965 128.47 22.2527 128.007 22.3685C127.556 22.4842 127.064 22.5421 126.532 22.5421C125.71 22.5421 125.062 22.4148 124.587 22.1601C124.124 21.9055 123.783 21.4657 123.563 20.8406C123.354 20.2156 123.221 19.3591 123.163 18.2711C123.106 17.1831 123.077 15.8058 123.077 14.139C123.077 13.9539 123.135 13.8034 123.25 13.6876C123.366 13.5719 123.505 13.514 123.667 13.514H124.535C124.697 13.514 124.836 13.5777 124.952 13.705C125.067 13.8207 125.125 13.9712 125.125 14.1564C125.125 15.4527 125.143 16.5407 125.177 17.4204C125.224 18.3 125.282 19.0119 125.351 19.5559C125.432 20.0999 125.53 20.5108 125.646 20.7885C125.762 21.0663 125.889 21.2573 126.028 21.3615C126.179 21.4541 126.346 21.5004 126.532 21.5004C127.052 21.5004 127.515 21.3731 127.921 21.1184C128.326 20.8638 128.644 20.5165 128.875 20.0767C129.119 19.6253 129.24 19.1103 129.24 18.5315V14.1043C129.24 13.9423 129.298 13.8034 129.414 13.6876C129.529 13.5719 129.668 13.514 129.83 13.514H130.698C130.86 13.514 130.999 13.5719 131.115 13.6876C131.231 13.8034 131.289 13.9423 131.289 14.1043V21.7782Z" fill="#666666"/>
<path d="M117.62 13.3404C118.477 13.3404 119.229 13.5487 119.877 13.9654C120.526 14.3705 121.029 14.9261 121.388 15.6321C121.758 16.3382 121.943 17.1368 121.943 18.028C121.943 18.8845 121.77 19.6542 121.423 20.3371C121.087 21.02 120.612 21.5582 119.999 21.9518C119.385 22.3453 118.668 22.5421 117.846 22.5421C116.978 22.5421 116.214 22.3453 115.554 21.9518C114.906 21.5467 114.397 20.9969 114.026 20.3024C113.668 19.6079 113.488 18.8209 113.488 17.9412C113.488 17.05 113.656 16.2571 113.992 15.5627C114.339 14.8682 114.819 14.3242 115.433 13.9307C116.058 13.5372 116.787 13.3404 117.62 13.3404ZM117.62 14.3821C117.169 14.3821 116.781 14.5383 116.457 14.8509C116.133 15.1518 115.884 15.5743 115.711 16.1183C115.537 16.6507 115.45 17.2583 115.45 17.9412C115.45 19.1681 115.682 20.0709 116.145 20.6496C116.608 21.2168 117.175 21.5004 117.846 21.5004C118.367 21.5004 118.784 21.3325 119.096 20.9969C119.409 20.6612 119.634 20.2272 119.773 19.6947C119.912 19.1623 119.982 18.6068 119.982 18.028C119.982 16.9632 119.773 16.0893 119.357 15.4064C118.94 14.7235 118.361 14.3821 117.62 14.3821Z" fill="#666666"/>
<path d="M111.189 21.7781C111.189 21.9402 111.131 22.0791 111.015 22.1948C110.899 22.3106 110.76 22.3684 110.598 22.3684H109.557C109.395 22.3684 109.256 22.3106 109.14 22.1948C109.024 22.0791 108.966 21.9402 108.966 21.7781V10.2847C108.966 10.25 108.966 10.2269 108.966 10.2153H106.466C106.304 10.2153 106.165 10.169 106.05 10.0764C105.934 9.97223 105.876 9.84492 105.876 9.69445C105.876 9.54398 105.934 9.42245 106.05 9.32985C106.165 9.22568 106.304 9.1736 106.466 9.1736H113.689C113.851 9.1736 113.99 9.22568 114.105 9.32985C114.221 9.42245 114.279 9.54398 114.279 9.69445C114.279 9.84492 114.221 9.97223 114.105 10.0764C113.99 10.169 113.851 10.2153 113.689 10.2153H111.189V10.2847V21.7781Z" fill="#666666"/>
<path d="M97.2042 11.3091C97.2042 11.4711 97.1464 11.61 97.0306 11.7258C96.9149 11.8415 96.776 11.8994 96.6139 11.8994H95.5722C95.4102 11.8994 95.2713 11.8415 95.1555 11.7258C95.0398 11.61 94.9819 11.4711 94.9819 11.3091V10.2847C94.9819 10.1227 95.0398 9.9838 95.1555 9.86806C95.2713 9.75231 95.4102 9.69444 95.5722 9.69444H96.6139C96.776 9.69444 96.9149 9.75231 97.0306 9.86806C97.1464 9.9838 97.2042 10.1227 97.2042 10.2847V11.3091ZM97.2042 21.7781C97.2042 21.9402 97.1464 22.0791 97.0306 22.1948C96.9149 22.3106 96.776 22.3684 96.6139 22.3684H95.5722C95.4102 22.3684 95.2713 22.3106 95.1555 22.1948C95.0398 22.0791 94.9819 21.9402 94.9819 21.7781V14.1043C94.9819 13.9423 95.0398 13.8034 95.1555 13.6876C95.2713 13.5719 95.4102 13.514 95.5722 13.514H96.6139C96.776 13.514 96.9149 13.5719 97.0306 13.6876C97.1464 13.8034 97.2042 13.9423 97.2042 14.1043V21.7781Z" fill="#666666"/>
<path d="M88.0356 21.7781C88.0356 21.9402 87.9777 22.0791 87.862 22.1948C87.7462 22.3106 87.6073 22.3684 87.4453 22.3684H86.5078C86.3457 22.3684 86.2068 22.3106 86.0911 22.1948C85.9754 22.0791 85.9175 21.9402 85.9175 21.7781V9.7639C85.9175 9.60185 85.9754 9.46296 86.0911 9.34722C86.2068 9.23147 86.3457 9.1736 86.5078 9.1736H87.4453C87.6073 9.1736 87.7462 9.23147 87.862 9.34722C87.9777 9.46296 88.0356 9.60185 88.0356 9.7639V17.1599L92.4802 13.5661C92.5728 13.4851 92.6827 13.4446 92.81 13.4446C92.9026 13.4446 92.9894 13.4677 93.0705 13.514L93.3135 13.6529C93.5566 13.7918 93.6781 13.9828 93.6781 14.2258C93.6781 14.4226 93.5855 14.5962 93.4003 14.7467L89.5634 17.8544L93.3483 21.1184C93.545 21.2804 93.6434 21.4656 93.6434 21.674C93.6434 21.8823 93.545 22.0386 93.3483 22.1427L92.9316 22.3684C92.8621 22.4032 92.7811 22.4205 92.6885 22.4205C92.5496 22.4205 92.4339 22.38 92.3413 22.299L88.4176 18.9135C88.3828 18.8903 88.3539 18.8614 88.3307 18.8267L88.0356 19.0697V21.7781Z" fill="#666666"/>
<path d="M84.4343 15.9967C84.4343 17.3162 84.2086 18.4679 83.7572 19.4517C83.3174 20.4239 82.7213 21.1821 81.969 21.7261C81.2166 22.2701 80.3659 22.5421 79.4168 22.5421C78.4099 22.5421 77.4955 22.2816 76.6737 21.7608C75.8519 21.2284 75.198 20.4876 74.7118 19.5385C74.2373 18.5894 74 17.484 74 16.2224C74 15.2617 74.1331 14.3474 74.3993 13.4793C74.6771 12.6112 75.0591 11.8415 75.5452 11.1702C76.0313 10.4989 76.5869 9.97224 77.2119 9.59028C77.8485 9.19675 78.5198 8.99998 79.2258 8.99998C79.955 8.99998 80.6321 9.1736 81.2572 9.52083C81.8938 9.85649 82.4493 10.3368 82.9239 10.9618C83.3984 11.5869 83.7688 12.3276 84.035 13.1841C84.3012 14.0406 84.4343 14.9782 84.4343 15.9967ZM82.212 15.9967C82.212 14.9319 82.0963 13.9654 81.8648 13.0973C81.6449 12.2292 81.315 11.5406 80.8752 11.0313C80.4354 10.522 79.8856 10.2674 79.2258 10.2674C78.7744 10.2674 78.3636 10.441 77.9932 10.7882C77.6228 11.1239 77.3045 11.5811 77.0383 12.1598C76.7836 12.7269 76.5811 13.3635 76.4306 14.0696C76.2917 14.7756 76.2223 15.4932 76.2223 16.2224C76.2223 17.2178 76.3496 18.1033 76.6042 18.8788C76.8589 19.6427 77.2235 20.2445 77.698 20.6844C78.1842 21.1126 78.7571 21.3267 79.4168 21.3267C79.9955 21.3267 80.4932 21.0953 80.9099 20.6323C81.3266 20.1577 81.6449 19.5153 81.8648 18.7051C82.0963 17.8949 82.212 16.9921 82.212 15.9967Z" fill="#666666"/>
<path d="M90.288 55.088L86.672 54.896L86.8 52.464L90.32 52.624L90.416 47.6L86.16 48.112L85.936 45.648L90.48 45.136L90.608 38L93.232 38.032L93.104 44.848L101.264 43.92L99.152 55.536L92.912 55.216L92.72 65.808L90.096 65.776L90.288 55.088ZM77.904 40.272L82.352 43.952L80.72 46L76.24 42.352L77.904 40.272ZM82.32 45.232L84.912 44.976L85.968 56.176L83.408 56.432L82.32 45.232ZM75.408 46.512L80.24 49.68L78.8 51.92L74 48.752L75.408 46.512ZM93.04 47.312L92.944 52.752L96.976 52.912L98.096 46.704L93.04 47.312ZM79.728 53.232L81.936 54.672L76.752 63.344L74.512 61.904L79.728 53.232Z" fill="#666666"/>
<path d="M149.138 54.0505L165.52 53.5666V55.5712L149.23 56.1702L149.138 54.0505Z" fill="#666666"/>
<path d="M141.27 49.1658L127.169 50.1335L126.916 48.129L144.91 47L140.118 55.9629L138.159 55.3638L141.27 49.1658ZM134.749 51.5621L136.984 51.7234L134.243 64.2346L132.238 64.0502L134.749 51.5621Z" fill="#666666"/>
<path d="M110.276 47.8065L112.212 47.4148L113.732 54.5574L111.636 55.1104L110.276 47.8065ZM119.147 47.6682L121.198 48.7511L112.258 64.6033L110.392 63.7738L119.147 47.6682ZM105 48.7972L106.843 48.1982L109.24 55.1104L107.258 55.8708L105 48.7972Z" fill="#666666"/>
<rect x="74" y="31" width="62" height="1" fill="#56C3D9"/>
<path d="M148.212 34.4691L149.068 34.6518L148.736 35.5386C148.864 35.7041 148.933 35.9078 148.932 36.1173C148.931 36.3267 148.86 36.5298 148.73 36.694C148.6 36.8582 148.419 36.9741 148.215 37.0231C148.011 37.0721 147.797 37.0515 147.607 36.9644C147.416 36.8774 147.26 36.729 147.164 36.543C147.068 36.3569 147.037 36.144 147.076 35.9382C147.115 35.7324 147.222 35.5457 147.379 35.4078C147.537 35.2699 147.736 35.1889 147.945 35.1776L148.212 34.4691ZM171.297 38.8304C171.01 39.0836 170.822 39.431 170.768 39.8101C170.714 40.1893 170.797 40.5753 171.002 40.8988C171.207 41.2222 171.521 41.4619 171.887 41.5748C172.253 41.6876 172.647 41.6661 172.998 41.5142C173.35 41.3624 173.636 41.09 173.805 40.7462C173.973 40.4024 174.014 40.0096 173.919 39.6386C173.824 39.2676 173.6 38.9426 173.287 38.7221C172.973 38.5016 172.592 38.4001 172.211 38.4358L171.767 37.4017H170.679L171.297 38.8304ZM176.579 33.066C176.579 33.568 176.562 34.0531 176.531 34.4921H177.308V31.9026H176.547C176.565 32.2724 176.578 32.6643 176.578 33.0688L176.579 33.066ZM174.831 36.1522H168.672C159.864 36.1522 152.378 33.9768 146.819 32.9118C144.413 32.4507 144 31.5737 144 30.5529C144 29.1872 144.735 26 146.995 26C148.87 26 151.046 30.6832 151.759 30.6832C152.063 30.6832 164.736 29.9854 164.736 29.9854C164.736 30.623 165.793 30.9414 166.851 30.9414C167.909 30.9414 168.979 30.6194 168.979 29.9782V28.2596C168.979 28.2596 170.801 29.2351 171.311 29.9818H174.829C175.501 29.9818 175.501 36.155 174.83 36.155L174.831 36.1522ZM173.597 33.1974C173.597 32.8923 173.317 32.644 172.976 32.644H161.337C160.993 32.644 160.717 32.8915 160.717 33.1974C160.717 33.5034 160.996 33.7507 161.337 33.7507H172.972C173.316 33.7534 173.596 33.5051 173.596 33.2001L173.597 33.1974ZM179.243 28.8467C179.078 28.8467 178.92 28.9121 178.804 29.0285C178.688 29.1449 178.622 29.3028 178.622 29.4675V36.6631C178.624 36.8274 178.691 36.9843 178.807 37.0998C178.924 37.2153 179.082 37.2801 179.246 37.2801C179.41 37.2801 179.568 37.2153 179.685 37.0998C179.802 36.9843 179.868 36.8274 179.87 36.6631V29.4727C179.87 29.3904 179.854 29.3088 179.823 29.2327C179.791 29.1566 179.745 29.0875 179.687 29.0295C179.628 28.9715 179.559 28.9257 179.482 28.8947C179.406 28.8638 179.324 28.8483 179.242 28.8493L179.243 28.8467Z" fill="#666666"/>
</svg>
