<svg width="168" height="34" fill="none" xmlns="http://www.w3.org/2000/svg"><path d="M21.134.691c.07.173.174.485.21.71.051.208.173.433.277.502.105.07.14-.035.07-.312a3.292 3.292 0 01-.122-.813c0-.226-.104-.381-.278-.381-.209 0-.244.086-.157.294z" fill="#666"/><path d="M22.424.743c-.035.225-.105.502-.157.606-.07.138-.122.415-.157.71 0 .138-.104.207-.208.155-.105-.069-.174-.017-.14.104.087.641-.034 1.005-.278.918-.14-.07-.26-.017-.26.087s-.123.19-.28.19c-.156 0-.243.104-.19.208.034.121.156.208.26.19.296-.069.47 1.005.192 1.178-.122.07-.174.19-.122.26.07.052-.035.26-.226.467-.174.19-.33.468-.33.606 0 .139-.314.762-.697 1.368-.4.606-.66 1.195-.591 1.299.07.12.052.138-.087.069-.14-.087-.279.052-.418.398-.104.295-.26.537-.313.537-.07 0-.313.294-.522.64-.226.364-.505.763-.626.884-.122.121-.227.346-.227.485 0 .138-.07.242-.174.242-.087 0-.278.208-.417.468-.14.277-.261.415-.278.329 0-.087-.122-.052-.261.069-.14.121-.227.26-.192.329.035.052-.139.294-.383.537-.243.242-.348.294-.208.12.191-.259.191-.294-.07-.19-.313.121-.4 1.195-.087 1.386.244.155 1.583-1.16 1.462-1.455-.035-.121-.018-.173.087-.121.156.104.626-.589.556-.831-.017-.07.052-.121.157-.121.104 0 .156-.122.104-.26a.286.286 0 01.087-.364c.105-.07.14-.052.07.07-.052.103-.035.224.07.294.086.052.173 0 .173-.139 0-.138.157-.45.366-.71.313-.38.33-.502.139-.762-.191-.242-.191-.26.017-.086.296.26.592.294.435.052-.052-.104-.034-.173.053-.173s.208-.139.278-.312c.052-.156.418-.866.8-1.576.4-.71.731-1.42.748-1.593.018-.19.087-.329.174-.329s.122-.156.07-.346c-.052-.19-.035-.312.052-.26.07.052.226-.173.348-.485.435-1.177.522-1.333.679-1.333.104 0 .139-.156.104-.346-.035-.19 0-.347.104-.347.087 0 .157.156.157.347 0 .415.435.467.591.069.087-.242.07-.26-.139-.087-.208.174-.226.156-.156-.138.07-.26.017-.364-.174-.364-.157 0-.33-.156-.383-.363-.087-.26.035-.485.505-.9.487-.434.591-.624.452-.815-.14-.207-.174-.19-.174.104 0 .208-.104.416-.244.468-.191.07-.226-.017-.174-.346.053-.26.14-.537.21-.641.173-.294.19-.623.017-.623a.174.174 0 00-.174.173z" fill="#666"/><path d="M23.45 1.937c-.279.26-.487.624-.487.797 0 .242-.053.26-.244.104-.174-.156-.278-.139-.452.069-.174.208-.122.242.365.173.383-.052.505-.017.365.121-.191.19-.087.658.14.658.087 0 .121-.329.104-.71-.052-.658 0-.744.522-1.056.33-.19.54-.415.487-.502-.14-.242-.296-.19-.8.346zm-2.106.659c-.07.052-.121.19-.121.295 0 .104.087.086.208-.035.105-.104.157-.242.122-.294-.052-.052-.156-.035-.209.034zm-8.405.554c-.21.087-.522.364-.731.606-.278.381-.505.468-1.2.468-1.392.035-1.862.242-2.14.987-.296.78-.331 1.23-.14 1.35.07.052.14.208.14.347 0 .138.139.38.313.554.156.156.452.485.643.727.192.243.662.71 1.044 1.022.383.329.679.675.661.744-.034.07.053.139.174.139.47 0 1.862 2.078 1.862 2.77 0 .243.104.606.244.78.226.311.26.277.382-.52.087-.623.053-1.074-.174-1.662-.156-.45-.278-.935-.278-1.074 0-.156-.104-.38-.226-.502-.557-.554-.922-1.61-.627-1.8.244-.14 1.775 1.61 1.619 1.852-.053.087.034.173.173.173.157.018.348.035.435.052.088.017.418-.312.714-.727.296-.398.609-.693.713-.624.453.278-.209 2.857-.8 3.065a.492.492 0 00-.261.399c0 .207.174.138.661-.295.348-.312.626-.64.591-.71-.017-.086.087-.19.227-.26.591-.225 1.827-3.29 1.827-4.536 0-.693-1.01-1.576-1.827-1.576-.435 0-.61-.07-.61-.277 0-.138-.121-.38-.26-.52-.14-.138-.366-.432-.522-.623-.192-.294-.47-.38-1.253-.433-.557-.017-1.183.018-1.374.104zm1.74 6.009c.052.138.034.208-.07.156a.33.33 0 01-.174-.277c0-.243.122-.19.243.12zm2.54 1.039c0 .138-.33.225-.418.104-.052-.087.018-.156.157-.156s.26.034.26.052zm-3.706 1.143c-.052.138-.104.086-.104-.104-.018-.19.034-.295.086-.226.053.053.07.208.018.33zM4.834 8.795c-.278.312-.487.658-.487.762 0 .225-.47.45-1.514.71-.4.104-.887.364-1.061.606-.191.243-.435.433-.54.433-.19 0-.278.45-.208 1.126.017.173.174.484.348.692.504.537 1.044 1.784.94 2.165-.053.19 0 .346.104.346.087 0 .139.104.104.208-.052.12.209.433.574.675.627.433.661.45 1.514.19a25.15 25.15 0 011.444-.328c.296-.052.557-.156.557-.226 0-.104.278-.225.696-.311.052 0 .33-.104.609-.208 1.217-.485 2.33-.675 3.27-.572.61.053.992.035.992-.069 0-.225-1.392-.537-3.375-.744-.853-.104-1.67-.243-1.81-.33-.452-.259.47-.588 1.497-.553.522.017 1.044-.052 1.165-.156.14-.121.33-.139.453-.07.121.07.174.035.121-.12-.052-.14-.174-.226-.278-.209-.122.035-.156-.069-.087-.242.087-.225.035-.26-.191-.173-.174.07-.261.052-.192-.052.053-.087-.208-.364-.609-.623-1.391-.918-.504-1.368 1.305-.658.679.26 1.81 1.108 1.914 1.437.052.19.226.38.365.433.227.086.21-.018-.07-.45-.695-1.091-1.687-2.39-1.826-2.39-.07 0-.33-.208-.557-.45-.243-.26-.435-.416-.435-.346 0 .069-.208-.018-.47-.208-.539-.364-2.557-.9-3.305-.883-.33 0-.644.19-.957.588zm17.956-.26c-.14.086-.435.173-.644.173-.226 0-.4.104-.4.225 0 .121-.278.363-.609.537-.33.19-.609.432-.609.57 0 .14-.087.191-.208.122-.14-.086-.157-.035-.07.208.07.173.07.26.017.208-.139-.139-1.13.952-1.13 1.23 0 .103-.088.19-.192.19-.087 0-.14.069-.087.155.052.087 0 .19-.14.243-.364.138-.712 1.316-.469 1.558.14.139.192.139.192-.017a.2.2 0 01.208-.208c.105 0 .557-.294.992-.658.435-.364.957-.744 1.148-.848.54-.277 1.705-.416 2.001-.243.226.156.209.208-.087.433-.191.156-.452.225-.557.19-.121-.034-.226-.017-.226.053 0 .12-.522.45-1.079.658-.174.052-.313.19-.313.277 0 .086-.087.104-.208.034-.122-.086-.157-.034-.087.156.07.173 0 .294-.192.346-.156.035.33.07 1.096.087 1.81.052 2.697.294 2.697.727s-.261.485-1.305.295c-.974-.174-3.392 0-3.392.242 0 .087-.192.156-.418.156-.244 0-.47.052-.505.121-.052.087.662.139 1.584.156 1.618.017 1.74.034 2.992.71 2.801 1.489 3.393 1.783 3.532 1.783.174 0 .644-.45.644-.623 0-.07.139-.277.296-.45.226-.243.313-.762.365-2.269.035-1.056.139-2.008.226-2.095.244-.277.174-1.316-.104-1.593-.14-.156-.261-.433-.261-.64 0-.468-1.183-1.091-1.914-1.022-.33.035-.627-.087-.975-.45-.504-.502-1.13-.9-1.409-.9-.07 0-.26.086-.4.173zm3.428 9.28c-.053.052-.21.07-.331.018-.14-.052-.087-.104.104-.104.192-.017.296.035.227.087zM11.569 15.98c-.053.087-.21.122-.349.053-.156-.052-.365 0-.504.104-.122.104-.278.138-.33.086-.053-.052-.192-.052-.314.035-.122.07-.574.156-1.009.19-1.34.104-2.349.555-2.818 1.247-.227.346-.488.675-.557.727-.087.07-.157.572-.157 1.143 0 .797.087 1.16.435 1.645.244.364.47 1.004.522 1.541.14 1.16.626 2.407 1.079 2.788.435.364 1.74.416 1.879.07.14-.347 2.053-.503 3.166-.278 1.131.225 1.88-.034 2.54-.9.818-1.04 1.323-3.065.836-3.342-.105-.07-.122-.329-.07-.64.087-.382.035-.572-.209-.763-.174-.155-.208-.225-.087-.155.105.052.21.034.21-.07 0-.26-.697-1.575-1.097-2.095l-.33-.433.086.52c.105.467.192 2.614.14 3.151-.018.242-.888.312-.905.087 0-.07-.018-.45-.052-.849-.053-.952-.192-1.073-.644-.52-.191.26-.452.468-.574.468-.14 0-.279.208-.33.468-.123.537-1.288 2.147-1.636 2.268-.33.087-.296-.918.035-1.247.139-.138.26-.329.26-.433 0-.103.244-.623.522-1.142.296-.52.522-1.04.522-1.143 0-.277-1.757.052-2.21.416-.12.086-.434.103-.695.017-.278-.07-.592-.104-.73-.087-.331.052.573-.675 1.426-1.16.365-.208.783-.38.922-.38.14 0 .244-.07.244-.157 0-.086.26-.242.574-.363.94-.347 1.34-.572 1.34-.745 0-.087-.122-.121-.262-.052-.139.052-.26.017-.26-.07 0-.224-.47-.224-.61 0zm3.914 3.014c0 .052-.07.138-.174.19-.087.052-.174.018-.174-.069 0-.104.087-.19.174-.19.105 0 .174.034.174.069z" fill="#666"/><path d="M18.23 16.448c-.47.07-.522.122-.557.606-.017.19.696.347 3.166.745.453.07 1.062.727 1.08 1.16 0 .381-.801.433-1.201.07-.157-.14-.592-.295-.975-.364-.556-.087-.626-.07-.382.086.87.554 1.896 1.888 1.966 2.58.034.243.104.624.156.831.07.33.018.399-.348.399-.296 0-.504-.139-.609-.399-.313-.692-1.218-1.852-1.461-1.852-.035 0-.087.45-.087.987-.035 1.368-.244 2.216-.54 2.216-.208 0-.243-.208-.208-.987.035-.554-.035-1.022-.14-1.09-.087-.053-.174-.364-.174-.659 0-.658-1.13-2.441-1.426-2.268-.104.07-.14.052-.087-.035.122-.225-.174-.71-.33-.537-.07.07-.035.312.069.555.122.242.209.588.209.779 0 .173.07.346.156.38.174.053.313 3.083.157 3.343-.052.104-.192.623-.33 1.177-.122.554-.28 1.039-.331 1.074-.07.052-.053.38.052.744.157.589.278.693.922.883.609.173.87.173 1.41-.017.365-.121.695-.26.747-.312.053-.052.348-.277.662-.502.574-.398.591-.398 1.357-.104.417.156.765.346.765.433 0 .19.627.33 1.044.225.191-.052.348-.173.348-.294 0-.104.191-.398.435-.658.452-.485.574-1.368.26-1.87-.12-.19-.034-.381.297-.727.26-.277.556-.485.678-.485.244 0 .487-1.35.279-1.628-.087-.104-.261-.485-.366-.848-.122-.347-.33-.641-.452-.641-.14 0-.365-.225-.522-.485a3.75 3.75 0 00-.73-.831c-.227-.173-.68-.554-1.01-.814-.313-.26-.644-.45-.73-.433-.07.017-.314-.052-.505-.173-.435-.225-2.018-.38-2.714-.26zm31.913 2.686l-2.918-.16.104-2.01 2.84.132.078-4.156-3.435.424-.18-2.038 3.666-.424L50.401 5l2.118.026-.103 5.638L59 9.896l-1.704 9.608-5.035-.265L52.106 28l-2.118-.026.155-8.84zM40.15 6.879l3.59 3.044-1.318 1.694L38.809 8.6l1.342-1.72zm3.564 4.103l2.091-.212.852 9.263-2.065.212-.878-9.263zm-5.578 1.058l3.9 2.62-1.163 1.853L37 13.893l1.136-1.853zm14.228.662l-.078 4.5 3.254.132.904-5.135-4.08.503zm-10.742 4.896l1.782 1.191-4.183 7.173-1.808-1.191 4.21-7.173zm66.406-1.114l24.986-.11-.03 2.005-24.847.226-.109-2.121zm-7.487-6.227l-14.181.755-.225-2.008 18.096-.858-4.949 8.89-1.959-.629 3.218-6.15zm-6.587 2.298l2.243.195-2.942 12.468-2.011-.214 2.71-12.45zM69.424 8.43l1.95-.362 1.421 7.165-2.115.52-1.256-7.323zm8.914-.004l2.044 1.113-9.22 15.716-1.862-.857 9.038-15.972zm-14.23.915l1.861-.57 2.304 6.947-2.002.73-2.163-7.107zM0 33h168v1H0zm142.823-14.351l.574.122-.223.591a.626.626 0 01-.757.951.621.621 0 01-.356-.684.627.627 0 01.583-.508l.179-.472zm15.471 2.909a1.072 1.072 0 00.396 1.83 1.082 1.082 0 001.285-.552 1.073 1.073 0 00-1.068-1.541l-.298-.69h-.729l.414.953zm3.54-3.845c0 .335-.011.659-.032.951h.521v-1.727h-.51c.012.247.021.508.021.778v-.002zm-1.171 2.059h-4.128c-5.903 0-10.92-1.451-14.646-2.162-1.612-.307-1.889-.892-1.889-1.573 0-.911.493-3.037 2.007-3.037 1.257 0 2.715 3.124 3.193 3.124.204 0 8.697-.466 8.697-.466 0 .426.708.638 1.417.638.71 0 1.427-.215 1.427-.643v-1.146s1.221.65 1.562 1.149h2.359c.45 0 .45 4.117 0 4.117l.001-.001zm-.827-1.971c0-.204-.188-.37-.416-.37h-7.801c-.23 0-.416.166-.416.37s.188.369.416.369h7.798c.231.002.418-.164.418-.368l.001-.001zm3.784-2.902a.416.416 0 00-.416.414v4.8a.415.415 0 00.418.41.419.419 0 00.418-.41v-4.797a.42.42 0 00-.26-.385.419.419 0 00-.161-.03l.001-.002z" fill="#666"/></svg>