<svg width="216" height="67" fill="none" xmlns="http://www.w3.org/2000/svg"><path d="M50.206.734c.173.432.433 1.209.52 1.77.13.518.434 1.08.694 1.252.26.173.347-.086.174-.777a8.21 8.21 0 01-.304-2.03c0-.56-.26-.949-.694-.949-.52 0-.607.216-.39.734z" fill="#FB0767"/><path d="M53.416.864c-.087.56-.26 1.252-.39 1.51-.174.346-.304 1.037-.391 1.77 0 .346-.26.519-.52.39-.26-.173-.434-.044-.348.258.217 1.598-.086 2.504-.694 2.288-.347-.172-.65-.043-.65.216 0 .26-.304.475-.695.475-.39 0-.607.26-.477.518.087.303.39.518.651.475.737-.172 1.171 2.504.477 2.936-.303.173-.434.475-.303.648.173.13-.087.647-.564 1.165-.434.475-.825 1.166-.825 1.511 0 .346-.78 1.9-1.735 3.411-.998 1.511-1.648 2.979-1.475 3.238.174.302.13.345-.217.173-.347-.216-.694.13-1.04.993-.261.734-.651 1.338-.782 1.338-.173 0-.78.734-1.301 1.598-.564.906-1.258 1.9-1.562 2.201-.303.303-.564.864-.564 1.21 0 .345-.173.604-.433.604-.217 0-.695.518-1.042 1.165-.347.691-.65 1.036-.694.82 0-.215-.303-.129-.65.173-.347.303-.564.648-.477.82.086.13-.348.734-.955 1.339-.607.604-.867.734-.52.302.477-.648.477-.734-.174-.475-.78.302-.998 2.98-.217 3.454.608.389 3.948-2.892 3.644-3.627-.087-.302-.043-.431.217-.302.39.26 1.562-1.468 1.388-2.072-.043-.173.13-.302.39-.302s.391-.302.26-.648a.712.712 0 01.218-.907c.26-.172.347-.129.173.173-.13.26-.087.562.174.734.217.13.434 0 .434-.345 0-.346.39-1.123.91-1.77.781-.95.825-1.252.348-1.9-.478-.604-.478-.648.043-.216.737.648 1.475.734 1.084.13-.13-.26-.086-.432.13-.432.218 0 .521-.345.695-.777.13-.389 1.04-2.159 1.995-3.929.998-1.77 1.822-3.54 1.866-3.972.043-.475.216-.82.433-.82s.304-.389.174-.864c-.13-.474-.087-.777.13-.647.173.13.564-.432.868-1.209 1.084-2.936 1.301-3.324 1.691-3.324.26 0 .347-.389.26-.864-.086-.475 0-.863.261-.863.217 0 .39.388.39.863 0 1.036 1.085 1.166 1.475.173.217-.605.174-.648-.347-.216-.52.432-.564.389-.39-.345.173-.648.043-.907-.434-.907-.39 0-.824-.389-.954-.907-.217-.647.086-1.209 1.258-2.245 1.214-1.079 1.475-1.554 1.128-2.029-.348-.518-.434-.475-.434.26 0 .517-.26 1.035-.608 1.165-.477.173-.563-.043-.433-.864.13-.647.347-1.338.52-1.597.434-.734.477-1.554.044-1.554a.434.434 0 00-.434.432z" fill="#FB0767"/><path d="M55.976 3.842c-.694.648-1.215 1.555-1.215 1.986 0 .605-.13.648-.607.26-.434-.39-.694-.346-1.128.172-.434.518-.304.605.91.432.955-.13 1.259-.043.912.302-.477.475-.217 1.64.347 1.64.217 0 .303-.82.26-1.77-.13-1.64 0-1.856 1.302-2.633.824-.475 1.344-1.036 1.214-1.252-.347-.604-.737-.475-1.995.863zm-5.249 1.641c-.174.13-.304.475-.304.734s.217.216.52-.086c.26-.26.39-.605.304-.734-.13-.13-.39-.087-.52.086zM29.77 6.865c-.52.215-1.3.906-1.821 1.51-.695.95-1.258 1.166-2.994 1.166-3.47.087-4.641.605-5.335 2.461-.738 1.943-.825 3.066-.347 3.368.173.13.347.518.347.863 0 .346.347.95.78 1.382.39.388 1.128 1.209 1.606 1.813.477.604 1.648 1.77 2.602 2.547.955.82 1.692 1.684 1.649 1.857-.087.172.13.345.434.345 1.17 0 4.641 5.18 4.641 6.908 0 .604.26 1.51.608 1.943.564.777.65.69.954-1.296.217-1.554.13-2.676-.434-4.144-.39-1.123-.694-2.332-.694-2.677 0-.389-.26-.95-.564-1.252-1.388-1.382-2.299-4.015-1.562-4.49.608-.345 4.425 4.015 4.035 4.62-.13.215.087.431.434.431.39.043.867.087 1.084.13.217.043 1.041-.777 1.779-1.814.737-.992 1.518-1.727 1.778-1.554 1.128.691-.52 7.124-1.995 7.642-.347.173-.651.604-.651.993 0 .518.434.345 1.648-.734.868-.777 1.562-1.598 1.475-1.77-.043-.216.217-.475.564-.648 1.475-.561 4.555-8.203 4.555-11.311 0-1.727-2.516-3.929-4.555-3.929-1.084 0-1.518-.173-1.518-.69 0-.346-.304-.95-.65-1.296-.348-.345-.912-1.08-1.302-1.554-.477-.734-1.171-.95-3.123-1.08-1.389-.043-2.95.044-3.427.26zm4.339 14.98c.13.346.086.519-.174.39a.82.82 0 01-.434-.691c0-.605.304-.475.608.302zm6.333 2.591c0 .346-.824.561-1.041.26-.13-.217.043-.39.39-.39.347 0 .651.087.651.13zm-9.24 2.85c-.13.345-.26.215-.26-.26-.044-.474.087-.733.217-.56.13.129.173.517.043.82zM9.56 20.939c-.695.777-1.215 1.64-1.215 1.9 0 .56-1.171 1.122-3.774 1.77-.998.259-2.213.906-2.646 1.51C1.448 26.725.84 27.2.58 27.2c-.477 0-.694 1.123-.52 2.806.043.432.433 1.21.867 1.727 1.258 1.339 2.603 4.447 2.342 5.397-.13.475 0 .864.26.864.218 0 .348.258.261.518-.13.302.52 1.079 1.432 1.683 1.561 1.08 1.648 1.123 3.774.475 1.214-.302 2.82-.69 3.6-.82.738-.13 1.388-.389 1.388-.561 0-.26.694-.562 1.736-.777.13 0 .824-.26 1.518-.519 3.036-1.208 5.813-1.683 8.155-1.424 1.518.13 2.473.086 2.473-.173 0-.561-3.47-1.338-8.416-1.856-2.125-.26-4.164-.605-4.511-.82-1.128-.648 1.17-1.469 3.73-1.382 1.302.043 2.603-.13 2.907-.389.347-.302.824-.345 1.128-.172.303.172.433.086.303-.303-.13-.345-.434-.56-.694-.518-.303.087-.39-.172-.217-.604.217-.561.087-.648-.477-.432-.434.173-.65.13-.477-.13.13-.215-.52-.906-1.518-1.554-3.47-2.288-1.258-3.41 3.253-1.64 1.692.647 4.512 2.763 4.772 3.583.13.475.564.95.911 1.08.564.215.52-.044-.174-1.123-1.735-2.72-4.207-5.958-4.554-5.958-.174 0-.825-.518-1.389-1.122-.607-.648-1.084-1.037-1.084-.864 0 .173-.52-.043-1.171-.518-1.345-.907-6.377-2.245-8.242-2.202-.825 0-1.606.475-2.386 1.468zm44.766-.648c-.347.216-1.085.432-1.605.432-.564 0-.998.26-.998.561 0 .303-.694.907-1.518 1.339-.825.475-1.518 1.08-1.518 1.424 0 .346-.217.475-.521.303-.347-.216-.39-.087-.174.518.174.432.174.647.044.518-.347-.345-2.82 2.374-2.82 3.065a.48.48 0 01-.477.475c-.217 0-.347.173-.217.389.13.215 0 .475-.347.604-.911.346-1.779 3.281-1.171 3.886.347.345.477.345.477-.044a.5.5 0 01.52-.518c.26 0 1.389-.733 2.473-1.64 1.085-.907 2.386-1.857 2.863-2.116 1.345-.69 4.251-1.036 4.989-.604.564.389.52.518-.217 1.08-.477.388-1.128.56-1.388.474-.304-.086-.564-.043-.564.13 0 .302-1.302 1.122-2.69 1.64-.434.13-.78.475-.78.691 0 .216-.217.26-.521.086-.304-.215-.39-.086-.217.389.174.432 0 .734-.477.863-.39.087.824.173 2.733.216 4.511.13 6.724.734 6.724 1.814 0 1.079-.651 1.208-3.254.733-2.43-.431-8.459 0-8.459.605 0 .216-.477.389-1.041.389-.607 0-1.171.129-1.258.302-.13.216 1.648.345 3.947.388 4.035.043 4.339.087 7.462 1.77 6.984 3.713 8.459 4.447 8.806 4.447.434 0 1.605-1.122 1.605-1.554 0-.173.347-.69.738-1.122.563-.605.78-1.9.91-5.656.087-2.634.347-5.008.564-5.224.608-.691.434-3.281-.26-3.972-.347-.389-.65-1.08-.65-1.598 0-1.165-2.95-2.72-4.772-2.547-.825.087-1.562-.216-2.43-1.122-1.258-1.252-2.82-2.245-3.513-2.245-.174 0-.651.216-.998.431zm8.546 23.141c-.13.13-.52.173-.825.043-.347-.129-.216-.258.26-.258.478-.044.738.086.565.215zM26.35 38.856c-.13.216-.52.302-.867.13-.39-.13-.91 0-1.258.259-.304.259-.694.345-.824.215-.13-.13-.477-.13-.781.087-.304.172-1.431.388-2.516.475-3.34.259-5.856 1.381-7.028 3.108-.564.863-1.214 1.684-1.388 1.813-.217.173-.39 1.425-.39 2.85 0 1.986.217 2.892 1.084 4.101.608.907 1.172 2.504 1.302 3.843.347 2.892 1.561 6 2.69 6.95 1.084.907 4.337 1.037 4.684.173.347-.863 5.12-1.252 7.895-.69 2.82.56 4.686-.087 6.334-2.245 2.039-2.59 3.297-7.642 2.082-8.333-.26-.173-.303-.82-.173-1.597.217-.95.086-1.425-.52-1.9-.435-.389-.521-.561-.218-.389.26.13.52.087.52-.172 0-.648-1.734-3.929-2.732-5.224l-.824-1.08.217 1.296c.26 1.165.477 6.519.347 7.857-.044.605-2.213.777-2.256.216 0-.173-.044-1.122-.13-2.115-.13-2.375-.478-2.677-1.605-1.296-.478.648-1.128 1.166-1.432 1.166-.347 0-.694.518-.824 1.166-.304 1.338-3.21 5.353-4.078 5.655-.824.216-.737-2.288.087-3.108.347-.345.65-.82.65-1.08 0-.258.608-1.554 1.302-2.849.738-1.295 1.301-2.59 1.301-2.85 0-.69-4.381.13-5.509 1.037-.303.216-1.084.259-1.735.043-.694-.173-1.475-.259-1.822-.216-.824.13 1.431-1.684 3.557-2.892.911-.518 1.952-.95 2.3-.95.346 0 .607-.173.607-.389 0-.216.65-.604 1.431-.906 2.343-.864 3.34-1.425 3.34-1.857 0-.216-.303-.302-.65-.13-.347.13-.651.044-.651-.172 0-.561-1.171-.561-1.518 0zm9.761 7.512c0 .13-.173.346-.434.475-.216.13-.433.043-.433-.173 0-.259.217-.475.433-.475.26 0 .434.087.434.173z" fill="#FB0767"/><path d="M42.962 40.022c-1.17.172-1.301.302-1.388 1.51-.043.476 1.735.864 7.895 1.857 1.128.173 2.647 1.813 2.69 2.893 0 .95-1.995 1.08-2.993.172-.39-.345-1.475-.733-2.43-.906-1.388-.216-1.561-.173-.954.216 2.17 1.381 4.729 4.706 4.902 6.432.087.605.26 1.555.39 2.073.174.82.044.993-.867.993-.738 0-1.258-.346-1.518-.993-.781-1.727-3.037-4.62-3.644-4.62-.087 0-.217 1.123-.217 2.461-.087 3.41-.608 5.526-1.345 5.526-.52 0-.607-.518-.52-2.46.086-1.382-.087-2.548-.348-2.72-.217-.13-.433-.907-.433-1.641 0-1.64-2.82-6.087-3.558-5.656-.26.173-.347.13-.217-.086.304-.561-.433-1.77-.824-1.339-.173.173-.087.778.174 1.382.303.605.52 1.468.52 1.943 0 .432.174.863.39.95.435.13.782 7.684.391 8.332-.13.26-.477 1.554-.824 2.936-.304 1.381-.694 2.59-.824 2.677-.174.13-.13.95.13 1.856.39 1.468.694 1.727 2.3 2.202 1.517.432 2.168.432 3.513-.043.91-.302 1.735-.648 1.865-.777.13-.13.868-.691 1.649-1.252 1.431-.993 1.475-.993 3.383-.26 1.041.39 1.909.864 1.909 1.08 0 .475 1.562.82 2.603.561.477-.13.867-.432.867-.734 0-.259.477-.993 1.085-1.64 1.128-1.21 1.431-3.411.65-4.663-.303-.475-.086-.95.738-1.813.65-.691 1.388-1.21 1.692-1.21.607 0 1.215-3.367.694-4.058-.217-.259-.65-1.208-.911-2.115-.304-.864-.824-1.597-1.128-1.597-.347 0-.91-.562-1.301-1.21-.434-.69-1.215-1.597-1.822-2.072-.564-.431-1.692-1.381-2.516-2.029-.781-.647-1.605-1.122-1.822-1.079-.174.043-.781-.13-1.258-.432-1.085-.561-5.032-.95-6.768-.647z" fill="#FB0767"/><path d="M145.928 13.896c.163.116.291.237.384.365.105.115.157.225.157.33 0 .08-.041.156-.122.225l-.314.226a.586.586 0 01-.332.121.356.356 0 01-.261-.104c-.303-.254-.558-.422-.768-.503a1.577 1.577 0 00-.645-.14c-.384 0-.756.18-1.117.54-.349.358-.634.832-.855 1.423a5.454 5.454 0 00-.331 1.927v3.49c0 .381-.192.573-.576.573h-.889a.572.572 0 01-.419-.174.568.568 0 01-.174-.417v-7.691c0-.382.191-.573.575-.573h.907c.384 0 .576.174.576.52a4.23 4.23 0 011.064-.485 4.272 4.272 0 011.239-.174c.36 0 .703.04 1.029.122.326.07.616.202.872.399zm-8.011 7.882a.569.569 0 01-.174.417.572.572 0 01-.419.174h-.872a.658.658 0 01-.384-.122.585.585 0 01-.192-.347c-.372.197-.79.353-1.256.469a5.985 5.985 0 01-1.482.173c-.826 0-1.477-.127-1.954-.382-.465-.255-.809-.694-1.03-1.32-.209-.624-.343-1.48-.401-2.569a80.265 80.265 0 01-.087-4.132.61.61 0 01.174-.451.574.574 0 01.419-.174h.872c.163 0 .303.064.419.191a.61.61 0 01.174.451c0 1.297.018 2.385.053 3.264.046.88.105 1.592.174 2.136.082.544.181.955.297 1.233.116.277.244.468.384.572a.947.947 0 00.506.14c.523 0 .988-.128 1.395-.383.407-.254.727-.601.96-1.041.244-.452.366-.967.366-1.546v-4.427c0-.162.058-.3.174-.416a.574.574 0 01.419-.174h.872c.163 0 .303.058.419.174a.567.567 0 01.174.416v7.674zm-13.733-8.438c.86 0 1.616.209 2.267.625a4.126 4.126 0 011.518 1.667c.372.706.558 1.505.558 2.396 0 .857-.174 1.626-.523 2.31a3.945 3.945 0 01-1.43 1.614c-.617.393-1.338.59-2.164.59-.872 0-1.639-.197-2.302-.59a4.283 4.283 0 01-1.535-1.65c-.361-.694-.541-1.481-.541-2.36 0-.892.168-1.685.506-2.38a4.038 4.038 0 011.448-1.631c.628-.394 1.36-.59 2.198-.59zm0 1.042c-.454 0-.844.156-1.169.469-.326.3-.576.723-.75 1.267-.175.533-.262 1.14-.262 1.823 0 1.227.233 2.13.698 2.709.465.567 1.035.85 1.709.85.524 0 .942-.168 1.256-.503.314-.336.541-.77.681-1.302a6.571 6.571 0 00.209-1.667c0-1.065-.209-1.939-.628-2.622-.419-.683-1-1.024-1.744-1.024zm-6.463 7.396a.566.566 0 01-.175.417.57.57 0 01-.418.174h-1.047a.574.574 0 01-.419-.174.567.567 0 01-.174-.417V10.215h-2.512a.653.653 0 01-.419-.139.494.494 0 01-.174-.382c0-.15.058-.272.174-.364a.608.608 0 01.419-.156h7.257c.163 0 .302.052.419.156a.444.444 0 01.174.364c0 .15-.058.278-.174.382a.653.653 0 01-.419.14h-2.512v11.561zM103.669 11.31c0 .161-.058.3-.174.416a.572.572 0 01-.419.173h-1.046a.572.572 0 01-.419-.173.568.568 0 01-.174-.417v-1.024c0-.162.058-.301.174-.417a.572.572 0 01.419-.174h1.046c.163 0 .303.058.419.174a.568.568 0 01.174.417v1.024zm0 10.468a.569.569 0 01-.174.417.572.572 0 01-.419.173h-1.046a.572.572 0 01-.419-.173.567.567 0 01-.174-.417v-7.674c0-.162.058-.3.174-.416a.572.572 0 01.419-.174h1.046c.163 0 .303.058.419.174a.568.568 0 01.174.416v7.674zm-9.212 0a.566.566 0 01-.175.417.572.572 0 01-.418.174h-.942a.572.572 0 01-.419-.174.567.567 0 01-.174-.417V9.764c0-.162.058-.301.174-.417a.572.572 0 01.419-.173h.942c.163 0 .302.057.418.173a.567.567 0 01.175.417v7.396l4.466-3.594a.52.52 0 01.593-.052l.244.139c.244.139.366.33.366.573 0 .197-.093.37-.279.52l-3.855 3.108 3.803 3.264c.198.163.297.348.297.556 0 .208-.1.365-.297.469l-.419.226a.542.542 0 01-.244.052.512.512 0 01-.349-.122l-3.942-3.386a.312.312 0 01-.088-.086l-.296.243v2.708zm-3.618-5.781c0 1.32-.227 2.47-.68 3.455-.443.972-1.041 1.73-1.797 2.274a4.282 4.282 0 01-2.565.816 5.06 5.06 0 01-2.756-.781c-.826-.533-1.483-1.273-1.971-2.223-.477-.949-.715-2.054-.715-3.316 0-.96.133-1.875.4-2.743a8.11 8.11 0 011.152-2.309c.489-.671 1.047-1.198 1.675-1.58A3.801 3.801 0 0185.605 9a4.15 4.15 0 012.041.52c.64.337 1.198.817 1.675 1.442.477.625.85 1.366 1.117 2.222.267.857.4 1.794.4 2.813zm-2.233 0c0-1.065-.116-2.032-.349-2.9-.221-.868-.553-1.556-.994-2.066-.442-.509-.995-.764-1.658-.764-.453 0-.866.174-1.238.521-.372.336-.692.793-.96 1.372a9.45 9.45 0 00-.61 1.91c-.14.706-.21 1.423-.21 2.152 0 .996.128 1.881.384 2.657.256.764.622 1.365 1.1 1.805a2.536 2.536 0 001.726.643c.582 0 1.082-.232 1.5-.695.42-.474.739-1.117.96-1.927.233-.81.349-1.713.349-2.708zm8.114 39.091l-3.633-.192.129-2.432 3.537.16.096-5.024-4.276.512-.225-2.464 4.565-.512.129-7.136 2.637.032-.129 6.816 8.199-.928-2.122 11.616-6.27-.32-.193 10.592-2.636-.032.192-10.688zM84.278 40.272l4.47 3.68L87.106 46l-4.502-3.648 1.672-2.08zm4.437 4.96l2.605-.256 1.06 11.2-2.572.256-1.093-11.2zm-6.945 1.28l4.855 3.168-1.447 2.24-4.823-3.168 1.415-2.24zm17.717.8l-.097 5.44 4.051.16 1.126-6.208-5.08.608zm-13.376 5.92l2.219 1.44-5.21 8.672-2.25-1.44 5.24-8.672zm71.751-3.182l16.46-.483v2.004l-16.368.6-.092-2.12zm-7.906-4.884l-14.169.968-.254-2.005L153.614 43l-4.816 8.963-1.968-.6 3.126-6.197zm-6.552 2.396l2.246.161-2.755 12.512-2.014-.185 2.523-12.488zm-24.59-3.756l1.945-.391 1.528 7.142-2.107.553-1.366-7.303zm8.913-.138l2.06 1.083-8.982 15.852-1.875-.83 8.797-16.105zm-14.215 1.13l1.852-.6 2.408 6.912-1.991.76-2.269-7.073zM82.364 31h90.431v.6H82.364zm101.696 2.47l.861.182-.335.887a.934.934 0 01-.523 1.484.944.944 0 01-1.056-.48.932.932 0 01.217-1.135.94.94 0 01.568-.23l.268-.709zm23.196 4.36a1.605 1.605 0 00.592 2.744 1.624 1.624 0 001.927-.828 1.605 1.605 0 00-.52-2.024 1.622 1.622 0 00-1.081-.286l-.446-1.034h-1.093l.621 1.428zm5.307-5.764c0 .502-.017.987-.048 1.426h.781v-2.59h-.765c.018.37.031.762.031 1.167l.001-.003zm-1.756 3.086h-6.189c-8.85 0-16.372-2.175-21.957-3.24-2.418-.461-2.833-1.338-2.833-2.36 0-1.365.739-4.552 3.009-4.552 1.885 0 4.071 4.683 4.787 4.683.306 0 13.039-.698 13.039-.698 0 .638 1.062.956 2.125.956s2.139-.322 2.139-.963V27.26s1.83.975 2.342 1.722h3.536c.675 0 .675 6.173.001 6.173l.001-.003zm-1.241-2.955c0-.305-.28-.553-.623-.553h-11.695c-.345 0-.623.248-.623.553 0 .306.28.554.623.554h11.691c.346.002.627-.246.627-.55v-.004zm5.674-4.35a.624.624 0 00-.624.62v7.196a.625.625 0 00.627.617.625.625 0 00.627-.617v-7.19a.619.619 0 00-.39-.578.62.62 0 00-.241-.046l.001-.002z" fill="#fff"/></svg>