<svg width="154" height="61" fill="none" xmlns="http://www.w3.org/2000/svg"><path d="M44.746 1.757c.154.386.386 1.082.464 1.585.116.464.386.967.618 1.121.232.155.31-.077.155-.696a7.38 7.38 0 01-.27-1.817c0-.502-.233-.85-.62-.85-.463 0-.54.193-.347.657z" fill="#FB0767"/><path d="M47.606 1.873c-.077.502-.232 1.121-.348 1.353-.155.31-.27.928-.348 1.585 0 .31-.232.464-.464.348-.232-.155-.386-.039-.31.232.194 1.43-.076 2.243-.618 2.05-.309-.155-.58-.04-.58.193 0 .231-.27.425-.618.425s-.541.232-.425.464c.077.27.347.464.58.425.657-.155 1.043 2.242.425 2.629-.27.155-.387.425-.27.58.154.116-.078.58-.504 1.044-.386.425-.734 1.044-.734 1.353 0 .31-.696 1.701-1.547 3.054-.889 1.354-1.469 2.668-1.314 2.9.155.27.116.31-.193.155-.31-.194-.619.116-.928.889-.232.657-.58 1.198-.696 1.198-.155 0-.696.658-1.16 1.43-.503.813-1.121 1.702-1.392 1.973-.27.27-.502.773-.502 1.082 0 .31-.155.541-.387.541-.193 0-.619.464-.928 1.044-.31.619-.58.928-.619.735 0-.194-.27-.116-.58.154-.309.271-.502.58-.425.735.078.116-.31.657-.85 1.199-.542.54-.774.657-.464.27.425-.58.425-.657-.155-.425-.696.27-.89 2.668-.193 3.093.541.348 3.518-2.59 3.247-3.248-.077-.27-.038-.386.194-.27.348.232 1.392-1.315 1.237-1.856-.039-.155.116-.27.348-.27.232 0 .348-.271.232-.58a.64.64 0 01.193-.813c.232-.154.31-.116.155.155-.116.232-.078.503.154.657.194.116.387 0 .387-.309 0-.31.348-1.005.812-1.585.696-.85.734-1.121.31-1.701-.426-.541-.426-.58.038-.194.657.58 1.314.658.966.116-.116-.232-.077-.386.116-.386.194 0 .464-.31.619-.696.116-.348.928-1.933 1.779-3.518.889-1.585 1.623-3.17 1.662-3.557.039-.425.193-.735.386-.735.194 0 .271-.348.155-.773-.116-.425-.077-.696.116-.58.155.116.503-.387.773-1.083.967-2.629 1.16-2.976 1.508-2.976.232 0 .31-.348.232-.774-.077-.425 0-.773.232-.773.194 0 .348.348.348.773 0 .928.967 1.044 1.315.155.193-.541.154-.58-.31-.193-.464.386-.502.348-.348-.31.155-.58.039-.812-.386-.812-.348 0-.735-.348-.85-.811-.194-.58.076-1.083 1.12-2.01 1.083-.967 1.315-1.393 1.006-1.818-.31-.464-.387-.425-.387.232 0 .464-.232.928-.541 1.044-.426.154-.503-.039-.387-.773.116-.58.31-1.199.464-1.43.387-.658.425-1.393.039-1.393a.387.387 0 00-.387.387z" fill="#FB0767"/><path d="M49.888 4.54c-.619.58-1.083 1.392-1.083 1.779 0 .541-.116.58-.541.232-.387-.348-.619-.31-1.006.155-.386.464-.27.54.812.386.851-.116 1.122-.038.812.27-.425.426-.193 1.47.31 1.47.193 0 .27-.735.232-1.585-.116-1.47 0-1.663 1.16-2.359.734-.425 1.198-.927 1.082-1.12-.31-.542-.657-.426-1.778.772zM45.21 6.01c-.155.116-.27.425-.27.657 0 .232.193.193.463-.077.232-.232.348-.542.271-.658-.116-.116-.348-.077-.464.078zM26.534 7.247c-.464.193-1.16.812-1.624 1.353-.618.85-1.12 1.044-2.667 1.044-3.093.077-4.137.541-4.756 2.204-.657 1.74-.734 2.745-.31 3.015.155.116.31.464.31.774 0 .309.31.85.696 1.237a22.285 22.285 0 011.43 1.623c.426.542 1.47 1.586 2.32 2.282.85.734 1.508 1.507 1.47 1.662-.078.155.115.31.386.31 1.044 0 4.137 4.639 4.137 6.185 0 .541.232 1.353.541 1.74.503.696.58.619.85-1.16.194-1.392.117-2.397-.386-3.711-.348-1.006-.619-2.088-.619-2.397 0-.348-.231-.851-.502-1.122-1.237-1.237-2.05-3.595-1.392-4.02.541-.31 3.944 3.595 3.596 4.136-.116.194.077.387.386.387.348.039.774.077.967.116.193.039.928-.696 1.585-1.624.657-.89 1.353-1.546 1.585-1.392 1.005.619-.464 6.38-1.778 6.844-.31.154-.58.54-.58.889 0 .464.386.309 1.469-.657.773-.697 1.392-1.431 1.314-1.586-.038-.193.194-.425.503-.58 1.314-.502 4.06-7.345 4.06-10.129 0-1.546-2.243-3.518-4.06-3.518-.967 0-1.353-.155-1.353-.619 0-.31-.27-.85-.58-1.16-.31-.309-.812-.966-1.16-1.392-.425-.657-1.044-.85-2.784-.966-1.237-.039-2.629.039-3.054.232zM30.4 20.663c.116.309.078.463-.154.348a.735.735 0 01-.387-.62c0-.54.27-.424.541.272zm5.645 2.32c0 .309-.735.502-.928.231-.116-.193.039-.348.348-.348.31 0 .58.078.58.116zm-8.235 2.551c-.116.31-.232.193-.232-.232-.039-.425.077-.657.193-.503.116.116.155.464.039.735zM8.52 19.85c-.619.697-1.083 1.47-1.083 1.702 0 .502-1.044 1.005-3.363 1.585-.89.232-1.972.812-2.359 1.353-.425.541-.966.967-1.198.967-.425 0-.619 1.005-.464 2.513.039.386.387 1.082.773 1.546 1.121 1.199 2.32 3.982 2.088 4.833-.116.425 0 .773.232.773.193 0 .31.232.232.464-.116.27.464.967 1.276 1.508 1.391.966 1.469 1.005 3.363.425 1.083-.27 2.513-.618 3.21-.734.656-.116 1.236-.348 1.236-.503 0-.232.619-.503 1.547-.696.116 0 .734-.232 1.353-.464 2.706-1.082 5.18-1.508 7.268-1.276 1.354.116 2.204.078 2.204-.154 0-.503-3.093-1.199-7.5-1.663-1.895-.232-3.712-.541-4.021-.734-1.005-.58 1.044-1.315 3.325-1.238 1.16.04 2.32-.116 2.59-.348.31-.27.735-.309 1.005-.154.271.154.387.077.271-.27-.116-.31-.386-.503-.618-.465-.271.078-.349-.154-.194-.541.194-.503.077-.58-.425-.387-.387.155-.58.116-.425-.116.116-.193-.464-.811-1.354-1.392-3.093-2.049-1.12-3.054 2.9-1.469 1.508.58 4.02 2.475 4.253 3.21.116.425.503.85.812.966.502.193.464-.039-.155-1.005-1.546-2.436-3.75-5.336-4.06-5.336-.154 0-.734-.464-1.236-1.005-.542-.58-.967-.928-.967-.773 0 .154-.464-.039-1.044-.464-1.198-.812-5.683-2.01-7.346-1.972-.734 0-1.43.425-2.126 1.315zm39.898-.58c-.31.194-.966.387-1.43.387-.503 0-.89.232-.89.503 0 .27-.618.812-1.353 1.198-.734.426-1.353.967-1.353 1.276 0 .31-.193.426-.464.271-.31-.193-.348-.077-.154.464.154.387.154.58.038.464-.31-.31-2.513 2.126-2.513 2.745a.43.43 0 01-.425.425c-.194 0-.31.155-.194.348.117.193 0 .425-.309.541-.812.31-1.585 2.939-1.044 3.48.31.31.426.31.426-.039 0-.27.193-.464.464-.464.232 0 1.237-.657 2.203-1.469.967-.812 2.127-1.662 2.552-1.894 1.198-.619 3.789-.928 4.446-.541.503.347.464.463-.193.966-.425.348-1.005.503-1.237.425-.271-.077-.503-.038-.503.116 0 .27-1.16 1.005-2.397 1.47-.387.115-.696.425-.696.618s-.193.232-.464.077c-.27-.193-.348-.077-.193.348.154.387 0 .658-.425.774-.348.077.734.154 2.435.193 4.021.116 5.993.657 5.993 1.624 0 .966-.58 1.082-2.9.657-2.165-.387-7.539 0-7.539.541 0 .194-.425.348-.928.348-.541 0-1.044.116-1.121.27-.116.194 1.47.31 3.518.349 3.596.038 3.867.077 6.65 1.585 6.225 3.325 7.54 3.982 7.849 3.982.386 0 1.43-1.005 1.43-1.392 0-.154.31-.618.657-1.005.503-.541.696-1.701.812-5.065.078-2.358.31-4.484.503-4.678.541-.618.386-2.938-.232-3.557-.31-.348-.58-.966-.58-1.43 0-1.044-2.63-2.436-4.253-2.281-.734.077-1.392-.194-2.165-1.005-1.121-1.122-2.513-2.01-3.132-2.01-.154 0-.58.192-.889.386zm7.617 20.724c-.116.115-.464.154-.735.038-.31-.116-.193-.232.232-.232.425-.038.657.078.503.194zm-32.551-4.099c-.116.194-.464.271-.773.116-.348-.116-.812 0-1.121.232-.271.232-.619.31-.735.194-.116-.116-.425-.116-.696.077-.27.155-1.276.348-2.242.425-2.977.232-5.22 1.237-6.264 2.784-.502.773-1.082 1.508-1.237 1.624-.193.154-.348 1.276-.348 2.551 0 1.779.194 2.59.967 3.673.541.812 1.044 2.243 1.16 3.441.31 2.59 1.392 5.374 2.397 6.225.966.812 3.866.928 4.175.154.31-.773 4.562-1.12 7.037-.618 2.513.502 4.175-.078 5.644-2.01 1.818-2.32 2.939-6.844 1.856-7.462-.232-.155-.27-.735-.154-1.43.193-.851.077-1.277-.464-1.702-.387-.348-.464-.502-.194-.348.232.116.464.077.464-.154 0-.58-1.546-3.519-2.436-4.679l-.734-.966.193 1.16c.232 1.043.426 5.838.31 7.036-.04.541-1.972.696-2.01.193 0-.154-.04-1.005-.117-1.894-.116-2.126-.425-2.397-1.43-1.16-.426.58-1.005 1.044-1.276 1.044-.31 0-.619.464-.735 1.044-.27 1.198-2.86 4.794-3.634 5.065-.735.193-.657-2.05.077-2.784.31-.31.58-.735.58-.967 0-.232.541-1.391 1.16-2.551.657-1.16 1.16-2.32 1.16-2.552 0-.619-3.905.116-4.91.928-.27.193-.967.232-1.547.039-.618-.155-1.314-.232-1.623-.194-.735.116 1.275-1.508 3.17-2.59.812-.464 1.74-.85 2.049-.85.31 0 .541-.155.541-.349 0-.193.58-.54 1.276-.812 2.088-.773 2.977-1.275 2.977-1.662 0-.193-.27-.27-.58-.116-.31.116-.58.039-.58-.155 0-.502-1.044-.502-1.353 0zm8.699 6.728c0 .116-.155.309-.387.425-.193.116-.386.038-.386-.155 0-.232.193-.425.386-.425.232 0 .387.077.387.155z" fill="#FB0767"/><path d="M38.29 36.94c-1.044.154-1.16.27-1.237 1.352-.039.426 1.546.774 7.036 1.663 1.006.154 2.359 1.624 2.397 2.59 0 .85-1.778.967-2.667.155-.348-.31-1.315-.657-2.165-.812-1.238-.193-1.392-.155-.85.193 1.932 1.237 4.213 4.214 4.368 5.76.077.542.232 1.393.348 1.857.154.734.038.889-.773.889-.658 0-1.122-.31-1.354-.89-.696-1.546-2.706-4.136-3.247-4.136-.078 0-.194 1.005-.194 2.204-.077 3.054-.54 4.948-1.198 4.948-.464 0-.541-.464-.464-2.203.077-1.238-.077-2.281-.31-2.436-.192-.116-.386-.812-.386-1.47 0-1.468-2.513-5.45-3.17-5.064-.232.155-.31.116-.194-.077.271-.503-.386-1.585-.734-1.199-.155.155-.077.696.155 1.237.27.542.464 1.315.464 1.74 0 .387.154.773.347.85.387.117.696 6.883.348 7.462-.116.233-.425 1.392-.734 2.63-.27 1.237-.619 2.32-.735 2.397-.154.116-.116.85.116 1.662.348 1.315.619 1.547 2.05 1.972 1.353.386 1.933.386 3.131-.039.812-.27 1.547-.58 1.663-.696.115-.116.773-.618 1.469-1.121 1.275-.89 1.314-.89 3.015-.232.928.348 1.701.773 1.701.967 0 .425 1.392.734 2.32.502.425-.116.773-.386.773-.657 0-.232.426-.89.967-1.47 1.005-1.082 1.276-3.054.58-4.175-.27-.425-.078-.85.657-1.623.58-.62 1.237-1.083 1.508-1.083.541 0 1.082-3.016.619-3.634-.194-.232-.58-1.083-.812-1.895-.271-.773-.735-1.43-1.006-1.43-.309 0-.811-.503-1.16-1.083-.386-.618-1.082-1.43-1.623-1.855-.503-.387-1.508-1.238-2.243-1.818-.696-.58-1.43-1.005-1.623-.966-.155.038-.696-.116-1.122-.387-.966-.502-4.484-.85-6.03-.58z" fill="#FB0767"/><path d="M97.19 3.4a.894.894 0 01.206.197c.056.062.084.121.084.177 0 .044-.022.085-.065.122l-.169.122a.314.314 0 01-.178.065.19.19 0 01-.14-.056 1.58 1.58 0 00-.412-.271.845.845 0 00-.347-.075c-.206 0-.405.097-.599.29-.187.194-.34.45-.458.768a2.956 2.956 0 00-.178 1.039V7.66c0 .205-.103.308-.31.308h-.477a.306.306 0 01-.224-.093.306.306 0 01-.094-.225V3.503c0-.206.103-.309.309-.309h.487c.206 0 .309.094.309.28a2.264 2.264 0 011.236-.355c.193 0 .377.022.552.066.175.037.33.109.468.215zm-4.3 4.25a.306.306 0 01-.093.225.306.306 0 01-.224.093h-.468a.352.352 0 01-.206-.065.312.312 0 01-.103-.187 3.2 3.2 0 01-1.47.346c-.443 0-.793-.069-1.049-.206-.25-.137-.433-.374-.552-.711-.112-.337-.184-.8-.215-1.386a43.384 43.384 0 01-.047-2.228c0-.1.031-.181.094-.243a.306.306 0 01.224-.094h.468c.088 0 .163.034.225.103a.329.329 0 01.094.243c0 .7.009 1.286.028 1.76.025.475.056.859.093 1.152.044.293.097.515.16.665.062.15.13.252.205.308.081.05.172.075.272.075.28 0 .53-.068.749-.206.218-.137.39-.324.515-.561a1.73 1.73 0 00.196-.833V3.512c0-.087.031-.162.094-.224a.306.306 0 01.225-.094h.468c.087 0 .162.031.224.094a.306.306 0 01.094.224V7.65zM85.52 3.1a2.226 2.226 0 012.032 1.236c.2.38.3.811.3 1.292 0 .462-.094.877-.281 1.245a2.123 2.123 0 01-.768.87c-.33.213-.718.319-1.16.319-.469 0-.88-.106-1.237-.318a2.309 2.309 0 01-.823-.89 2.733 2.733 0 01-.29-1.273c0-.48.09-.908.271-1.282.187-.375.446-.668.777-.88.337-.212.73-.319 1.18-.319zm0 .562a.872.872 0 00-.627.253c-.174.162-.309.39-.402.683-.094.287-.14.615-.14.983 0 .662.124 1.149.374 1.46.25.306.555.46.917.46.281 0 .506-.091.674-.272.169-.181.29-.415.365-.702.075-.287.113-.587.113-.899 0-.574-.113-1.045-.337-1.414-.225-.368-.537-.552-.936-.552zM82.053 7.65a.306.306 0 01-.094.225.306.306 0 01-.225.093h-.561a.306.306 0 01-.225-.093.306.306 0 01-.094-.225V1.415h-1.348a.348.348 0 01-.224-.075.267.267 0 01-.094-.206.24.24 0 01.094-.196.324.324 0 01.224-.084h3.895c.087 0 .162.028.224.084a.24.24 0 01.094.196c0 .082-.031.15-.094.206a.348.348 0 01-.224.075h-1.348V7.65zm-7.541-5.645a.306.306 0 01-.094.225.306.306 0 01-.225.093h-.561a.306.306 0 01-.225-.093.306.306 0 01-.093-.225v-.552c0-.088.03-.163.093-.225a.306.306 0 01.225-.094h.561c.088 0 .163.032.225.094a.306.306 0 01.094.225v.552zm0 5.645a.306.306 0 01-.094.225.306.306 0 01-.225.093h-.561a.306.306 0 01-.225-.093.306.306 0 01-.093-.225V3.512c0-.087.03-.162.093-.224a.306.306 0 01.225-.094h.561c.088 0 .163.031.225.094a.306.306 0 01.094.224V7.65zm-4.944 0a.306.306 0 01-.093.225.306.306 0 01-.225.093h-.505a.306.306 0 01-.225-.093.306.306 0 01-.094-.225V1.172c0-.087.031-.162.094-.225a.306.306 0 01.225-.093h.505c.088 0 .162.03.225.093a.306.306 0 01.093.225V5.16l2.397-1.938a.278.278 0 01.318-.028l.131.075c.131.075.197.178.197.309 0 .106-.05.2-.15.28l-2.069 1.676 2.041 1.76c.106.088.16.188.16.3 0 .112-.054.197-.16.253l-.225.121a.29.29 0 01-.13.029.274.274 0 01-.188-.066l-2.116-1.826a.168.168 0 01-.046-.046l-.16.13V7.65zm-1.942-3.117c0 .711-.121 1.332-.365 1.863-.237.524-.558.933-.964 1.226a2.29 2.29 0 01-1.376.44 2.71 2.71 0 01-1.48-.421 3.047 3.047 0 01-1.057-1.199C62.128 5.931 62 5.335 62 4.654c0-.518.072-1.01.215-1.479.15-.468.356-.883.618-1.245a3.13 3.13 0 01.899-.852A2.033 2.033 0 0164.818.76c.393 0 .758.094 1.095.28.343.182.643.44.899.778.256.337.456.736.599 1.198.144.462.215.968.215 1.517zm-1.198 0c0-.574-.062-1.096-.187-1.564-.119-.468-.297-.84-.534-1.114a1.127 1.127 0 00-.89-.412.95.95 0 00-.664.281c-.2.181-.371.428-.515.74a5.124 5.124 0 00-.327 1.03 6 6 0 00-.113 1.16c0 .537.069 1.015.206 1.433.137.412.334.736.59.973.262.231.571.347.927.347.312 0 .58-.125.805-.375.225-.256.396-.602.515-1.039a5.31 5.31 0 00.187-1.46zm11.86 44.555l-3.616-.192.128-2.432 3.52.16.096-5.024-4.256.512-.224-2.464 4.544-.512.128-7.136 2.624.032-.128 6.816 8.16-.928-2.112 11.616-6.24-.32-.192 10.592-2.624-.032.192-10.688zM65.904 34.272l4.448 3.68L68.72 40l-4.48-3.648 1.664-2.08zm4.416 4.96l2.592-.256 1.056 11.2-2.56.256-1.088-11.2zm-6.912 1.28l4.832 3.168-1.44 2.24-4.8-3.168 1.408-2.24zm17.632.8l-.096 5.44 4.032.16 1.12-6.208-5.056.608zm-13.312 5.92l2.208 1.44-5.184 8.672-2.24-1.44 5.216-8.672zm69.41.818l16.382-.483v2.004l-16.29.6-.092-2.12zm-7.868-4.884l-14.101.968-.253-2.005L132.91 41l-4.792 8.963-1.959-.6 3.111-6.197zm-6.521 2.396l2.235.161-2.741 12.512-2.005-.185 2.511-12.488zm-24.473-3.756l1.936-.391 1.52 7.142-2.096.553-1.36-7.303zm8.871-.138l2.051 1.083-8.94 15.852-1.866-.83 8.755-16.105zM93 42.798l1.843-.6 2.397 6.912-1.982.76L93 42.798z" fill="#666"/><path fill="#56C3D9" d="M62 23h62v1H62z"/><path d="M131.802 23.635l.57.121-.221.59a.622.622 0 11-1.046.668.623.623 0 01.52-.908l.177-.471zm15.36 2.902a1.071 1.071 0 10.608-.263l-.295-.688h-.724l.411.95zm3.514-3.836c0 .334-.011.657-.032.95h.517v-1.724h-.506c.012.246.02.507.02.776l.001-.002zm-1.163 2.054h-4.098c-5.86 0-10.841-1.448-14.539-2.156-1.601-.307-1.876-.89-1.876-1.57 0-.908.489-3.029 1.993-3.029 1.247 0 2.695 3.116 3.169 3.116.203 0 8.634-.464 8.634-.464 0 .424.704.636 1.407.636.704 0 1.417-.215 1.417-.641v-1.144s1.211.65 1.551 1.146h2.341c.447 0 .447 4.107.001 4.107v-.001zm-.821-1.966c0-.203-.186-.369-.413-.369h-7.744c-.229 0-.413.165-.413.369 0 .203.186.368.413.368h7.741c.229.002.415-.163.415-.366l.001-.002zm3.757-2.895a.411.411 0 00-.413.413v4.788a.413.413 0 00.415.41.416.416 0 00.415-.41V20.31a.417.417 0 00-.418-.415l.001-.002z" fill="#666"/></svg>