<?xml version="1.0" encoding="UTF-8"?>
<svg xmlns="http://www.w3.org/2000/svg" version="1.1" viewBox="0 0 843 848">
  <defs>
    <style>
      .cls-1 {
        fill: #fff;
      }

      .cls-2 {
        fill: red;
      }
    </style>
  </defs>
  <!-- Generator: Adobe Illustrator 28.6.0, SVG Export Plug-In . SVG Version: 1.2.0 Build 709)  -->
  <g>
    <g id="_レイヤー_1" data-name="レイヤー_1">
      <g>
        <path d="M720,424c0,41.5-8.1,81.7-24.1,119.6-15.5,36.6-37.6,69.4-65.8,97.6-28.2,28.2-61.1,50.4-97.6,65.8-37.9,16-78.1,24.1-119.6,24.1s-81.7-8.1-119.6-24.1c-36.6-15.5-69.4-37.6-97.6-65.8-28.2-28.2-50.4-61.1-65.8-97.6-16-37.9-24.1-78.1-24.1-119.6s8.1-81.7,24.1-119.6c15.5-36.6,37.6-69.4,65.8-97.6s61.1-50.4,97.6-65.8c37.9-16,78.1-24.1,119.6-24.1s81.7,8.1,119.6,24.1c36.6,15.5,69.4,37.6,97.6,65.8,28.2,28.2,50.4,61.1,65.8,97.6,16,37.9,24.1,78.1,24.1,119.6h0Z"/>
        <g>
          <g>
            <path class="cls-1" d="M593.9,542.3h0l.2-.2h0s0-.2.2-.2h0v-.2q0,0,0,0s0,0,0-.2h0c0,0,0-.2,0-.3v-.6h0v-.3h0v-.4h0v-.3h0v-.3h0v-.4h0v-.9h0v-229.5c0-4.4-3.5-7.9-7.9-7.9h-103.4c-4.4,0-7.9,3.5-7.9,7.9s3.5,7.9,7.9,7.9h95.5v199.9l-53.1-62.5c-4.3-5-9.4-9-15.3-11.8-5.7-2.7-11.7-4.2-17.9-4.4-6.2-.2-12.3.9-18.1,3.2-6,2.4-11.3,6-15.9,10.8l-21.8,22.7-.3.3-48.5,55.4h-94.3c-4.4,0-7.9,3.5-7.9,7.9s3.5,7.9,7.9,7.9h295.1c0,0,.2,0,.3,0h1s0,0,.2,0h0s0,0,.2,0c0,0,0,0,.2,0h0c0,0,0,0,.2-.2h0c0,0,0,0,.2-.2h0s0,0,.2-.2h0q0,0,0-.2l.2-.2h0c0,0,0-.2.2-.3l1.8-1.7ZM449.3,484.4l21.7-22.5c5.9-6.2,13.8-9.4,22.1-9.1,8.4.3,16.1,4,21.6,10.6l56,66h-160.6l39.2-44.9h0Z"/>
            <path class="cls-1" d="M491.6,422.8c16.4,0,29.7-13.7,29.7-30.6s-13.3-30.6-29.7-30.6-29.7,13.7-29.7,30.6,13.3,30.6,29.7,30.6h0ZM491.6,377.5c7.7,0,13.9,6.6,13.9,14.7s-6.2,14.7-13.9,14.7-13.9-6.6-13.9-14.7,6.2-14.7,13.9-14.7Z"/>
            <path class="cls-1" d="M260.1,529.3h-14.5v-63l85.2-109.9,33.3,33.3c3.1,3.1,8.1,3.1,11.2,0s3.1-8.1,0-11.2l-39.6-39.6c-1.6-1.6-3.8-2.4-6.1-2.3-2.3.1-4.4,1.3-5.8,3.1l-78.1,100.9v-124.7h204.2c4.4,0,7.9-3.5,7.9-7.9s-3.5-7.9-7.9-7.9h-212.1c-4.4,0-7.9,3.5-7.9,7.9v229.4c0,4.4,3.5,7.9,7.9,7.9h22.4c4.4,0,7.9-3.5,7.9-7.9s-3.5-7.9-7.9-7.9v-.2Z"/>
          </g>
          <path class="cls-2" d="M257.9,589.7c-1.8,0-3.6-.6-5-1.8-3.4-2.8-3.8-7.8-1.1-11.2l260.9-315.6c2.8-3.4,7.8-3.8,11.2-1.1,3.4,2.8,3.8,7.8,1.1,11.2l-260.9,315.6c-1.6,1.9-3.8,2.9-6.1,2.9h0Z"/>
        </g>
      </g>
    </g>
  </g>
</svg>