<svg width="164" height="28" viewBox="0 0 164 28" fill="none" xmlns="http://www.w3.org/2000/svg">
<path d="M20.1343 0.294486C20.2039 0.46764 20.3083 0.779318 20.3431 1.00442C20.3953 1.2122 20.5171 1.4373 20.6215 1.50657C20.7258 1.57583 20.7606 1.47193 20.6911 1.19489C20.6215 0.969787 20.5693 0.606164 20.5693 0.381063C20.5693 0.155963 20.4649 0.000124141 20.2909 0.000124141C20.0821 0.000124141 20.0473 0.0867012 20.1343 0.294486Z" fill="#FB0767"/>
<path d="M21.4236 0.346198C21.3888 0.571298 21.3192 0.848345 21.267 0.952237C21.1974 1.09076 21.1452 1.36781 21.1104 1.66217C21.1104 1.80069 21.006 1.86995 20.9016 1.81801C20.7972 1.74875 20.7277 1.80069 20.7624 1.9219C20.8494 2.56257 20.7277 2.92619 20.4841 2.83962C20.3449 2.77036 20.2231 2.8223 20.2231 2.92619C20.2231 3.03009 20.1013 3.11666 19.9447 3.11666C19.7881 3.11666 19.7012 3.22056 19.7533 3.32445C19.7881 3.44566 19.9099 3.53223 20.0143 3.51492C20.3101 3.44566 20.4841 4.51921 20.2057 4.69237C20.0839 4.76163 20.0317 4.88284 20.0839 4.9521C20.1535 5.00404 20.0491 5.21183 19.8577 5.41961C19.6838 5.61008 19.5272 5.88713 19.5272 6.02565C19.5272 6.16418 19.214 6.78753 18.8312 7.39357C18.4311 7.99961 18.1701 8.58834 18.2397 8.69223C18.3093 8.81344 18.2919 8.83075 18.1527 8.76149C18.0135 8.67491 17.8743 8.81344 17.7351 9.15974C17.6308 9.45411 17.4742 9.69652 17.422 9.69652C17.3524 9.69652 17.1088 9.99088 16.9 10.3372C16.6738 10.7008 16.3955 11.0991 16.2737 11.2203C16.1519 11.3415 16.0475 11.5666 16.0475 11.7051C16.0475 11.8436 15.9779 11.9475 15.8735 11.9475C15.7865 11.9475 15.5951 12.1553 15.456 12.415C15.3168 12.6921 15.195 12.8306 15.1776 12.744C15.1776 12.6575 15.0558 12.6921 14.9166 12.8133C14.7774 12.9345 14.6904 13.073 14.7252 13.1423C14.76 13.1942 14.586 13.4367 14.3425 13.6791C14.0989 13.9215 13.9945 13.9734 14.1337 13.8003C14.3251 13.5405 14.3251 13.5059 14.0641 13.6098C13.7509 13.731 13.6639 14.8046 13.9771 14.995C14.2207 15.1509 15.5604 13.8349 15.4386 13.5405C15.4038 13.4193 15.4212 13.3674 15.5256 13.4193C15.6821 13.5232 16.1519 12.8306 16.0823 12.5882C16.0649 12.5189 16.1345 12.467 16.2389 12.467C16.3433 12.467 16.3955 12.3458 16.3433 12.2073C16.2737 12.0687 16.3259 11.9129 16.4303 11.8436C16.5347 11.7744 16.5695 11.7917 16.4999 11.9129C16.4477 12.0168 16.4651 12.138 16.5695 12.2073C16.6564 12.2592 16.7434 12.2073 16.7434 12.0687C16.7434 11.9302 16.9 11.6185 17.1088 11.3588C17.422 10.9779 17.4394 10.8567 17.248 10.5969C17.0566 10.3545 17.0566 10.3372 17.2654 10.5103C17.5612 10.7701 17.8569 10.8047 17.7003 10.5623C17.6482 10.4584 17.6655 10.3891 17.7525 10.3891C17.8395 10.3891 17.9613 10.2506 18.0309 10.0775C18.0831 9.92162 18.4485 9.21169 18.8312 8.50176C19.2314 7.79183 19.562 7.08189 19.5794 6.90874C19.5968 6.71827 19.6664 6.57975 19.7533 6.57975C19.8403 6.57975 19.8751 6.42391 19.8229 6.23344C19.7707 6.04297 19.7881 5.92176 19.8751 5.97371C19.9447 6.02565 20.1013 5.80055 20.2231 5.48888C20.6581 4.31143 20.7451 4.15559 20.9016 4.15559C21.006 4.15559 21.0408 3.99975 21.006 3.80928C20.9712 3.61881 21.006 3.46297 21.1104 3.46297C21.1974 3.46297 21.267 3.61881 21.267 3.80928C21.267 4.22485 21.702 4.2768 21.8585 3.87854C21.9455 3.63613 21.9281 3.61881 21.7194 3.79197C21.5106 3.96512 21.4932 3.9478 21.5628 3.65344C21.6324 3.39371 21.5802 3.28982 21.3888 3.28982C21.2322 3.28982 21.0582 3.13398 21.006 2.92619C20.919 2.66646 21.0408 2.44136 21.5106 2.02579C21.9977 1.59291 22.1021 1.40244 21.9629 1.21197C21.8237 1.00418 21.7889 1.0215 21.7889 1.31586C21.7889 1.52365 21.6846 1.73143 21.5454 1.78338C21.354 1.85264 21.3192 1.76606 21.3714 1.43707C21.4236 1.17734 21.5106 0.900291 21.5802 0.796399C21.7542 0.502037 21.7716 0.173044 21.5976 0.173044C21.5106 0.173044 21.4236 0.242305 21.4236 0.346198Z" fill="#FB0767"/>
<path d="M22.4497 1.54088C22.1714 1.80061 21.9626 2.16423 21.9626 2.33739C21.9626 2.5798 21.9104 2.59712 21.719 2.44128C21.545 2.28544 21.4406 2.30276 21.2666 2.51054C21.0927 2.71833 21.1449 2.75296 21.632 2.6837C22.0148 2.63175 22.1366 2.66638 21.9974 2.8049C21.806 2.99537 21.9104 3.46289 22.1366 3.46289C22.2235 3.46289 22.2583 3.1339 22.2409 2.75296C22.1888 2.09497 22.2409 2.0084 22.7629 1.69672C23.0935 1.50625 23.3022 1.28115 23.25 1.19457C23.1109 0.952156 22.9543 1.0041 22.4497 1.54088Z" fill="#FB0767"/>
<path d="M20.3444 2.19992C20.2749 2.25187 20.2227 2.39039 20.2227 2.49428C20.2227 2.59817 20.3096 2.58086 20.4314 2.45965C20.5358 2.35576 20.588 2.21724 20.5532 2.16529C20.501 2.11334 20.3966 2.13066 20.3444 2.19992Z" fill="#FB0767"/>
<path d="M11.9387 2.75386C11.7299 2.84043 11.4168 3.11748 11.208 3.3599C10.9296 3.74084 10.7034 3.82741 10.0075 3.82741C8.61563 3.86204 8.14587 4.06983 7.8675 4.81439C7.57173 5.59359 7.53693 6.04379 7.72831 6.165C7.79791 6.21694 7.8675 6.37278 7.8675 6.5113C7.8675 6.64983 8.00669 6.89224 8.18067 7.0654C8.33726 7.22124 8.63303 7.55023 8.82441 7.79264C9.01579 8.03506 9.48554 8.50258 9.86831 8.81425C10.2511 9.14325 10.5468 9.48956 10.5294 9.55882C10.4946 9.62808 10.5816 9.69734 10.7034 9.69734C11.1732 9.69734 12.565 11.7752 12.565 12.4678C12.565 12.7102 12.6694 13.0738 12.8086 13.247C13.0348 13.5587 13.0696 13.524 13.1914 12.7275C13.2784 12.1042 13.2436 11.654 13.0174 11.0653C12.8608 10.6151 12.739 10.1302 12.739 9.9917C12.739 9.83586 12.6346 9.61076 12.5129 9.48956C11.9561 8.93546 11.5907 7.87922 11.8865 7.68875C12.1301 7.55023 13.6611 9.29909 13.5046 9.5415C13.4524 9.62808 13.5394 9.71466 13.6785 9.71466C13.8351 9.73197 14.0265 9.74929 14.1135 9.7666C14.2005 9.78392 14.5311 9.45492 14.8268 9.03935C15.1226 8.6411 15.4358 8.34674 15.5402 8.416C15.9925 8.69305 15.3314 11.273 14.7398 11.4808C14.6006 11.5501 14.4789 11.7232 14.4789 11.8791C14.4789 12.0869 14.6528 12.0176 15.14 11.5847C15.488 11.273 15.7663 10.9441 15.7315 10.8748C15.7141 10.7882 15.8185 10.6843 15.9577 10.6151C16.5493 10.39 17.7845 7.32513 17.7845 6.07842C17.7845 5.3858 16.7754 4.50271 15.9577 4.50271C15.5228 4.50271 15.3488 4.43345 15.3488 4.22567C15.3488 4.08714 15.227 3.84473 15.0878 3.70621C14.9486 3.56768 14.7224 3.27332 14.5659 3.08285C14.3745 2.78849 14.0961 2.70191 13.3132 2.64997C12.7564 2.63265 12.1301 2.66728 11.9387 2.75386ZM13.6785 8.76231C13.7307 8.90083 13.7133 8.97009 13.6089 8.91815C13.5046 8.8662 13.435 8.74499 13.435 8.6411C13.435 8.39868 13.5567 8.45063 13.6785 8.76231ZM16.2187 9.80123C16.2187 9.93976 15.8881 10.0263 15.8011 9.90513C15.7489 9.81855 15.8185 9.74929 15.9577 9.74929C16.0969 9.74929 16.2187 9.78392 16.2187 9.80123ZM12.5129 10.9441C12.4607 11.0826 12.4085 11.0306 12.4085 10.8402C12.3911 10.6497 12.4433 10.5458 12.4955 10.6151C12.5476 10.667 12.565 10.8228 12.5129 10.9441Z" fill="#FB0767"/>
<path d="M3.83404 8.39888C3.55566 8.71055 3.34688 9.05686 3.34688 9.16075C3.34688 9.38585 2.87713 9.61096 1.83323 9.87069C1.43307 9.97458 0.945916 10.2343 0.771932 10.4767C0.580551 10.7191 0.336975 10.9096 0.232585 10.9096C0.0412033 10.9096 -0.0457883 11.3598 0.0238049 12.0351C0.0412033 12.2083 0.197788 12.5199 0.371771 12.7277C0.876322 13.2645 1.41567 14.5112 1.31128 14.8922C1.25909 15.0826 1.31128 15.2385 1.41567 15.2385C1.50266 15.2385 1.55486 15.3424 1.52006 15.4463C1.46786 15.5675 1.72884 15.8791 2.0942 16.1216C2.72054 16.5544 2.75534 16.5718 3.60786 16.312C4.09501 16.1908 4.73875 16.035 5.05192 15.983C5.34769 15.9311 5.60866 15.8272 5.60866 15.7579C5.60866 15.654 5.88704 15.5328 6.3046 15.4463C6.35679 15.4463 6.63516 15.3424 6.91354 15.2385C8.13142 14.7536 9.24491 14.5632 10.1844 14.6671C10.7934 14.719 11.1761 14.7017 11.1761 14.5978C11.1761 14.3727 9.78426 14.061 7.80085 13.8532C6.94833 13.7493 6.13061 13.6108 5.99143 13.5242C5.53907 13.2645 6.46118 12.9355 7.48768 12.9701C8.00963 12.9875 8.53158 12.9182 8.65337 12.8143C8.79255 12.6931 8.98394 12.6758 9.10572 12.745C9.22751 12.8143 9.27971 12.7797 9.22751 12.6238C9.17532 12.4853 9.05353 12.3987 8.94914 12.4161C8.82735 12.4507 8.79255 12.3468 8.86215 12.1736C8.94914 11.9485 8.89694 11.9139 8.67077 12.0005C8.49678 12.0697 8.40979 12.0524 8.47938 11.9485C8.53158 11.862 8.27061 11.5849 7.87044 11.3252C6.47858 10.4075 7.36589 9.95726 9.17532 10.6672C9.85385 10.9269 10.9847 11.7754 11.0891 12.1044C11.1413 12.2948 11.3153 12.4853 11.4545 12.5373C11.6807 12.6238 11.6633 12.5199 11.3849 12.0871C10.689 10.9962 9.69727 9.69753 9.55808 9.69753C9.48849 9.69753 9.22751 9.48975 9.00133 9.24733C8.75776 8.9876 8.56638 8.83176 8.56638 8.90102C8.56638 8.97028 8.3576 8.88371 8.09662 8.69324C7.55727 8.32961 5.53907 7.79284 4.79094 7.81015C4.46037 7.81015 4.1472 8.00062 3.83404 8.39888Z" fill="#FB0767"/>
<path d="M21.7901 8.13802C21.6509 8.2246 21.3552 8.31118 21.1464 8.31118C20.9202 8.31118 20.7462 8.41507 20.7462 8.53628C20.7462 8.65748 20.4678 8.8999 20.1373 9.07305C19.8067 9.26352 19.5283 9.50594 19.5283 9.64446C19.5283 9.78299 19.4413 9.83493 19.3195 9.76567C19.1804 9.67909 19.163 9.73104 19.25 9.97346C19.3195 10.1466 19.3195 10.2332 19.2674 10.1812C19.1282 10.0427 18.1365 11.1336 18.1365 11.4106C18.1365 11.5145 18.0495 11.6011 17.9451 11.6011C17.8581 11.6011 17.8059 11.6704 17.8581 11.7569C17.9103 11.8435 17.8581 11.9474 17.7189 11.9994C17.3535 12.1379 17.0056 13.3153 17.2491 13.5577C17.3883 13.6963 17.4405 13.6963 17.4405 13.5404C17.4405 13.4192 17.5275 13.3326 17.6493 13.3326C17.7537 13.3326 18.2061 13.0383 18.641 12.6747C19.076 12.311 19.5979 11.9301 19.7893 11.8262C20.3287 11.5492 21.4943 11.4106 21.7901 11.5838C22.0163 11.7396 21.9989 11.7916 21.7031 12.0167C21.5117 12.1725 21.2508 12.2418 21.1464 12.2071C21.0246 12.1725 20.9202 12.1898 20.9202 12.2591C20.9202 12.3803 20.3982 12.7093 19.8415 12.9171C19.6675 12.969 19.5283 13.1075 19.5283 13.1941C19.5283 13.2807 19.4413 13.298 19.3195 13.2288C19.1978 13.1422 19.163 13.1941 19.2326 13.3846C19.3022 13.5577 19.2326 13.679 19.0412 13.7309C18.8846 13.7655 19.3717 13.8002 20.1373 13.8175C21.9467 13.8694 22.834 14.1118 22.834 14.5447C22.834 14.9776 22.573 15.0296 21.5291 14.8391C20.5548 14.6659 18.1365 14.8391 18.1365 15.0815C18.1365 15.1681 17.9451 15.2373 17.7189 15.2373C17.4753 15.2373 17.2491 15.2893 17.2144 15.3586C17.1622 15.4451 17.8755 15.4971 18.7976 15.5144C20.4156 15.5317 20.5374 15.549 21.7901 16.2243C24.5912 17.7135 25.1828 18.0078 25.322 18.0078C25.496 18.0078 25.9657 17.5576 25.9657 17.3845C25.9657 17.3152 26.1049 17.1074 26.2615 16.9343C26.4877 16.6918 26.5746 16.1724 26.6268 14.6659C26.6616 13.6097 26.766 12.6573 26.853 12.5708C27.0966 12.2937 27.027 11.2548 26.7486 10.9778C26.6094 10.8219 26.4877 10.5449 26.4877 10.3371C26.4877 9.86956 25.3046 9.24621 24.5738 9.31547C24.2433 9.3501 23.9475 9.22889 23.5995 8.86527C23.095 8.36312 22.4686 7.96487 22.1903 7.96487C22.1207 7.96487 21.9293 8.05144 21.7901 8.13802ZM25.2176 17.4191C25.1654 17.471 25.0088 17.4883 24.887 17.4364C24.7478 17.3845 24.8 17.3325 24.9914 17.3325C25.1828 17.3152 25.2872 17.3671 25.2176 17.4191Z" fill="#FB0767"/>
<path d="M10.5685 15.5844C10.5163 15.671 10.3597 15.7056 10.2205 15.6364C10.0639 15.5844 9.85514 15.6364 9.71595 15.7403C9.59416 15.8441 9.43758 15.8788 9.38538 15.8268C9.33319 15.7749 9.194 15.7749 9.07221 15.8615C8.95042 15.9307 8.49807 16.0173 8.06311 16.0519C6.72344 16.1558 5.71434 16.606 5.24458 17.2986C5.0184 17.6449 4.75743 17.9739 4.68783 18.0259C4.60084 18.0951 4.53125 18.5973 4.53125 19.1687C4.53125 19.9652 4.61824 20.3288 4.96621 20.8137C5.20978 21.1773 5.43596 21.818 5.48816 22.3547C5.62734 23.5149 6.1145 24.7616 6.56685 25.1425C7.00181 25.5061 8.30669 25.5581 8.44587 25.2118C8.58506 24.8655 10.4989 24.7096 11.6124 24.9347C12.7433 25.1598 13.4914 24.9001 14.1525 24.0343C14.9702 22.9954 15.4748 20.9695 14.9876 20.6925C14.8833 20.6232 14.8659 20.3635 14.918 20.0518C15.005 19.6709 14.9528 19.4804 14.7093 19.2899C14.5353 19.1341 14.5005 19.0648 14.6223 19.1341C14.7267 19.186 14.8311 19.1687 14.8311 19.0648C14.8311 18.8051 14.1351 17.4891 13.735 16.9696L13.4044 16.5368L13.4914 17.0562C13.5958 17.5237 13.6828 19.6709 13.6306 20.2076C13.6132 20.45 12.7433 20.5193 12.7259 20.2942C12.7259 20.2249 12.7085 19.844 12.6737 19.4457C12.6215 18.4934 12.4823 18.3722 12.0299 18.9263C11.8385 19.186 11.5776 19.3938 11.4558 19.3938C11.3166 19.3938 11.1774 19.6016 11.1252 19.8613C11.0034 20.3981 9.83774 22.0084 9.48977 22.1296C9.1592 22.2162 9.194 21.2119 9.52457 20.8829C9.66375 20.7444 9.78554 20.5539 9.78554 20.45C9.78554 20.3462 10.0291 19.8267 10.3075 19.3072C10.6033 18.7878 10.8294 18.2683 10.8294 18.1644C10.8294 17.8874 9.07221 18.2164 8.61986 18.58C8.49807 18.6666 8.1849 18.6839 7.92392 18.5973C7.64555 18.528 7.33238 18.4934 7.19319 18.5107C6.86262 18.5627 7.76734 17.8354 8.61986 17.3506C8.98522 17.1428 9.40278 16.9696 9.54197 16.9696C9.68115 16.9696 9.78554 16.9004 9.78554 16.8138C9.78554 16.7272 10.0465 16.5714 10.3597 16.4502C11.2992 16.1039 11.6994 15.8788 11.6994 15.7056C11.6994 15.619 11.5776 15.5844 11.4384 15.6537C11.2992 15.7056 11.1774 15.671 11.1774 15.5844C11.1774 15.3593 10.7077 15.3593 10.5685 15.5844ZM14.4831 18.5973C14.4831 18.6492 14.4135 18.7358 14.3091 18.7878C14.2221 18.8397 14.1351 18.8051 14.1351 18.7185C14.1351 18.6146 14.2221 18.528 14.3091 18.528C14.4135 18.528 14.4831 18.5627 14.4831 18.5973Z" fill="#FB0767"/>
<path d="M17.2297 16.0519C16.7599 16.1211 16.7077 16.1731 16.6729 16.6579C16.6555 16.8484 17.3689 17.0042 19.8394 17.4025C20.2918 17.4717 20.9007 18.1297 20.9181 18.5626C20.9181 18.9435 20.1178 18.9955 19.7176 18.6319C19.5611 18.4933 19.1261 18.3375 18.7433 18.2682C18.1866 18.1817 18.117 18.199 18.3606 18.3548C19.2305 18.9089 20.257 20.2422 20.3266 20.9348C20.3614 21.1772 20.431 21.5582 20.4832 21.7659C20.5528 22.0949 20.5006 22.1642 20.1352 22.1642C19.8394 22.1642 19.6306 22.0257 19.5263 21.7659C19.2131 21.0733 18.3084 19.9132 18.0648 19.9132C18.03 19.9132 17.9778 20.3634 17.9778 20.9002C17.943 22.2681 17.7342 23.1165 17.4385 23.1165C17.2297 23.1165 17.1949 22.9088 17.2297 22.1296C17.2645 21.5755 17.1949 21.108 17.0905 21.0387C17.0035 20.9867 16.9165 20.6751 16.9165 20.3807C16.9165 19.7227 15.7856 17.9392 15.4898 18.1124C15.3855 18.1817 15.3507 18.1643 15.4029 18.0778C15.5246 17.8527 15.2289 17.3678 15.0723 17.541C15.0027 17.6102 15.0375 17.8527 15.1419 18.0951C15.2637 18.3375 15.3507 18.6838 15.3507 18.8743C15.3507 19.0474 15.4203 19.2206 15.5072 19.2552C15.6812 19.3072 15.8204 22.3374 15.6638 22.5971C15.6116 22.701 15.4724 23.2204 15.3333 23.7745C15.2115 24.3286 15.0549 24.8135 15.0027 24.8481C14.9331 24.9 14.9505 25.229 15.0549 25.5927C15.2115 26.1814 15.3333 26.2853 15.977 26.4757C16.5859 26.6489 16.8469 26.6489 17.3863 26.4584C17.7516 26.3372 18.0822 26.1987 18.1344 26.1467C18.1866 26.0948 18.4824 25.8697 18.7955 25.6446C19.3697 25.2463 19.3871 25.2463 20.1526 25.5407C20.5702 25.6965 20.9181 25.887 20.9181 25.9736C20.9181 26.1641 21.5445 26.3026 21.962 26.1987C22.1534 26.1467 22.31 26.0255 22.31 25.9043C22.31 25.8004 22.5014 25.5061 22.7449 25.2463C23.1973 24.7615 23.3191 23.8784 23.0059 23.3763C22.8841 23.1858 22.9711 22.9953 23.3017 22.649C23.5627 22.372 23.8584 22.1642 23.9802 22.1642C24.2238 22.1642 24.4674 20.8136 24.2586 20.5365C24.1716 20.4327 23.9976 20.0517 23.8932 19.6881C23.7714 19.3418 23.5627 19.0474 23.4409 19.0474C23.3017 19.0474 23.0755 18.8223 22.9189 18.5626C22.7449 18.2855 22.4318 17.9219 22.1882 17.7314C21.962 17.5583 21.5097 17.1774 21.1791 16.9176C20.8659 16.6579 20.5354 16.4674 20.4484 16.4847C20.3788 16.5021 20.1352 16.4328 19.9438 16.3116C19.5089 16.0865 17.9256 15.9306 17.2297 16.0519Z" fill="#FB0767"/>
<path d="M49.1432 18.737L46.2254 18.5782L46.3286 16.5667L49.169 16.699L49.2465 12.5437L45.8122 12.9672L45.6315 10.9292L49.2981 10.5057L49.4014 4.60352L51.5188 4.62998L51.4155 10.2675L58 9.49995L56.2958 19.1075L51.2606 18.8429L51.1056 27.6035L48.9883 27.577L49.1432 18.737ZM39.1502 6.48269L42.7394 9.52642L41.4225 11.2203L37.8075 8.20305L39.1502 6.48269ZM42.7136 10.5851L44.8052 10.3734L45.6573 19.6369L43.5916 19.8486L42.7136 10.5851ZM37.1362 11.6438L41.0352 14.264L39.8732 16.1167L36 13.4965L37.1362 11.6438ZM51.3639 12.3055L51.2864 16.8049L54.5399 16.9372L55.4437 11.8026L51.3639 12.3055ZM40.6221 17.2019L42.4038 18.3929L38.2207 25.5655L36.4131 24.3745L40.6221 17.2019Z" fill="#666666"/>
<path d="M107.032 16.0873L132.018 15.9784L131.988 17.9828L107.141 18.2089L107.032 16.0873Z" fill="#666666"/>
<path d="M99.5414 9.86058L85.36 10.6155L85.1354 8.60739L103.231 7.74987L98.282 16.6395L96.3233 16.011L99.5414 9.86058ZM92.9544 12.1582L95.1974 12.3532L92.2549 24.8216L90.2438 24.6071L92.9544 12.1582Z" fill="#666666"/>
<path d="M68.4241 8.03372L70.3744 7.67125L71.795 14.8361L69.6802 15.3574L68.4241 8.03372ZM77.3383 8.02926L79.3823 9.14298L70.1627 24.8585L68.3002 24.001L77.3383 8.02926ZM63.1082 8.9448L64.969 8.3736L67.2727 15.3212L65.2706 16.0516L63.1082 8.9448Z" fill="#666666"/>
<path d="M141.823 18.2525L142.397 18.3743L142.174 18.9658C142.26 19.0762 142.306 19.2121 142.306 19.3518C142.305 19.4915 142.257 19.6269 142.17 19.7365C142.083 19.846 141.961 19.9233 141.825 19.956C141.688 19.9887 141.545 19.9749 141.417 19.9169C141.289 19.8588 141.185 19.7598 141.121 19.6357C141.056 19.5117 141.035 19.3696 141.061 19.2324C141.088 19.0951 141.159 18.9705 141.265 18.8786C141.37 18.7866 141.504 18.7325 141.644 18.725L141.823 18.2525ZM157.294 21.1615C157.102 21.3303 156.976 21.562 156.94 21.8149C156.904 22.0678 156.959 22.3253 157.097 22.5411C157.234 22.7568 157.444 22.9167 157.69 22.992C157.935 23.0672 158.199 23.0529 158.435 22.9516C158.67 22.8503 158.862 22.6686 158.975 22.4393C159.088 22.21 159.115 21.948 159.052 21.7005C158.988 21.4531 158.838 21.2363 158.628 21.0892C158.418 20.9422 158.162 20.8745 157.907 20.8983L157.609 20.2085H156.88L157.294 21.1615ZM160.834 17.3166C160.834 17.6514 160.823 17.975 160.802 18.2678H161.323V16.5406H160.813C160.825 16.7872 160.834 17.0487 160.834 17.3184L160.834 17.3166ZM159.663 19.3751H155.535C149.632 19.3751 144.615 17.9241 140.889 17.2137C139.277 16.9062 139 16.3212 139 15.6403C139 14.7294 139.493 12.6035 141.007 12.6035C142.264 12.6035 143.722 15.7273 144.2 15.7273C144.404 15.7273 152.897 15.2618 152.897 15.2618C152.897 15.6871 153.605 15.8994 154.314 15.8994C155.024 15.8994 155.741 15.6847 155.741 15.257V14.1107C155.741 14.1107 156.962 14.7613 157.303 15.2594H159.662C160.112 15.2594 160.112 19.3769 159.662 19.3769L159.663 19.3751ZM158.836 17.4042C158.836 17.2007 158.648 17.0351 158.42 17.0351H150.619C150.389 17.0351 150.203 17.2002 150.203 17.4042C150.203 17.6083 150.391 17.7733 150.619 17.7733H158.417C158.648 17.7751 158.835 17.6095 158.835 17.406L158.836 17.4042ZM162.62 14.5023C162.509 14.5023 162.404 14.5459 162.326 14.6236C162.248 14.7012 162.204 14.8065 162.204 14.9163V19.7159C162.205 19.8254 162.25 19.9301 162.328 20.0071C162.406 20.0842 162.512 20.1274 162.622 20.1274C162.732 20.1274 162.838 20.0842 162.916 20.0071C162.994 19.9301 163.039 19.8254 163.04 19.7159V14.9199C163.04 14.8649 163.029 14.8105 163.008 14.7598C162.987 14.709 162.956 14.6629 162.917 14.6242C162.878 14.5855 162.831 14.555 162.78 14.5343C162.729 14.5137 162.674 14.5034 162.619 14.504L162.62 14.5023Z" fill="#666666"/>
</svg>
