<svg width="154" height="61" viewBox="0 0 154 61" fill="none" xmlns="http://www.w3.org/2000/svg">
<path d="M44.7458 1.75685C44.9004 2.14347 45.1324 2.83939 45.2097 3.34199C45.3257 3.80593 45.5963 4.30854 45.8283 4.46319C46.0603 4.61784 46.1376 4.38586 45.983 3.76727C45.8283 3.26467 45.7123 2.45277 45.7123 1.95016C45.7123 1.44755 45.4804 1.0996 45.0937 1.0996C44.6298 1.0996 44.5525 1.29291 44.7458 1.75685Z" fill="#FB0767"/>
<path d="M47.6061 1.87287C47.5288 2.37548 47.3741 2.99407 47.2581 3.22604C47.1035 3.53534 46.9875 4.15393 46.9102 4.81118C46.9102 5.12048 46.6782 5.27513 46.4462 5.15914C46.2143 5.00449 46.0596 5.12048 46.1369 5.39111C46.3302 6.82161 46.0596 7.63351 45.5183 7.4402C45.209 7.28555 44.9384 7.40153 44.9384 7.63351C44.9384 7.86548 44.6678 8.05879 44.3198 8.05879C43.9719 8.05879 43.7785 8.29076 43.8945 8.52273C43.9719 8.79337 44.2425 8.98668 44.4745 8.94801C45.1317 8.79337 45.5183 11.1904 44.8997 11.577C44.6291 11.7317 44.5131 12.0023 44.6291 12.157C44.7838 12.2729 44.5518 12.7369 44.1265 13.2008C43.7399 13.6261 43.3919 14.2447 43.3919 14.554C43.3919 14.8633 42.696 16.2551 41.8455 17.6083C40.9562 18.9615 40.3763 20.276 40.5309 20.5079C40.6856 20.7786 40.6469 20.8172 40.3376 20.6626C40.0283 20.4693 39.719 20.7786 39.4097 21.5518C39.1778 22.2091 38.8298 22.7503 38.7138 22.7503C38.5592 22.7503 38.0179 23.4076 37.554 24.1808C37.0514 24.9927 36.4328 25.882 36.1621 26.1526C35.8915 26.4232 35.6595 26.9258 35.6595 27.2351C35.6595 27.5444 35.5049 27.7764 35.2729 27.7764C35.0796 27.7764 34.6543 28.2403 34.345 28.8203C34.0357 29.4389 33.7651 29.7482 33.7264 29.5548C33.7264 29.3615 33.4558 29.4389 33.1465 29.7095C32.8372 29.9801 32.6439 30.2894 32.7212 30.4441C32.7985 30.5601 32.4119 31.1013 31.8707 31.6426C31.3294 32.1839 31.0974 32.2998 31.4067 31.9132C31.832 31.3333 31.832 31.256 31.2521 31.4879C30.5562 31.7586 30.3628 34.1556 31.0588 34.5809C31.6 34.9289 34.577 31.9905 34.3064 31.3333C34.229 31.0627 34.2677 30.9467 34.4997 31.0627C34.8476 31.2946 35.8915 29.7482 35.7369 29.2069C35.6982 29.0522 35.8528 28.9363 36.0848 28.9363C36.3168 28.9363 36.4328 28.6656 36.3168 28.3563C36.1621 28.047 36.2781 27.6991 36.5101 27.5444C36.7421 27.3898 36.8194 27.4284 36.6647 27.6991C36.5488 27.931 36.5874 28.2017 36.8194 28.3563C37.0127 28.4723 37.206 28.3563 37.206 28.047C37.206 27.7377 37.554 27.0418 38.0179 26.4619C38.7138 25.6113 38.7525 25.3407 38.3272 24.7608C37.9019 24.2195 37.9019 24.1808 38.3659 24.5675C39.0231 25.1474 39.6804 25.2247 39.3324 24.6834C39.2164 24.4515 39.2551 24.2968 39.4484 24.2968C39.6417 24.2968 39.9124 23.9875 40.067 23.6009C40.183 23.2529 40.9949 21.6678 41.8455 20.0827C42.7347 18.4975 43.4693 16.9124 43.5079 16.5258C43.5466 16.1005 43.7012 15.7912 43.8945 15.7912C44.0878 15.7912 44.1652 15.4432 44.0492 15.0179C43.9332 14.5927 43.9719 14.322 44.1652 14.438C44.3198 14.554 44.6678 14.0514 44.9384 13.3555C45.905 10.7265 46.0983 10.3785 46.4462 10.3785C46.6782 10.3785 46.7555 10.0305 46.6782 9.60527C46.6009 9.17999 46.6782 8.83203 46.9102 8.83203C47.1035 8.83203 47.2581 9.17999 47.2581 9.60527C47.2581 10.5332 48.2247 10.6491 48.5726 9.75992C48.7659 9.21865 48.7273 9.17999 48.2633 9.56661C47.7994 9.95322 47.7607 9.91456 47.9154 9.25731C48.07 8.67738 47.954 8.44541 47.5288 8.44541C47.1808 8.44541 46.7942 8.09745 46.6782 7.63351C46.4849 7.05358 46.7555 6.55097 47.7994 5.62308C48.8819 4.65653 49.1139 4.23125 48.8046 3.80597C48.4953 3.34203 48.418 3.38069 48.418 4.03794C48.418 4.50189 48.186 4.96583 47.8767 5.08182C47.4514 5.23646 47.3741 5.04315 47.4901 4.30858C47.6061 3.72865 47.7994 3.11006 47.954 2.87808C48.3407 2.22083 48.3793 1.48625 47.9927 1.48625C47.7994 1.48625 47.6061 1.6409 47.6061 1.87287Z" fill="#FB0767"/>
<path d="M49.8876 4.54049C49.269 5.12042 48.805 5.93232 48.805 6.31894C48.805 6.86021 48.689 6.89887 48.2638 6.55091C47.8771 6.20296 47.6452 6.24162 47.2585 6.70556C46.8719 7.16951 46.9879 7.24683 48.0704 7.09218C48.921 6.9762 49.1916 7.05352 48.8823 7.36282C48.4571 7.7881 48.689 8.83197 49.1916 8.83197C49.385 8.83197 49.4623 8.09739 49.4236 7.24683C49.3076 5.77767 49.4236 5.58436 50.5835 4.88845C51.3181 4.46317 51.782 3.96056 51.666 3.76725C51.3567 3.22598 51.0088 3.34197 49.8876 4.54049Z" fill="#FB0767"/>
<path d="M45.2101 6.0097C45.0554 6.12569 44.9395 6.43499 44.9395 6.66696C44.9395 6.89893 45.1328 6.86027 45.4034 6.58963C45.6354 6.35766 45.7514 6.04837 45.674 5.93238C45.558 5.81639 45.3261 5.85506 45.2101 6.0097Z" fill="#FB0767"/>
<path d="M26.5341 7.24685C26.0701 7.44016 25.3742 8.05875 24.9103 8.60002C24.2917 9.45058 23.7891 9.64389 22.2426 9.64389C19.1496 9.72122 18.1058 10.1852 17.4872 11.8476C16.8299 13.5874 16.7526 14.5926 17.1779 14.8633C17.3325 14.9792 17.4872 15.3272 17.4872 15.6365C17.4872 15.9458 17.7965 16.4871 18.1831 16.8737C18.531 17.2216 19.1883 17.9562 19.6136 18.4975C20.0389 19.0388 21.0827 20.0826 21.9333 20.7785C22.7839 21.5131 23.4411 22.2864 23.4025 22.441C23.3251 22.5957 23.5184 22.7503 23.7891 22.7503C24.8329 22.7503 27.9259 27.3897 27.9259 28.9362C27.9259 29.4775 28.1579 30.2894 28.4672 30.676C28.9698 31.3719 29.0471 31.2946 29.3177 29.5162C29.511 28.1243 29.4337 27.1191 28.9311 25.8046C28.5832 24.7994 28.3125 23.7169 28.3125 23.4076C28.3125 23.0596 28.0806 22.557 27.8099 22.2864C26.5727 21.0492 25.7608 18.6908 26.4181 18.2655C26.9594 17.9562 30.3616 21.8611 30.0137 22.4023C29.8977 22.5957 30.091 22.789 30.4003 22.789C30.7482 22.8276 31.1735 22.8663 31.3668 22.905C31.5601 22.9436 32.2947 22.209 32.952 21.2812C33.6092 20.3919 34.3051 19.7347 34.5371 19.8893C35.5423 20.5079 34.0732 26.2685 32.7586 26.7325C32.4494 26.8871 32.1787 27.2738 32.1787 27.6217C32.1787 28.0857 32.5653 27.931 33.6479 26.9645C34.4211 26.2685 35.0397 25.534 34.9624 25.3793C34.9237 25.186 35.1557 24.954 35.465 24.7994C36.7795 24.2968 39.5245 17.4536 39.5245 14.67C39.5245 13.1235 37.2821 11.1517 35.465 11.1517C34.4984 11.1517 34.1118 10.9971 34.1118 10.5331C34.1118 10.2238 33.8412 9.68256 33.5319 9.37326C33.2226 9.06396 32.72 8.40671 32.372 7.98143C31.9467 7.32418 31.3282 7.13087 29.5884 7.01488C28.3512 6.97622 26.9594 7.05354 26.5341 7.24685ZM30.4003 20.6626C30.5163 20.9719 30.4776 21.1265 30.2456 21.0105C30.0137 20.8945 29.859 20.6239 29.859 20.3919C29.859 19.8507 30.1296 19.9666 30.4003 20.6626ZM36.0449 22.9823C36.0449 23.2916 35.3103 23.4849 35.117 23.2142C35.001 23.0209 35.1557 22.8663 35.465 22.8663C35.7743 22.8663 36.0449 22.9436 36.0449 22.9823ZM27.8099 25.534C27.6939 25.8433 27.5779 25.7273 27.5779 25.302C27.5393 24.8767 27.6553 24.6447 27.7713 24.7994C27.8872 24.9154 27.9259 25.2633 27.8099 25.534Z" fill="#FB0767"/>
<path d="M8.51987 19.8507C7.90128 20.5466 7.43733 21.3198 7.43733 21.5518C7.43733 22.0544 6.39346 22.557 4.07374 23.1369C3.18452 23.3689 2.10198 23.9488 1.71536 24.4901C1.29008 25.0314 0.748814 25.4566 0.516842 25.4566C0.0915605 25.4566 -0.101749 26.4619 0.0528986 27.9697C0.0915605 28.3563 0.439518 29.0522 0.826138 29.5162C1.94734 30.7147 3.14586 33.4983 2.91388 34.3489C2.7979 34.7742 2.91388 35.1221 3.14586 35.1221C3.33917 35.1221 3.45515 35.3541 3.37783 35.5861C3.26184 35.8567 3.84177 36.5526 4.65367 37.0939C6.0455 38.0604 6.12283 38.0991 8.01726 37.5192C9.0998 37.2485 10.5303 36.9006 11.2262 36.7846C11.8835 36.6686 12.4634 36.4366 12.4634 36.282C12.4634 36.05 13.082 35.7794 14.0099 35.5861C14.1259 35.5861 14.7444 35.3541 15.363 35.1221C18.0694 34.0396 20.5437 33.6143 22.6315 33.8463C23.9847 33.9623 24.8352 33.9236 24.8352 33.6916C24.8352 33.189 21.7423 32.4931 17.3348 32.0292C15.4404 31.7972 13.6232 31.4879 13.314 31.2946C12.3087 30.7147 14.3578 29.9801 16.6389 30.0574C17.7987 30.0961 18.9586 29.9414 19.2292 29.7095C19.5385 29.4388 19.9638 29.4002 20.2344 29.5548C20.5051 29.7095 20.6211 29.6321 20.5051 29.2842C20.3891 28.9749 20.1185 28.7816 19.8865 28.8202C19.6159 28.8976 19.5385 28.6656 19.6932 28.279C19.8865 27.7764 19.7705 27.699 19.2679 27.8923C18.8813 28.047 18.688 28.0083 18.8426 27.7764C18.9586 27.5831 18.3787 26.9645 17.4894 26.3845C14.3965 24.3354 16.3682 23.3302 20.3891 24.9154C21.8969 25.4953 24.4099 27.3897 24.6419 28.1243C24.7579 28.5496 25.1445 28.9749 25.4538 29.0909C25.9564 29.2842 25.9178 29.0522 25.2992 28.0857C23.7527 25.65 21.549 22.7503 21.2397 22.7503C21.085 22.7503 20.5051 22.2864 20.0025 21.7451C19.4612 21.1652 19.0359 20.8172 19.0359 20.9719C19.0359 21.1265 18.572 20.9332 17.9921 20.5079C16.7935 19.696 12.3087 18.4975 10.6463 18.5362C9.9117 18.5362 9.21578 18.9614 8.51987 19.8507Z" fill="#FB0767"/>
<path d="M48.4181 19.2707C48.1088 19.464 47.4516 19.6574 46.9877 19.6574C46.485 19.6574 46.0984 19.8893 46.0984 20.16C46.0984 20.4306 45.4798 20.9719 44.7453 21.3585C44.0107 21.7838 43.3921 22.325 43.3921 22.6343C43.3921 22.9436 43.1988 23.0596 42.9281 22.905C42.6188 22.7116 42.5802 22.8276 42.7735 23.3689C42.9281 23.7555 42.9281 23.9488 42.8122 23.8328C42.5029 23.5236 40.2991 25.9593 40.2991 26.5778C40.2991 26.8098 40.1058 27.0031 39.8738 27.0031C39.6805 27.0031 39.5646 27.1578 39.6805 27.3511C39.7965 27.5444 39.6805 27.7764 39.3712 27.8924C38.5593 28.2017 37.7861 30.8307 38.3274 31.3719C38.6367 31.6812 38.7527 31.6812 38.7527 31.3333C38.7527 31.0626 38.946 30.8693 39.2166 30.8693C39.4486 30.8693 40.4538 30.2121 41.4203 29.4002C42.3869 28.5883 43.5467 27.7377 43.972 27.5057C45.1705 26.8871 47.7609 26.5778 48.4181 26.9645C48.9208 27.3124 48.8821 27.4284 48.2248 27.931C47.7996 28.279 47.2196 28.4336 46.9877 28.3563C46.717 28.279 46.485 28.3176 46.485 28.4723C46.485 28.7429 45.3252 29.4775 44.088 29.9414C43.7014 30.0574 43.3921 30.3667 43.3921 30.56C43.3921 30.7533 43.1988 30.792 42.9281 30.6374C42.6575 30.444 42.5802 30.56 42.7348 30.9853C42.8895 31.3719 42.7348 31.6426 42.3096 31.7586C41.9616 31.8359 43.0441 31.9132 44.7453 31.9519C48.7661 32.0679 50.7379 32.6091 50.7379 33.5757C50.7379 34.5422 50.1579 34.6582 47.8382 34.2329C45.6731 33.8463 40.2991 34.2329 40.2991 34.7742C40.2991 34.9675 39.8738 35.1221 39.3712 35.1221C38.83 35.1221 38.3274 35.2381 38.25 35.3928C38.1341 35.5861 39.7192 35.7021 41.7683 35.7407C45.3639 35.7794 45.6345 35.8181 48.4181 37.3259C54.6427 40.6508 55.9572 41.3081 56.2665 41.3081C56.6531 41.3081 57.697 40.3029 57.697 39.9162C57.697 39.7616 58.0063 39.2976 58.3543 38.911C58.8569 38.3698 59.0502 37.2099 59.1662 33.8463C59.2435 31.4879 59.4755 29.3615 59.6688 29.1682C60.21 28.5496 60.0554 26.2299 59.4368 25.6113C59.1275 25.2633 58.8569 24.6447 58.8569 24.1808C58.8569 23.1369 56.2279 21.7451 54.6041 21.8997C53.8695 21.9771 53.2122 21.7064 52.439 20.8945C51.3178 19.7733 49.926 18.8841 49.3074 18.8841C49.1527 18.8841 48.7274 19.0774 48.4181 19.2707ZM56.0346 39.9936C55.9186 40.1095 55.5706 40.1482 55.3 40.0322C54.9907 39.9162 55.1067 39.8002 55.5319 39.8002C55.9572 39.7616 56.1892 39.8776 56.0346 39.9936Z" fill="#FB0767"/>
<path d="M23.4841 35.8954C23.3681 36.0887 23.0201 36.166 22.7108 36.0114C22.3629 35.8954 21.8989 36.0114 21.5896 36.2434C21.319 36.4753 20.971 36.5527 20.8551 36.4367C20.7391 36.3207 20.4298 36.3207 20.1591 36.514C19.8885 36.6686 18.8833 36.8619 17.9167 36.9393C14.9398 37.1712 12.6974 38.1765 11.6535 39.7229C11.1509 40.4962 10.571 41.2307 10.4163 41.3467C10.223 41.5014 10.0684 42.6226 10.0684 43.8984C10.0684 45.6769 10.2617 46.4888 11.0349 47.5713C11.5762 48.3832 12.0788 49.8137 12.1948 51.0122C12.5041 53.6026 13.5866 56.3862 14.5918 57.2368C15.5584 58.0487 18.458 58.1647 18.7673 57.3915C19.0766 56.6182 23.3294 56.2703 25.8038 56.7729C28.3168 57.2755 29.9793 56.6955 31.4484 54.7624C33.2655 52.4427 34.3867 47.9193 33.3042 47.3007C33.0722 47.146 33.0336 46.5661 33.1496 45.8702C33.3429 45.0196 33.2269 44.5943 32.6856 44.1691C32.299 43.8211 32.2217 43.6665 32.4923 43.8211C32.7243 43.9371 32.9563 43.8984 32.9563 43.6665C32.9563 43.0865 31.4098 40.1482 30.5205 38.9884L29.786 38.0218L29.9793 39.1817C30.2113 40.2255 30.4046 45.0196 30.2886 46.2181C30.2499 46.7594 28.3168 46.9141 28.2782 46.4115C28.2782 46.2568 28.2395 45.4062 28.1622 44.517C28.0462 42.3906 27.7369 42.12 26.7317 43.3572C26.3064 43.9371 25.7265 44.401 25.4558 44.401C25.1465 44.401 24.8372 44.865 24.7212 45.4449C24.4506 46.6434 21.8603 50.239 21.087 50.5096C20.3524 50.7029 20.4298 48.4605 21.1643 47.726C21.4736 47.4167 21.7443 46.9914 21.7443 46.7594C21.7443 46.5274 22.2855 45.3676 22.9041 44.2077C23.5614 43.0479 24.064 41.888 24.064 41.656C24.064 41.0374 20.1591 41.772 19.1539 42.5839C18.8833 42.7772 18.1874 42.8159 17.6074 42.6226C16.9889 42.4679 16.2929 42.3906 15.9836 42.4293C15.2491 42.5453 17.2595 40.9215 19.1539 39.8389C19.9658 39.375 20.8937 38.9884 21.203 38.9884C21.5123 38.9884 21.7443 38.8337 21.7443 38.6404C21.7443 38.4471 22.3242 38.0991 23.0201 37.8285C25.1079 37.0553 25.9971 36.5527 25.9971 36.166C25.9971 35.9727 25.7265 35.8954 25.4172 36.05C25.1079 36.166 24.8372 36.0887 24.8372 35.8954C24.8372 35.3928 23.7934 35.3928 23.4841 35.8954ZM32.183 42.6226C32.183 42.7386 32.0284 42.9319 31.7964 43.0479C31.6031 43.1638 31.4098 43.0865 31.4098 42.8932C31.4098 42.6612 31.6031 42.4679 31.7964 42.4679C32.0284 42.4679 32.183 42.5453 32.183 42.6226Z" fill="#FB0767"/>
<path d="M38.2901 36.9393C37.2462 37.0939 37.1302 37.2099 37.0529 38.2924C37.0142 38.7177 38.5994 39.0657 44.0894 39.9549C45.0946 40.1095 46.4477 41.5787 46.4864 42.5452C46.4864 43.3958 44.7079 43.5118 43.8187 42.6999C43.4708 42.3906 42.5042 42.0426 41.6536 41.888C40.4165 41.6947 40.2618 41.7333 40.8031 42.0813C42.7362 43.3185 45.0172 46.2955 45.1719 47.8419C45.2492 48.3832 45.4039 49.2338 45.5198 49.6977C45.6745 50.4323 45.5585 50.5869 44.7466 50.5869C44.0894 50.5869 43.6254 50.2776 43.3934 49.6977C42.6975 48.1512 40.6871 45.5609 40.1458 45.5609C40.0685 45.5609 39.9525 46.5661 39.9525 47.7646C39.8752 50.8189 39.4113 52.7133 38.754 52.7133C38.2901 52.7133 38.2127 52.2494 38.2901 50.5096C38.3674 49.2724 38.2127 48.2286 37.9808 48.0739C37.7875 47.9579 37.5941 47.262 37.5941 46.6048C37.5941 45.1356 35.0811 41.1534 34.4239 41.54C34.1919 41.6947 34.1146 41.656 34.2305 41.4627C34.5012 40.9601 33.8439 39.8776 33.496 40.2642C33.3413 40.4188 33.4186 40.9601 33.6506 41.5014C33.9213 42.0426 34.1146 42.8159 34.1146 43.2412C34.1146 43.6278 34.2692 44.0144 34.4625 44.0917C34.8491 44.2077 35.1584 50.9736 34.8105 51.5535C34.6945 51.7855 34.3852 52.9453 34.0759 54.1825C33.8053 55.4197 33.4573 56.5022 33.3413 56.5795C33.1867 56.6955 33.2253 57.4301 33.4573 58.242C33.8053 59.5565 34.0759 59.7885 35.5064 60.2138C36.8596 60.6004 37.4395 60.6004 38.638 60.1751C39.4499 59.9045 40.1845 59.5952 40.3005 59.4792C40.4165 59.3632 41.0737 58.8606 41.7696 58.358C43.0455 57.4688 43.0841 57.4688 44.7853 58.126C45.7132 58.474 46.4864 58.8993 46.4864 59.0926C46.4864 59.5179 47.8782 59.8272 48.8061 59.5952C49.2314 59.4792 49.5794 59.2086 49.5794 58.9379C49.5794 58.706 50.0046 58.0487 50.5459 57.4688C51.5511 56.3862 51.8217 54.4145 51.1258 53.2933C50.8552 52.868 51.0485 52.4427 51.7831 51.6695C52.363 51.0509 53.0203 50.5869 53.2909 50.5869C53.8322 50.5869 54.3734 47.5713 53.9095 46.9527C53.7162 46.7207 53.3296 45.8702 53.0976 45.0583C52.827 44.285 52.363 43.6278 52.0924 43.6278C51.7831 43.6278 51.2805 43.1252 50.9325 42.5452C50.5459 41.9267 49.85 41.1148 49.3087 40.6895C48.8061 40.3029 47.8009 39.4523 47.0663 38.8724C46.3704 38.2924 45.6358 37.8671 45.4425 37.9058C45.2879 37.9445 44.7466 37.7898 44.3213 37.5192C43.3548 37.0166 39.8365 36.6686 38.2901 36.9393Z" fill="#FB0767"/>
<path d="M97.1899 3.39998C97.2773 3.46239 97.3459 3.52792 97.3959 3.59657C97.452 3.65898 97.4801 3.71827 97.4801 3.77444C97.4801 3.81813 97.4583 3.8587 97.4146 3.89614L97.2461 4.01785C97.1837 4.06153 97.1244 4.08338 97.0682 4.08338C97.012 4.08338 96.9652 4.06465 96.9278 4.02721C96.7655 3.8899 96.6282 3.79941 96.5159 3.75572C96.4035 3.70579 96.2881 3.68083 96.1695 3.68083C95.9635 3.68083 95.7638 3.77756 95.5704 3.97104C95.3831 4.16451 95.2302 4.42039 95.1116 4.73869C94.9931 5.05698 94.9338 5.40336 94.9338 5.77782V7.6595C94.9338 7.86546 94.8308 7.96844 94.6248 7.96844H94.1474C94.06 7.96844 93.9851 7.93723 93.9227 7.87482C93.8603 7.81241 93.8291 7.73752 93.8291 7.65014V3.50296C93.8291 3.297 93.9321 3.19403 94.138 3.19403H94.6248C94.8308 3.19403 94.9338 3.28764 94.9338 3.47487C95.1085 3.36253 95.2989 3.27516 95.5048 3.21275C95.7108 3.15034 95.9323 3.11913 96.1695 3.11913C96.363 3.11913 96.5471 3.14098 96.7218 3.18466C96.8966 3.22211 97.0526 3.29388 97.1899 3.39998Z" fill="#666666"/>
<path d="M92.8909 7.65013C92.8909 7.73751 92.8597 7.8124 92.7973 7.87481C92.7349 7.93722 92.66 7.96843 92.5726 7.96843H92.1046C92.0297 7.96843 91.961 7.94658 91.8986 7.9029C91.8424 7.85297 91.8081 7.79056 91.7956 7.71566C91.5959 7.82176 91.3712 7.90602 91.1216 7.96843C90.8782 8.03084 90.6129 8.06204 90.3258 8.06204C89.8827 8.06204 89.5332 7.99339 89.2774 7.85609C89.0277 7.71878 88.8436 7.48162 88.725 7.14461C88.6127 6.80759 88.5409 6.34575 88.5097 5.75909C88.4785 5.17243 88.4629 4.42975 88.4629 3.53103C88.4629 3.43118 88.4941 3.35004 88.5565 3.28763C88.6189 3.22522 88.6938 3.19402 88.7812 3.19402H89.2493C89.3366 3.19402 89.4115 3.22834 89.4739 3.29699C89.5364 3.3594 89.5676 3.44054 89.5676 3.54039C89.5676 4.23939 89.5769 4.82605 89.5956 5.30037C89.6206 5.77469 89.6518 6.15852 89.6893 6.45185C89.7329 6.74518 89.786 6.96674 89.8484 7.11652C89.9108 7.26631 89.9795 7.36929 90.0544 7.42545C90.1355 7.47538 90.226 7.50035 90.3258 7.50035C90.6067 7.50035 90.8563 7.4317 91.0748 7.29439C91.2932 7.15709 91.4648 6.96986 91.5897 6.7327C91.7207 6.4893 91.7863 6.21157 91.7863 5.89952V3.51231C91.7863 3.42494 91.8175 3.35004 91.8799 3.28763C91.9423 3.22522 92.0172 3.19402 92.1046 3.19402H92.5726C92.66 3.19402 92.7349 3.22522 92.7973 3.28763C92.8597 3.35004 92.8909 3.42494 92.8909 3.51231V7.65013Z" fill="#666666"/>
<path d="M85.5205 3.1004C85.9824 3.1004 86.388 3.21274 86.7375 3.43742C87.087 3.65586 87.3585 3.95543 87.552 4.33613C87.7517 4.71684 87.8516 5.14747 87.8516 5.62803C87.8516 6.08987 87.758 6.5049 87.5707 6.87312C87.3897 7.24135 87.1339 7.53156 86.8031 7.74375C86.4723 7.95595 86.0854 8.06205 85.6422 8.06205C85.1742 8.06205 84.7622 7.95595 84.4065 7.74375C84.057 7.52532 83.7824 7.22886 83.5827 6.8544C83.3892 6.47994 83.2925 6.05555 83.2925 5.58122C83.2925 5.10066 83.383 4.67315 83.564 4.29869C83.7512 3.92422 84.0102 3.63089 84.341 3.4187C84.678 3.2065 85.0712 3.1004 85.5205 3.1004ZM85.5205 3.6621C85.2771 3.6621 85.0681 3.74635 84.8933 3.91486C84.7186 4.07713 84.5844 4.30493 84.4908 4.59826C84.3971 4.88535 84.3503 5.213 84.3503 5.58122C84.3503 6.24278 84.4752 6.72958 84.7248 7.04163C84.9744 7.34745 85.2803 7.50035 85.6422 7.50035C85.9231 7.50035 86.1478 7.40986 86.3163 7.22886C86.4848 7.04787 86.6065 6.81383 86.6814 6.52675C86.7563 6.23966 86.7937 5.94009 86.7937 5.62803C86.7937 5.05386 86.6814 4.58266 86.4567 4.21443C86.232 3.84621 85.92 3.6621 85.5205 3.6621Z" fill="#666666"/>
<path d="M82.0526 7.65012C82.0526 7.7375 82.0214 7.81239 81.959 7.8748C81.8966 7.93721 81.8217 7.96842 81.7343 7.96842H81.1726C81.0853 7.96842 81.0104 7.93721 80.948 7.8748C80.8856 7.81239 80.8544 7.7375 80.8544 7.65012V1.45275C80.8544 1.43403 80.8544 1.42154 80.8544 1.4153H79.5063C79.4189 1.4153 79.344 1.39034 79.2816 1.34041C79.2192 1.28424 79.188 1.21559 79.188 1.13446C79.188 1.05332 79.2192 0.98779 79.2816 0.937862C79.344 0.881692 79.4189 0.853607 79.5063 0.853607H83.4007C83.4881 0.853607 83.563 0.881692 83.6254 0.937862C83.6878 0.98779 83.719 1.05332 83.719 1.13446C83.719 1.21559 83.6878 1.28424 83.6254 1.34041C83.563 1.39034 83.4881 1.4153 83.4007 1.4153H82.0526V1.45275V7.65012Z" fill="#666666"/>
<path d="M74.5118 2.0051C74.5118 2.09248 74.4806 2.16737 74.4181 2.22978C74.3557 2.29219 74.2808 2.3234 74.1935 2.3234H73.6318C73.5444 2.3234 73.4695 2.29219 73.4071 2.22978C73.3447 2.16737 73.3135 2.09248 73.3135 2.0051V1.45277C73.3135 1.36539 73.3447 1.2905 73.4071 1.22809C73.4695 1.16568 73.5444 1.13448 73.6318 1.13448H74.1935C74.2808 1.13448 74.3557 1.16568 74.4181 1.22809C74.4806 1.2905 74.5118 1.36539 74.5118 1.45277V2.0051ZM74.5118 7.65014C74.5118 7.73752 74.4806 7.81241 74.4181 7.87482C74.3557 7.93723 74.2808 7.96844 74.1935 7.96844H73.6318C73.5444 7.96844 73.4695 7.93723 73.4071 7.87482C73.3447 7.81241 73.3135 7.73752 73.3135 7.65014V3.51232C73.3135 3.42495 73.3447 3.35005 73.4071 3.28764C73.4695 3.22523 73.5444 3.19403 73.6318 3.19403H74.1935C74.2808 3.19403 74.3557 3.22523 74.4181 3.28764C74.4806 3.35005 74.5118 3.42495 74.5118 3.51232V7.65014Z" fill="#666666"/>
<path d="M69.5684 7.65012C69.5684 7.7375 69.5372 7.81239 69.4748 7.8748C69.4124 7.93721 69.3375 7.96842 69.2501 7.96842H68.7446C68.6572 7.96842 68.5823 7.93721 68.5199 7.8748C68.4575 7.81239 68.4263 7.7375 68.4263 7.65012V1.1719C68.4263 1.08453 68.4575 1.00963 68.5199 0.947223C68.5823 0.884812 68.6572 0.853607 68.7446 0.853607H69.2501C69.3375 0.853607 69.4124 0.884812 69.4748 0.947223C69.5372 1.00963 69.5684 1.08453 69.5684 1.1719V5.15994L71.9649 3.22209C72.0149 3.1784 72.0742 3.15656 72.1428 3.15656C72.1927 3.15656 72.2396 3.16904 72.2832 3.194L72.4143 3.2689C72.5454 3.34379 72.6109 3.44677 72.6109 3.57783C72.6109 3.68393 72.561 3.77754 72.4611 3.85868L70.3922 5.5344L72.433 7.29438C72.5391 7.38176 72.5922 7.48161 72.5922 7.59395C72.5922 7.70629 72.5391 7.79055 72.433 7.84671L72.2084 7.96842C72.1709 7.98714 72.1272 7.9965 72.0773 7.9965C72.0024 7.9965 71.94 7.97466 71.8901 7.93097L69.7743 6.10546C69.7556 6.09298 69.74 6.07737 69.7275 6.05865L69.5684 6.18971V7.65012Z" fill="#666666"/>
<path d="M67.6263 4.53272C67.6263 5.2442 67.5046 5.86519 67.2612 6.39568C67.0241 6.91993 66.7026 7.32872 66.297 7.62205C65.8913 7.91538 65.4326 8.06204 64.9208 8.06204C64.3778 8.06204 63.8848 7.92162 63.4417 7.64077C62.9986 7.35368 62.6459 6.95425 62.3838 6.44249C62.1279 5.93072 62 5.3347 62 4.65442C62 4.13642 62.0718 3.64337 62.2153 3.17529C62.3651 2.70721 62.5711 2.29218 62.8332 1.9302C63.0953 1.56822 63.3949 1.28425 63.7319 1.0783C64.0752 0.8661 64.4371 0.760002 64.8178 0.760002C65.211 0.760002 65.5761 0.853618 65.9131 1.04085C66.2564 1.22184 66.556 1.48085 66.8119 1.81786C67.0677 2.15488 67.2675 2.55431 67.411 3.01615C67.5545 3.47798 67.6263 3.98351 67.6263 4.53272ZM66.428 4.53272C66.428 3.95855 66.3656 3.43742 66.2408 2.96934C66.1222 2.50126 65.9443 2.12992 65.7072 1.85531C65.47 1.5807 65.1736 1.4434 64.8178 1.4434C64.5744 1.4434 64.3529 1.53701 64.1532 1.72425C63.9535 1.90524 63.7818 2.15176 63.6383 2.46381C63.501 2.76962 63.3918 3.11288 63.3106 3.49359C63.2357 3.87429 63.1983 4.26124 63.1983 4.65442C63.1983 5.19116 63.2669 5.6686 63.4042 6.08675C63.5415 6.49866 63.7381 6.82319 63.994 7.06035C64.2561 7.29127 64.5651 7.40673 64.9208 7.40673C65.2329 7.40673 65.5012 7.28191 65.7259 7.03227C65.9506 6.77638 66.1222 6.43001 66.2408 5.99313C66.3656 5.55626 66.428 5.06945 66.428 4.53272Z" fill="#666666"/>
<path d="M78.288 49.088L74.672 48.896L74.8 46.464L78.32 46.624L78.416 41.6L74.16 42.112L73.936 39.648L78.48 39.136L78.608 32L81.232 32.032L81.104 38.848L89.264 37.92L87.152 49.536L80.912 49.216L80.72 59.808L78.096 59.776L78.288 49.088ZM65.904 34.272L70.352 37.952L68.72 40L64.24 36.352L65.904 34.272ZM70.32 39.232L72.912 38.976L73.968 50.176L71.408 50.432L70.32 39.232ZM63.408 40.512L68.24 43.68L66.8 45.92L62 42.752L63.408 40.512ZM81.04 41.312L80.944 46.752L84.976 46.912L86.096 40.704L81.04 41.312ZM67.728 47.232L69.936 48.672L64.752 57.344L62.512 55.904L67.728 47.232Z" fill="#666666"/>
<path d="M137.138 48.0505L153.52 47.5666V49.5712L137.23 50.1703L137.138 48.0505Z" fill="#666666"/>
<path d="M129.27 43.1658L115.169 44.1336L114.916 42.129L132.91 41L128.118 49.9629L126.159 49.3638L129.27 43.1658ZM122.749 45.5621L124.984 45.7234L122.243 58.2346L120.238 58.0502L122.749 45.5621Z" fill="#666666"/>
<path d="M98.2764 41.8065L100.212 41.4148L101.732 48.5574L99.6358 49.1104L98.2764 41.8065ZM107.147 41.6682L109.198 42.7511L100.258 58.6033L98.3916 57.7738L107.147 41.6682ZM93 42.7972L94.8433 42.1982L97.2395 49.1104L95.258 49.8708L93 42.7972Z" fill="#666666"/>
<rect x="62" y="23" width="62" height="1" fill="#56C3D9"/>
<path d="M131.802 23.6349L132.372 23.7564L132.151 24.3464C132.236 24.4565 132.282 24.5921 132.282 24.7314C132.281 24.8708 132.234 25.0059 132.147 25.1151C132.061 25.2244 131.94 25.3015 131.804 25.3341C131.669 25.3667 131.526 25.353 131.4 25.2951C131.273 25.2372 131.169 25.1384 131.105 25.0147C131.041 24.8909 131.02 24.7492 131.046 24.6123C131.072 24.4754 131.143 24.3511 131.248 24.2594C131.353 24.1676 131.486 24.1137 131.625 24.1062L131.802 23.6349ZM147.162 26.5366C146.971 26.705 146.846 26.9362 146.81 27.1884C146.774 27.4407 146.829 27.6975 146.965 27.9127C147.102 28.128 147.311 28.2874 147.554 28.3625C147.798 28.4376 148.06 28.4233 148.294 28.3222C148.528 28.2212 148.718 28.04 148.83 27.8112C148.942 27.5825 148.969 27.3212 148.906 27.0743C148.843 26.8274 148.694 26.6112 148.485 26.4645C148.277 26.3178 148.023 26.2503 147.77 26.2741L147.475 25.586H146.751L147.162 26.5366ZM150.676 22.7013C150.676 23.0353 150.665 23.3581 150.644 23.6501H151.161V21.9272H150.655C150.667 22.1733 150.675 22.4341 150.675 22.7031L150.676 22.7013ZM149.513 24.7547H145.415C139.555 24.7547 134.574 23.3073 130.876 22.5987C129.275 22.2919 129 21.7084 129 21.0292C129 20.1206 129.489 18 130.993 18C132.24 18 133.688 21.116 134.162 21.116C134.365 21.116 142.796 20.6516 142.796 20.6516C142.796 21.0758 143.5 21.2877 144.203 21.2877C144.907 21.2877 145.62 21.0735 145.62 20.6469V19.5034C145.62 19.5034 146.831 20.1524 147.171 20.6493H149.512C149.959 20.6493 149.959 24.7565 149.513 24.7565L149.513 24.7547ZM148.692 22.7887C148.692 22.5857 148.506 22.4205 148.279 22.4205H140.535C140.306 22.4205 140.122 22.5852 140.122 22.7887C140.122 22.9923 140.308 23.1569 140.535 23.1569H148.276C148.505 23.1587 148.691 22.9935 148.691 22.7905L148.692 22.7887ZM152.449 19.894C152.339 19.894 152.234 19.9375 152.157 20.015C152.079 20.0925 152.036 20.1975 152.036 20.3071V25.0946C152.037 25.2039 152.081 25.3083 152.159 25.3851C152.236 25.462 152.341 25.5051 152.451 25.5051C152.56 25.5051 152.665 25.462 152.743 25.3851C152.82 25.3083 152.864 25.2039 152.866 25.0946V20.3106C152.866 20.2558 152.855 20.2015 152.834 20.1509C152.813 20.1002 152.783 20.0543 152.744 20.0157C152.705 19.9771 152.659 19.9466 152.608 19.926C152.557 19.9054 152.503 19.8951 152.448 19.8958L152.449 19.894Z" fill="#666666"/>
</svg>
