<svg width="168" height="34" viewBox="0 0 168 34" fill="none" xmlns="http://www.w3.org/2000/svg">
<path d="M21.1343 0.690971C21.2039 0.864125 21.3083 1.1758 21.3431 1.4009C21.3953 1.60869 21.5171 1.83379 21.6215 1.90305C21.7258 1.97231 21.7606 1.86842 21.6911 1.59137C21.6215 1.36627 21.5693 1.00265 21.5693 0.777548C21.5693 0.552447 21.4649 0.396609 21.2909 0.396609C21.0821 0.396609 21.0473 0.483186 21.1343 0.690971Z" fill="#666666"/>
<path d="M22.4236 0.742682C22.3888 0.967783 22.3192 1.24483 22.267 1.34872C22.1974 1.48725 22.1452 1.76429 22.1104 2.05865C22.1104 2.19718 22.006 2.26644 21.9016 2.21449C21.7972 2.14523 21.7277 2.19718 21.7624 2.31838C21.8494 2.95906 21.7277 3.32268 21.4841 3.2361C21.3449 3.16684 21.2231 3.21879 21.2231 3.32268C21.2231 3.42657 21.1013 3.51315 20.9447 3.51315C20.7881 3.51315 20.7012 3.61704 20.7533 3.72093C20.7881 3.84214 20.9099 3.92872 21.0143 3.9114C21.3101 3.84214 21.4841 4.9157 21.2057 5.08885C21.0839 5.15811 21.0317 5.27932 21.0839 5.34858C21.1535 5.40053 21.0491 5.60831 20.8577 5.8161C20.6838 6.00657 20.5272 6.28362 20.5272 6.42214C20.5272 6.56066 20.214 7.18402 19.8312 7.79006C19.4311 8.3961 19.1701 8.98482 19.2397 9.08871C19.3093 9.20992 19.2919 9.22724 19.1527 9.15797C19.0135 9.0714 18.8743 9.20992 18.7351 9.55623C18.6308 9.85059 18.4742 10.093 18.422 10.093C18.3524 10.093 18.1088 10.3874 17.9 10.7337C17.6738 11.0973 17.3955 11.4956 17.2737 11.6168C17.1519 11.738 17.0475 11.9631 17.0475 12.1016C17.0475 12.2401 16.9779 12.344 16.8735 12.344C16.7865 12.344 16.5951 12.5518 16.456 12.8115C16.3168 13.0886 16.195 13.2271 16.1776 13.1405C16.1776 13.0539 16.0558 13.0886 15.9166 13.2098C15.7774 13.331 15.6904 13.4695 15.7252 13.5388C15.76 13.5907 15.586 13.8331 15.3425 14.0756C15.0989 14.318 14.9945 14.3699 15.1337 14.1968C15.3251 13.937 15.3251 13.9024 15.0641 14.0063C14.7509 14.1275 14.6639 15.2011 14.9771 15.3915C15.2207 15.5474 16.5604 14.2314 16.4386 13.937C16.4038 13.8158 16.4212 13.7639 16.5256 13.8158C16.6821 13.9197 17.1519 13.2271 17.0823 12.9847C17.0649 12.9154 17.1345 12.8635 17.2389 12.8635C17.3433 12.8635 17.3955 12.7423 17.3433 12.6037C17.2737 12.4652 17.3259 12.3094 17.4303 12.2401C17.5347 12.1709 17.5695 12.1882 17.4999 12.3094C17.4477 12.4133 17.4651 12.5345 17.5695 12.6037C17.6564 12.6557 17.7434 12.6037 17.7434 12.4652C17.7434 12.3267 17.9 12.015 18.1088 11.7553C18.422 11.3743 18.4394 11.2531 18.248 10.9934C18.0566 10.751 18.0566 10.7337 18.2654 10.9068C18.5612 11.1666 18.8569 11.2012 18.7003 10.9588C18.6482 10.8549 18.6655 10.7856 18.7525 10.7856C18.8395 10.7856 18.9613 10.6471 19.0309 10.4739C19.0831 10.3181 19.4485 9.60818 19.8312 8.89824C20.2314 8.18831 20.562 7.47838 20.5794 7.30523C20.5968 7.11476 20.6664 6.97623 20.7533 6.97623C20.8403 6.97623 20.8751 6.82039 20.8229 6.62992C20.7707 6.43945 20.7881 6.31825 20.8751 6.37019C20.9447 6.42214 21.1013 6.19704 21.2231 5.88536C21.6581 4.70791 21.7451 4.55207 21.9016 4.55207C22.006 4.55207 22.0408 4.39623 22.006 4.20577C21.9712 4.0153 22.006 3.85946 22.1104 3.85946C22.1974 3.85946 22.267 4.0153 22.267 4.20577C22.267 4.62134 22.702 4.67328 22.8585 4.27503C22.9455 4.03261 22.9281 4.0153 22.7194 4.18845C22.5106 4.3616 22.4932 4.34429 22.5628 4.04993C22.6324 3.7902 22.5802 3.6863 22.3888 3.6863C22.2322 3.6863 22.0582 3.53046 22.006 3.32268C21.919 3.06295 22.0408 2.83785 22.5106 2.42228C22.9977 1.98939 23.1021 1.79892 22.9629 1.60845C22.8237 1.40067 22.7889 1.41798 22.7889 1.71235C22.7889 1.92013 22.6846 2.12792 22.5454 2.17986C22.354 2.24912 22.3192 2.16255 22.3714 1.83355C22.4236 1.57382 22.5106 1.29678 22.5802 1.19288C22.7542 0.898521 22.7716 0.569528 22.5976 0.569528C22.5106 0.569528 22.4236 0.63879 22.4236 0.742682Z" fill="#666666"/>
<path d="M23.4497 1.93736C23.1714 2.1971 22.9626 2.56072 22.9626 2.73387C22.9626 2.97629 22.9104 2.9936 22.719 2.83777C22.545 2.68193 22.4406 2.69924 22.2666 2.90703C22.0927 3.11481 22.1449 3.14944 22.632 3.08018C23.0148 3.02824 23.1366 3.06287 22.9974 3.20139C22.806 3.39186 22.9104 3.85938 23.1366 3.85938C23.2235 3.85938 23.2583 3.53038 23.2409 3.14944C23.1888 2.49146 23.2409 2.40488 23.7629 2.0932C24.0935 1.90273 24.3022 1.67763 24.25 1.59106C24.1109 1.34864 23.9543 1.40059 23.4497 1.93736Z" fill="#666666"/>
<path d="M21.3444 2.5964C21.2749 2.64835 21.2227 2.78687 21.2227 2.89077C21.2227 2.99466 21.3096 2.97734 21.4314 2.85614C21.5358 2.75224 21.588 2.61372 21.5532 2.56177C21.501 2.50983 21.3966 2.52714 21.3444 2.5964Z" fill="#666666"/>
<path d="M12.9387 3.15034C12.7299 3.23692 12.4168 3.51397 12.208 3.75638C11.9296 4.13732 11.7034 4.2239 11.0075 4.2239C9.61563 4.25853 9.14587 4.46631 8.8675 5.21088C8.57173 5.99007 8.53693 6.44027 8.72831 6.56148C8.79791 6.61343 8.8675 6.76926 8.8675 6.90779C8.8675 7.04631 9.00669 7.28873 9.18067 7.46188C9.33726 7.61772 9.63303 7.94671 9.82441 8.18913C10.0158 8.43154 10.4855 8.89906 10.8683 9.21074C11.2511 9.53973 11.5468 9.88604 11.5294 9.9553C11.4946 10.0246 11.5816 10.0938 11.7034 10.0938C12.1732 10.0938 13.565 12.1717 13.565 12.8643C13.565 13.1067 13.6694 13.4703 13.8086 13.6435C14.0348 13.9552 14.0696 13.9205 14.1914 13.124C14.2784 12.5007 14.2436 12.0505 14.0174 11.4617C13.8608 11.0115 13.739 10.5267 13.739 10.3882C13.739 10.2323 13.6346 10.0072 13.5129 9.88604C12.9561 9.33195 12.5907 8.27571 12.8865 8.08524C13.1301 7.94671 14.6611 9.69557 14.5046 9.93799C14.4524 10.0246 14.5394 10.1111 14.6785 10.1111C14.8351 10.1285 15.0265 10.1458 15.1135 10.1631C15.2005 10.1804 15.5311 9.85141 15.8268 9.43584C16.1226 9.03758 16.4358 8.74322 16.5402 8.81248C16.9925 9.08953 16.3314 11.6695 15.7398 11.8773C15.6006 11.9466 15.4789 12.1197 15.4789 12.2756C15.4789 12.4834 15.6528 12.4141 16.14 11.9812C16.488 11.6695 16.7663 11.3405 16.7315 11.2713C16.7141 11.1847 16.8185 11.0808 16.9577 11.0115C17.5493 10.7864 18.7845 7.72161 18.7845 6.4749C18.7845 5.78229 17.7754 4.8992 16.9577 4.8992C16.5228 4.8992 16.3488 4.82994 16.3488 4.62215C16.3488 4.48363 16.227 4.24121 16.0878 4.10269C15.9486 3.96417 15.7224 3.6698 15.5659 3.47933C15.3745 3.18497 15.0961 3.0984 14.3132 3.04645C13.7564 3.02913 13.1301 3.06376 12.9387 3.15034ZM14.6785 9.15879C14.7307 9.29732 14.7133 9.36658 14.6089 9.31463C14.5046 9.26268 14.435 9.14148 14.435 9.03758C14.435 8.79517 14.5567 8.84711 14.6785 9.15879ZM17.2187 10.1977C17.2187 10.3362 16.8881 10.4228 16.8011 10.3016C16.7489 10.215 16.8185 10.1458 16.9577 10.1458C17.0969 10.1458 17.2187 10.1804 17.2187 10.1977ZM13.5129 11.3405C13.4607 11.4791 13.4085 11.4271 13.4085 11.2366C13.3911 11.0462 13.4433 10.9423 13.4955 11.0115C13.5476 11.0635 13.565 11.2193 13.5129 11.3405Z" fill="#666666"/>
<path d="M4.83404 8.79536C4.55566 9.10704 4.34688 9.45335 4.34688 9.55724C4.34688 9.78234 3.87713 10.0074 2.83323 10.2672C2.43307 10.3711 1.94592 10.6308 1.77193 10.8732C1.58055 11.1156 1.33697 11.3061 1.23258 11.3061C1.0412 11.3061 0.954212 11.7563 1.0238 12.4316C1.0412 12.6048 1.19779 12.9164 1.37177 13.1242C1.87632 13.661 2.41567 14.9077 2.31128 15.2886C2.25909 15.4791 2.31128 15.635 2.41567 15.635C2.50266 15.635 2.55486 15.7388 2.52006 15.8427C2.46786 15.9639 2.72884 16.2756 3.0942 16.518C3.72054 16.9509 3.75534 16.9682 4.60786 16.7085C5.09501 16.5873 5.73875 16.4315 6.05192 16.3795C6.34769 16.3276 6.60866 16.2237 6.60866 16.1544C6.60866 16.0505 6.88704 15.9293 7.3046 15.8427C7.35679 15.8427 7.63516 15.7388 7.91354 15.635C9.13142 15.1501 10.2449 14.9596 11.1844 15.0635C11.7934 15.1155 12.1761 15.0982 12.1761 14.9943C12.1761 14.7692 10.7843 14.4575 8.80085 14.2497C7.94833 14.1458 7.13061 14.0073 6.99143 13.9207C6.53907 13.661 7.46118 13.332 8.48768 13.3666C9.00963 13.3839 9.53158 13.3147 9.65337 13.2108C9.79255 13.0896 9.98394 13.0723 10.1057 13.1415C10.2275 13.2108 10.2797 13.1762 10.2275 13.0203C10.1753 12.8818 10.0535 12.7952 9.94914 12.8125C9.82735 12.8472 9.79255 12.7433 9.86215 12.5701C9.94914 12.345 9.89694 12.3104 9.67077 12.397C9.49678 12.4662 9.40979 12.4489 9.47938 12.345C9.53158 12.2584 9.27061 11.9814 8.87044 11.7217C7.47858 10.8039 8.36589 10.3537 10.1753 11.0637C10.8539 11.3234 11.9847 12.1719 12.0891 12.5009C12.1413 12.6913 12.3153 12.8818 12.4545 12.9337C12.6807 13.0203 12.6633 12.9164 12.3849 12.4835C11.689 11.3927 10.6973 10.094 10.5581 10.094C10.4885 10.094 10.2275 9.88623 10.0013 9.64382C9.75776 9.38408 9.56638 9.22825 9.56638 9.29751C9.56638 9.36677 9.3576 9.28019 9.09662 9.08972C8.55727 8.7261 6.53907 8.18932 5.79094 8.20664C5.46037 8.20664 5.1472 8.39711 4.83404 8.79536Z" fill="#666666"/>
<path d="M22.7901 8.53451C22.6509 8.62108 22.3552 8.70766 22.1464 8.70766C21.9202 8.70766 21.7462 8.81155 21.7462 8.93276C21.7462 9.05397 21.4678 9.29638 21.1373 9.46954C20.8067 9.66001 20.5283 9.90242 20.5283 10.0409C20.5283 10.1795 20.4413 10.2314 20.3195 10.1622C20.1804 10.0756 20.163 10.1275 20.25 10.3699C20.3195 10.5431 20.3195 10.6297 20.2674 10.5777C20.1282 10.4392 19.1365 11.5301 19.1365 11.8071C19.1365 11.911 19.0495 11.9976 18.9451 11.9976C18.8581 11.9976 18.8059 12.0669 18.8581 12.1534C18.9103 12.24 18.8581 12.3439 18.7189 12.3958C18.3535 12.5344 18.0056 13.7118 18.2491 13.9542C18.3883 14.0928 18.4405 14.0928 18.4405 13.9369C18.4405 13.8157 18.5275 13.7291 18.6493 13.7291C18.7537 13.7291 19.2061 13.4348 19.641 13.0711C20.076 12.7075 20.5979 12.3266 20.7893 12.2227C21.3287 11.9456 22.4943 11.8071 22.7901 11.9803C23.0163 12.1361 22.9989 12.1881 22.7031 12.4132C22.5117 12.569 22.2508 12.6383 22.1464 12.6036C22.0246 12.569 21.9202 12.5863 21.9202 12.6556C21.9202 12.7768 21.3982 13.1058 20.8415 13.3136C20.6675 13.3655 20.5283 13.504 20.5283 13.5906C20.5283 13.6772 20.4413 13.6945 20.3195 13.6252C20.1978 13.5387 20.163 13.5906 20.2326 13.7811C20.3022 13.9542 20.2326 14.0754 20.0412 14.1274C19.8846 14.162 20.3717 14.1966 21.1373 14.214C22.9467 14.2659 23.834 14.5083 23.834 14.9412C23.834 15.3741 23.573 15.426 22.5291 15.2356C21.5548 15.0624 19.1365 15.2356 19.1365 15.478C19.1365 15.5646 18.9451 15.6338 18.7189 15.6338C18.4753 15.6338 18.2491 15.6858 18.2144 15.755C18.1622 15.8416 18.8755 15.8936 19.7976 15.9109C21.4156 15.9282 21.5374 15.9455 22.7901 16.6208C25.5912 18.1099 26.1828 18.4043 26.322 18.4043C26.496 18.4043 26.9657 17.9541 26.9657 17.7809C26.9657 17.7117 27.1049 17.5039 27.2615 17.3307C27.4877 17.0883 27.5746 16.5689 27.6268 15.0624C27.6616 14.0062 27.766 13.0538 27.853 12.9673C28.0966 12.6902 28.027 11.6513 27.7486 11.3742C27.6094 11.2184 27.4877 10.9413 27.4877 10.7336C27.4877 10.266 26.3046 9.64269 25.5738 9.71195C25.2433 9.74659 24.9475 9.62538 24.5995 9.26175C24.095 8.75961 23.4686 8.36135 23.1903 8.36135C23.1207 8.36135 22.9293 8.44793 22.7901 8.53451ZM26.2176 17.8156C26.1654 17.8675 26.0088 17.8848 25.887 17.8329C25.7478 17.7809 25.8 17.729 25.9914 17.729C26.1828 17.7117 26.2872 17.7636 26.2176 17.8156Z" fill="#666666"/>
<path d="M11.5685 15.9809C11.5163 16.0675 11.3597 16.1021 11.2205 16.0328C11.0639 15.9809 10.8551 16.0328 10.7159 16.1367C10.5942 16.2406 10.4376 16.2753 10.3854 16.2233C10.3332 16.1714 10.194 16.1714 10.0722 16.2579C9.95042 16.3272 9.49807 16.4138 9.06311 16.4484C7.72344 16.5523 6.71434 17.0025 6.24458 17.6951C6.0184 18.0414 5.75743 18.3704 5.68783 18.4224C5.60084 18.4916 5.53125 18.9938 5.53125 19.5652C5.53125 20.3617 5.61824 20.7253 5.96621 21.2102C6.20978 21.5738 6.43596 22.2144 6.48816 22.7512C6.62734 23.9114 7.1145 25.1581 7.56685 25.539C8.00181 25.9026 9.30669 25.9546 9.44587 25.6083C9.58506 25.262 11.4989 25.1061 12.6124 25.3312C13.7433 25.5563 14.4914 25.2966 15.1525 24.4308C15.9702 23.3919 16.4748 21.366 15.9876 21.0889C15.8833 21.0197 15.8659 20.76 15.918 20.4483C16.005 20.0673 15.9528 19.8769 15.7093 19.6864C15.5353 19.5306 15.5005 19.4613 15.6223 19.5306C15.7267 19.5825 15.8311 19.5652 15.8311 19.4613C15.8311 19.2016 15.1351 17.8856 14.735 17.3661L14.4044 16.9332L14.4914 17.4527C14.5958 17.9202 14.6828 20.0673 14.6306 20.6041C14.6132 20.8465 13.7433 20.9158 13.7259 20.6907C13.7259 20.6214 13.7085 20.2405 13.6737 19.8422C13.6215 18.8899 13.4823 18.7687 13.0299 19.3228C12.8385 19.5825 12.5776 19.7903 12.4558 19.7903C12.3166 19.7903 12.1774 19.9981 12.1252 20.2578C12.0034 20.7946 10.8377 22.4049 10.4898 22.5261C10.1592 22.6127 10.194 21.6084 10.5246 21.2794C10.6638 21.1409 10.7855 20.9504 10.7855 20.8465C10.7855 20.7426 11.0291 20.2232 11.3075 19.7037C11.6033 19.1842 11.8294 18.6648 11.8294 18.5609C11.8294 18.2838 10.0722 18.6128 9.61986 18.9765C9.49807 19.063 9.1849 19.0804 8.92392 18.9938C8.64555 18.9245 8.33238 18.8899 8.19319 18.9072C7.86262 18.9591 8.76734 18.2319 9.61986 17.7471C9.98522 17.5393 10.4028 17.3661 10.542 17.3661C10.6812 17.3661 10.7855 17.2969 10.7855 17.2103C10.7855 17.1237 11.0465 16.9679 11.3597 16.8467C12.2992 16.5004 12.6994 16.2753 12.6994 16.1021C12.6994 16.0155 12.5776 15.9809 12.4384 16.0502C12.2992 16.1021 12.1774 16.0675 12.1774 15.9809C12.1774 15.7558 11.7077 15.7558 11.5685 15.9809ZM15.4831 18.9938C15.4831 19.0457 15.4135 19.1323 15.3091 19.1842C15.2221 19.2362 15.1351 19.2016 15.1351 19.115C15.1351 19.0111 15.2221 18.9245 15.3091 18.9245C15.4135 18.9245 15.4831 18.9591 15.4831 18.9938Z" fill="#666666"/>
<path d="M18.2297 16.4483C17.7599 16.5176 17.7077 16.5695 17.6729 17.0544C17.6555 17.2448 18.3689 17.4007 20.8394 17.7989C21.2918 17.8682 21.9007 18.5262 21.9181 18.9591C21.9181 19.34 21.1178 19.392 20.7176 19.0283C20.5611 18.8898 20.1261 18.734 19.7433 18.6647C19.1866 18.5781 19.117 18.5955 19.3606 18.7513C20.2305 19.3054 21.257 20.6387 21.3266 21.3313C21.3614 21.5737 21.431 21.9546 21.4832 22.1624C21.5528 22.4914 21.5006 22.5607 21.1352 22.5607C20.8394 22.5607 20.6306 22.4222 20.5263 22.1624C20.2131 21.4698 19.3084 20.3097 19.0648 20.3097C19.03 20.3097 18.9778 20.7599 18.9778 21.2967C18.943 22.6646 18.7342 23.513 18.4385 23.513C18.2297 23.513 18.1949 23.3052 18.2297 22.5261C18.2645 21.972 18.1949 21.5044 18.0905 21.4352C18.0035 21.3832 17.9165 21.0716 17.9165 20.7772C17.9165 20.1192 16.7856 18.3357 16.4898 18.5089C16.3855 18.5781 16.3507 18.5608 16.4029 18.4742C16.5246 18.2491 16.2289 17.7643 16.0723 17.9375C16.0027 18.0067 16.0375 18.2491 16.1419 18.4916C16.2637 18.734 16.3507 19.0803 16.3507 19.2708C16.3507 19.4439 16.4203 19.6171 16.5072 19.6517C16.6812 19.7036 16.8204 22.7338 16.6638 22.9936C16.6116 23.0975 16.4724 23.6169 16.3333 24.171C16.2115 24.7251 16.0549 25.2099 16.0027 25.2446C15.9331 25.2965 15.9505 25.6255 16.0549 25.9891C16.2115 26.5779 16.3333 26.6818 16.977 26.8722C17.5859 27.0454 17.8469 27.0454 18.3863 26.8549C18.7516 26.7337 19.0822 26.5952 19.1344 26.5432C19.1866 26.4913 19.4824 26.2662 19.7955 26.0411C20.3697 25.6428 20.3871 25.6428 21.1526 25.9372C21.5702 26.093 21.9181 26.2835 21.9181 26.3701C21.9181 26.5605 22.5445 26.6991 22.962 26.5952C23.1534 26.5432 23.31 26.422 23.31 26.3008C23.31 26.1969 23.5014 25.9026 23.7449 25.6428C24.1973 25.158 24.3191 24.2749 24.0059 23.7728C23.8841 23.5823 23.9711 23.3918 24.3017 23.0455C24.5627 22.7685 24.8584 22.5607 24.9802 22.5607C25.2238 22.5607 25.4674 21.2101 25.2586 20.933C25.1716 20.8291 24.9976 20.4482 24.8932 20.0846C24.7714 19.7383 24.5627 19.4439 24.4409 19.4439C24.3017 19.4439 24.0755 19.2188 23.9189 18.9591C23.7449 18.682 23.4318 18.3184 23.1882 18.1279C22.962 17.9548 22.5097 17.5738 22.1791 17.3141C21.8659 17.0544 21.5354 16.8639 21.4484 16.8812C21.3788 16.8985 21.1352 16.8293 20.9438 16.7081C20.5089 16.483 18.9256 16.3271 18.2297 16.4483Z" fill="#666666"/>
<path d="M50.1432 19.1335L47.2254 18.9747L47.3286 16.9632L50.169 17.0955L50.2465 12.9402L46.8122 13.3636L46.6315 11.3257L50.2981 10.9022L50.4014 5L52.5188 5.02647L52.4155 10.664L59 9.89643L57.2958 19.504L52.2606 19.2394L52.1056 28L49.9883 27.9735L50.1432 19.1335ZM40.1502 6.87917L43.7394 9.9229L42.4225 11.6168L38.8075 8.59954L40.1502 6.87917ZM43.7136 10.9816L45.8052 10.7699L46.6573 20.0334L44.5916 20.2451L43.7136 10.9816ZM38.1362 12.0403L42.0352 14.6605L40.8732 16.5132L37 13.893L38.1362 12.0403ZM52.3639 12.702L52.2864 17.2014L55.5399 17.3337L56.4437 12.1991L52.3639 12.702ZM41.6221 17.5984L43.4038 18.7894L39.2207 25.962L37.4131 24.771L41.6221 17.5984Z" fill="#666666"/>
<path d="M108.028 16.4838L133.014 16.3749L132.984 18.3793L108.137 18.6054L108.028 16.4838Z" fill="#666666"/>
<path d="M100.541 10.2571L86.36 11.012L86.1354 9.00388L104.231 8.14636L99.282 17.036L97.3233 16.4074L100.541 10.2571ZM93.9544 12.5547L96.1974 12.7497L93.2549 25.2181L91.2438 25.0036L93.9544 12.5547Z" fill="#666666"/>
<path d="M69.4241 8.4302L71.3744 8.06774L72.795 15.2325L70.6802 15.7538L69.4241 8.4302ZM78.3383 8.42574L80.3823 9.53946L71.1627 25.255L69.3002 24.3975L78.3383 8.42574ZM64.1082 9.34128L65.969 8.77008L68.2727 15.7177L66.2706 16.4481L64.1082 9.34128Z" fill="#666666"/>
<rect y="33" width="168" height="1" fill="#666666"/>
<path d="M142.823 18.649L143.397 18.7708L143.174 19.3623C143.26 19.4727 143.306 19.6086 143.306 19.7483C143.305 19.888 143.257 20.0234 143.17 20.133C143.083 20.2425 142.961 20.3198 142.825 20.3525C142.688 20.3852 142.545 20.3714 142.417 20.3133C142.289 20.2553 142.185 20.1563 142.121 20.0322C142.056 19.9081 142.035 19.7661 142.061 19.6289C142.088 19.4916 142.159 19.367 142.265 19.2751C142.37 19.1831 142.504 19.129 142.644 19.1215L142.823 18.649ZM158.294 21.5579C158.102 21.7268 157.976 21.9585 157.94 22.2114C157.904 22.4643 157.959 22.7218 158.097 22.9375C158.234 23.1533 158.444 23.3132 158.69 23.3884C158.935 23.4637 159.199 23.4494 159.435 23.3481C159.67 23.2468 159.862 23.0651 159.975 22.8358C160.088 22.6065 160.115 22.3445 160.052 22.097C159.988 21.8495 159.838 21.6328 159.628 21.4857C159.418 21.3387 159.162 21.271 158.907 21.2948L158.609 20.605H157.88L158.294 21.5579ZM161.834 17.7131C161.834 18.0479 161.823 18.3715 161.802 18.6643H162.323V16.9371H161.813C161.825 17.1837 161.834 17.4452 161.834 17.7149L161.834 17.7131ZM160.663 19.7716H156.535C150.632 19.7716 145.615 18.3206 141.889 17.6102C140.277 17.3027 140 16.7177 140 16.0368C140 15.1259 140.493 13 142.007 13C143.264 13 144.722 16.1238 145.2 16.1238C145.404 16.1238 153.897 15.6583 153.897 15.6583C153.897 16.0835 154.605 16.2959 155.314 16.2959C156.024 16.2959 156.741 16.0812 156.741 15.6535V14.5072C156.741 14.5072 157.962 15.1578 158.303 15.6559H160.662C161.112 15.6559 161.112 19.7734 160.662 19.7734L160.663 19.7716ZM159.836 17.8007C159.836 17.5972 159.648 17.4316 159.42 17.4316H151.619C151.389 17.4316 151.203 17.5966 151.203 17.8007C151.203 18.0048 151.391 18.1698 151.619 18.1698H159.417C159.648 18.1716 159.835 18.006 159.835 17.8025L159.836 17.8007ZM163.62 14.8988C163.509 14.8988 163.404 14.9424 163.326 15.02C163.248 15.0977 163.204 15.203 163.204 15.3128V20.1123C163.205 20.2219 163.25 20.3266 163.328 20.4036C163.406 20.4807 163.512 20.5239 163.622 20.5239C163.732 20.5239 163.838 20.4807 163.916 20.4036C163.994 20.3266 164.039 20.2219 164.04 20.1123V15.3163C164.04 15.2614 164.029 15.207 164.008 15.1562C163.987 15.1055 163.956 15.0594 163.917 15.0207C163.878 14.982 163.831 14.9515 163.78 14.9308C163.729 14.9102 163.674 14.8999 163.619 14.9005L163.62 14.8988Z" fill="#666666"/>
</svg>
