<svg width="216" height="67" viewBox="0 0 216 67" fill="none" xmlns="http://www.w3.org/2000/svg">
<path d="M50.2056 0.733957C50.3791 1.16569 50.6394 1.94281 50.7261 2.50406C50.8563 3.02214 51.1599 3.58339 51.4202 3.75608C51.6805 3.92878 51.7673 3.66974 51.5937 2.97897C51.4202 2.41771 51.2901 1.51108 51.2901 0.949823C51.2901 0.388571 51.0298 1.19209e-05 50.596 1.19209e-05C50.0754 1.19209e-05 49.9887 0.215878 50.2056 0.733957Z" fill="#FB0767"/>
<path d="M53.4158 0.863514C53.329 1.42477 53.1555 2.11554 53.0254 2.37458C52.8519 2.71996 52.7217 3.41074 52.635 4.14468C52.635 4.49007 52.3747 4.66276 52.1144 4.53324C51.8541 4.36055 51.6806 4.49007 51.7674 4.79228C51.9843 6.38969 51.6806 7.29633 51.0733 7.08046C50.7262 6.90777 50.4226 7.03729 50.4226 7.29633C50.4226 7.55537 50.1189 7.77123 49.7285 7.77123C49.3381 7.77123 49.1212 8.03027 49.2513 8.28931C49.3381 8.59152 49.6417 8.80739 49.902 8.76422C50.6395 8.59152 51.0733 11.2683 50.3792 11.7C50.0755 11.8727 49.9454 12.1749 50.0755 12.3476C50.2491 12.4771 49.9888 12.9952 49.5116 13.5133C49.0778 13.9882 48.6874 14.679 48.6874 15.0243C48.6874 15.3697 47.9065 16.924 46.9522 18.435C45.9544 19.9461 45.3037 21.414 45.4773 21.673C45.6508 21.9752 45.6074 22.0184 45.2604 21.8457C44.9133 21.6298 44.5663 21.9752 44.2192 22.8387C43.959 23.5726 43.5685 24.1771 43.4384 24.1771C43.2649 24.1771 42.6576 24.911 42.137 25.7745C41.5731 26.6811 40.879 27.6741 40.5753 27.9763C40.2717 28.2785 40.0114 28.8398 40.0114 29.1852C40.0114 29.5305 39.8379 29.7896 39.5776 29.7896C39.3607 29.7896 38.8835 30.3077 38.5365 30.9553C38.1894 31.646 37.8858 31.9914 37.8424 31.7756C37.8424 31.5597 37.5387 31.646 37.1917 31.9482C36.8447 32.2505 36.6278 32.5958 36.7145 32.7685C36.8013 32.8981 36.3675 33.5025 35.7602 34.1069C35.1528 34.7113 34.8926 34.8409 35.2396 34.4091C35.7168 33.7615 35.7168 33.6752 35.0661 33.9342C34.2852 34.2364 34.0683 36.9132 34.8492 37.3881C35.4565 37.7766 38.7967 34.4955 38.4931 33.7615C38.4063 33.4593 38.4497 33.3298 38.71 33.4593C39.1004 33.7183 40.2717 31.9914 40.0981 31.387C40.0548 31.2143 40.2283 31.0848 40.4886 31.0848C40.7488 31.0848 40.879 30.7826 40.7488 30.4372C40.5753 30.0918 40.7055 29.7032 40.9657 29.5305C41.226 29.3579 41.3128 29.401 41.1393 29.7032C41.0091 29.9623 41.0525 30.2645 41.3128 30.4372C41.5297 30.5667 41.7466 30.4372 41.7466 30.0918C41.7466 29.7464 42.137 28.9693 42.6576 28.3217C43.4384 27.3719 43.4818 27.0697 43.0046 26.4221C42.5274 25.8176 42.5274 25.7745 43.048 26.2062C43.7854 26.8538 44.5229 26.9402 44.1325 26.3357C44.0023 26.0767 44.0457 25.904 44.2626 25.904C44.4795 25.904 44.7832 25.5586 44.9567 25.1269C45.0868 24.7383 45.9978 22.9682 46.9522 21.1981C47.9499 19.428 48.7741 17.6579 48.8175 17.2262C48.8609 16.7513 49.0344 16.4059 49.2513 16.4059C49.4682 16.4059 49.555 16.0173 49.4248 15.5424C49.2947 15.0675 49.3381 14.7653 49.555 14.8948C49.7285 15.0243 50.1189 14.4631 50.4226 13.686C51.5071 10.7502 51.724 10.3616 52.1144 10.3616C52.3747 10.3616 52.4614 9.97307 52.3747 9.49816C52.2879 9.02326 52.3747 8.6347 52.635 8.6347C52.8519 8.6347 53.0254 9.02326 53.0254 9.49816C53.0254 10.5343 54.1099 10.6638 54.5003 9.67085C54.7172 9.06643 54.6738 9.02326 54.1532 9.45499C53.6327 9.88672 53.5893 9.84355 53.7628 9.1096C53.9363 8.462 53.8062 8.20296 53.329 8.20296C52.9386 8.20296 52.5048 7.81441 52.3747 7.29633C52.1578 6.64873 52.4614 6.08748 53.6327 5.05132C54.8473 3.97199 55.1076 3.49708 54.7606 3.02217C54.4135 2.5041 54.3268 2.54727 54.3268 3.28122C54.3268 3.79929 54.0665 4.31738 53.7194 4.44689C53.2423 4.61959 53.1555 4.40372 53.2857 3.58343C53.4158 2.93583 53.6327 2.24506 53.8062 1.98602C54.24 1.25208 54.2834 0.431782 53.8496 0.431782C53.6327 0.431782 53.4158 0.604473 53.4158 0.863514Z" fill="#FB0767"/>
<path d="M55.9757 3.84241C55.2816 4.49001 54.7611 5.39665 54.7611 5.82838C54.7611 6.43281 54.6309 6.47598 54.1537 6.08742C53.7199 5.69886 53.4597 5.74204 53.0259 6.26012C52.5921 6.77819 52.7222 6.86454 53.9368 6.69185C54.8912 6.56233 55.1949 6.64867 54.8478 6.99406C54.3706 7.46897 54.6309 8.63464 55.1949 8.63464C55.4118 8.63464 55.4985 7.81435 55.4551 6.86454C55.325 5.22396 55.4551 5.00809 56.7565 4.23097C57.5808 3.75607 58.1013 3.19482 57.9712 2.97895C57.6241 2.37452 57.2337 2.50404 55.9757 3.84241Z" fill="#FB0767"/>
<path d="M50.7265 5.48305C50.553 5.61257 50.4229 5.95796 50.4229 6.21699C50.4229 6.47603 50.6398 6.43286 50.9434 6.13065C51.2037 5.87161 51.3338 5.52622 51.2471 5.3967C51.1169 5.26718 50.8567 5.31036 50.7265 5.48305Z" fill="#FB0767"/>
<path d="M29.7706 6.86458C29.25 7.08044 28.4692 7.77122 27.9486 8.37564C27.2545 9.32545 26.6906 9.54132 24.9554 9.54132C21.485 9.62766 20.3137 10.1457 19.6197 12.0022C18.8822 13.945 18.7955 15.0675 19.2726 15.3697C19.4462 15.4992 19.6197 15.8878 19.6197 16.2332C19.6197 16.5786 19.9667 17.183 20.4005 17.6147C20.7909 18.0033 21.5284 18.8236 22.0056 19.428C22.4827 20.0324 23.654 21.1981 24.6084 21.9752C25.5627 22.7955 26.3002 23.659 26.2568 23.8317C26.17 24.0044 26.3869 24.177 26.6906 24.177C27.8619 24.177 31.3323 29.3578 31.3323 31.0848C31.3323 31.6892 31.5925 32.5958 31.9396 33.0276C32.5035 33.8047 32.5903 33.7183 32.8939 31.7324C33.1108 30.1781 33.0241 29.0556 32.4601 27.5877C32.0697 26.4652 31.7661 25.2564 31.7661 24.911C31.7661 24.5224 31.5058 23.9612 31.2021 23.659C29.814 22.2774 28.903 19.6439 29.6404 19.169C30.2478 18.8236 34.0652 23.1841 33.6748 23.7885C33.5446 24.0044 33.7615 24.2202 34.1086 24.2202C34.499 24.2634 34.9762 24.3066 35.1931 24.3497C35.41 24.3929 36.2342 23.5726 36.9716 22.5365C37.7091 21.5435 38.4899 20.8095 38.7502 20.9822C39.8781 21.673 38.2297 28.1058 36.7547 28.6239C36.4077 28.7966 36.104 29.2283 36.104 29.6169C36.104 30.135 36.5378 29.9623 37.7525 28.8829C38.6201 28.1058 39.3142 27.2855 39.2274 27.1128C39.184 26.897 39.4443 26.6379 39.7913 26.4652C41.2663 25.904 44.3462 18.2623 44.3462 15.1538C44.3462 13.4269 41.8302 11.2251 39.7913 11.2251C38.7068 11.2251 38.273 11.0524 38.273 10.5343C38.273 10.1889 37.9694 9.58449 37.6223 9.23911C37.2753 8.89372 36.7114 8.15977 36.3209 7.68487C35.8438 6.95092 35.1497 6.73506 33.1976 6.60554C31.8094 6.56236 30.2478 6.64871 29.7706 6.86458ZM34.1086 21.8457C34.2387 22.1911 34.1953 22.3638 33.935 22.2343C33.6748 22.1047 33.5012 21.8025 33.5012 21.5435C33.5012 20.9391 33.8049 21.0686 34.1086 21.8457ZM40.442 24.4361C40.442 24.7815 39.6178 24.9973 39.4009 24.6951C39.2708 24.4793 39.4443 24.3066 39.7913 24.3066C40.1384 24.3066 40.442 24.3929 40.442 24.4361ZM31.2021 27.2855C31.072 27.6309 30.9418 27.5014 30.9418 27.0265C30.8985 26.5516 31.0286 26.2925 31.1587 26.4652C31.2889 26.5947 31.3323 26.9833 31.2021 27.2855Z" fill="#FB0767"/>
<path d="M9.55956 20.939C8.86548 21.7162 8.34492 22.5796 8.34492 22.8387C8.34492 23.3999 7.17366 23.9612 4.57087 24.6088C3.57313 24.8678 2.35849 25.5154 1.92469 26.1198C1.44751 26.7243 0.840193 27.1992 0.579913 27.1992C0.102734 27.1992 -0.114166 28.3217 0.0593538 30.0054C0.102734 30.4372 0.493153 31.2143 0.926952 31.7324C2.18497 33.0707 3.52975 36.1792 3.26947 37.129C3.13933 37.6039 3.26947 37.9925 3.52975 37.9925C3.74665 37.9925 3.87679 38.2515 3.79003 38.5106C3.65989 38.8128 4.31059 39.5899 5.22157 40.1943C6.78324 41.2736 6.87 41.3168 8.99562 40.6692C10.2103 40.367 11.8153 39.9784 12.5962 39.8489C13.3336 39.7194 13.9843 39.4604 13.9843 39.2877C13.9843 39.0286 14.6784 38.7264 15.7195 38.5106C15.8496 38.5106 16.5437 38.2515 17.2378 37.9925C20.2744 36.7836 23.0507 36.3087 25.3932 36.5678C26.9115 36.6973 27.8659 36.6541 27.8659 36.3951C27.8659 35.8338 24.3955 35.0567 19.4502 34.5386C17.3246 34.2796 15.2857 33.9342 14.9387 33.7183C13.8108 33.0707 16.1099 32.2504 18.6693 32.3368C19.9707 32.38 21.2721 32.2073 21.5758 31.9482C21.9228 31.646 22.4 31.6028 22.7037 31.7755C23.0073 31.9482 23.1375 31.8619 23.0073 31.4733C22.8772 31.1279 22.5735 30.9121 22.3133 30.9552C22.0096 31.0416 21.9228 30.7825 22.0964 30.3508C22.3133 29.7896 22.1831 29.7032 21.6192 29.9191C21.1854 30.0918 20.9685 30.0486 21.142 29.7896C21.2721 29.5737 20.6214 28.8829 19.6237 28.2353C16.1533 25.9471 18.3657 24.8246 22.8772 26.5947C24.569 27.2423 27.3887 29.3578 27.649 30.1781C27.7791 30.653 28.2129 31.1279 28.56 31.2575C29.1239 31.4733 29.0805 31.2143 28.3864 30.1349C26.6513 27.415 24.1786 24.177 23.8316 24.177C23.658 24.177 23.0073 23.659 22.4434 23.0545C21.8361 22.4069 21.3589 22.0184 21.3589 22.1911C21.3589 22.3638 20.8383 22.1479 20.1876 21.673C18.8429 20.7664 13.8108 19.428 11.9455 19.4712C11.1212 19.4712 10.3404 19.9461 9.55956 20.939Z" fill="#FB0767"/>
<path d="M54.3258 20.2915C53.9788 20.5073 53.2413 20.7232 52.7208 20.7232C52.1568 20.7232 51.723 20.9822 51.723 21.2844C51.723 21.5867 51.029 22.1911 50.2048 22.6228C49.3805 23.0977 48.6865 23.7022 48.6865 24.0475C48.6865 24.3929 48.4696 24.5224 48.1659 24.3498C47.8189 24.1339 47.7755 24.2634 47.9924 24.8678C48.1659 25.2996 48.1659 25.5154 48.0358 25.3859C47.6887 25.0405 45.2161 27.7604 45.2161 28.4512C45.2161 28.7103 44.9992 28.9261 44.7389 28.9261C44.522 28.9261 44.3918 29.0988 44.522 29.3147C44.6521 29.5305 44.522 29.7896 44.1749 29.9191C43.264 30.2645 42.3964 33.2003 43.0037 33.8047C43.3507 34.1501 43.4809 34.1501 43.4809 33.7615C43.4809 33.4593 43.6978 33.2434 44.0014 33.2434C44.2617 33.2434 45.3896 32.5095 46.4741 31.6029C47.5586 30.6962 48.86 29.7464 49.3372 29.4874C50.6819 28.7966 53.5884 28.4512 54.3258 28.8829C54.8898 29.2715 54.8464 29.401 54.1089 29.9623C53.6318 30.3508 52.9811 30.5235 52.7208 30.4372C52.4171 30.3508 52.1568 30.394 52.1568 30.5667C52.1568 30.8689 50.8554 31.6892 49.4673 32.2073C49.0335 32.3368 48.6865 32.6822 48.6865 32.8981C48.6865 33.1139 48.4696 33.1571 48.1659 32.9844C47.8622 32.7685 47.7755 32.8981 47.949 33.373C48.1225 33.8047 47.949 34.1069 47.4718 34.2364C47.0814 34.3228 48.296 34.4091 50.2048 34.4523C54.7163 34.5818 56.9286 35.1862 56.9286 36.2656C56.9286 37.3449 56.2779 37.4744 53.6751 36.9995C51.2459 36.5678 45.2161 36.9995 45.2161 37.6039C45.2161 37.8198 44.7389 37.9925 44.1749 37.9925C43.5676 37.9925 43.0037 38.122 42.9169 38.2947C42.7868 38.5106 44.5654 38.6401 46.8645 38.6833C50.8988 38.7264 51.2025 38.7696 54.3258 40.4534C61.31 44.1663 62.7849 44.9002 63.132 44.9002C63.5658 44.9002 64.737 43.7777 64.737 43.346C64.737 43.1733 65.0841 42.6552 65.4745 42.2235C66.0384 41.6191 66.2553 40.3239 66.3855 36.5678C66.4722 33.9342 66.7325 31.5597 66.9494 31.3438C67.5567 30.653 67.3832 28.0627 66.6891 27.3719C66.3421 26.9833 66.0384 26.2925 66.0384 25.7745C66.0384 24.6088 63.0886 23.0546 61.2666 23.2272C60.4424 23.3136 59.705 23.0114 58.8374 22.1047C57.5793 20.8527 56.0177 19.8597 55.3236 19.8597C55.1501 19.8597 54.6729 20.0756 54.3258 20.2915ZM62.8717 43.4323C62.7416 43.5619 62.3511 43.605 62.0475 43.4755C61.7004 43.346 61.8306 43.2165 62.3078 43.2165C62.7849 43.1733 63.0452 43.3028 62.8717 43.4323Z" fill="#FB0767"/>
<path d="M26.3507 38.8559C26.2206 39.0718 25.8301 39.1581 25.4831 38.9854C25.0927 38.8559 24.5721 38.9854 24.2251 39.2445C23.9214 39.5035 23.531 39.5899 23.4009 39.4604C23.2707 39.3308 22.9237 39.3308 22.62 39.5467C22.3164 39.7194 21.1885 39.9353 20.104 40.0216C16.7637 40.2806 14.2477 41.4032 13.0764 43.1301C12.5125 43.9935 11.8618 44.8138 11.6883 44.9434C11.4714 45.1161 11.2979 46.3681 11.2979 47.7928C11.2979 49.7788 11.5148 50.6854 12.3824 51.8943C12.9897 52.8009 13.5536 54.3983 13.6837 55.7367C14.0308 58.6293 15.2454 61.7378 16.3733 62.6876C17.4578 63.5942 20.7113 63.7237 21.0583 62.8603C21.4054 61.9968 26.1772 61.6082 28.9535 62.1695C31.7732 62.7307 33.6385 62.0831 35.287 59.9245C37.3258 57.3341 38.5838 52.2828 37.3692 51.592C37.1089 51.4193 37.0655 50.7717 37.1957 49.9946C37.4126 49.0448 37.2824 48.5699 36.6751 48.095C36.2413 47.7064 36.1546 47.5338 36.4582 47.7064C36.7185 47.836 36.9788 47.7928 36.9788 47.5338C36.9788 46.8862 35.2436 43.605 34.2458 42.3098L33.4216 41.2305L33.6385 42.5257C33.8988 43.6913 34.1157 49.0448 33.9856 50.3832C33.9422 50.9876 31.7732 51.1603 31.7298 50.5991C31.7298 50.4264 31.6864 49.4765 31.5997 48.4836C31.4695 46.109 31.1225 45.8068 29.9946 47.1884C29.5174 47.836 28.8667 48.354 28.5631 48.354C28.216 48.354 27.869 48.8721 27.7389 49.5197C27.4352 50.8581 24.5287 54.8732 23.6611 55.1754C22.8369 55.3913 22.9237 52.8872 23.7479 52.0669C24.0949 51.7216 24.3986 51.2467 24.3986 50.9876C24.3986 50.7286 25.0059 49.4334 25.7 48.1382C26.4375 46.843 27.0014 45.5478 27.0014 45.2887C27.0014 44.598 22.62 45.4183 21.4921 46.3249C21.1885 46.5408 20.4076 46.5839 19.7569 46.3681C19.0629 46.1954 18.282 46.109 17.935 46.1522C17.1108 46.2817 19.3665 44.4685 21.4921 43.2596C22.4031 42.7415 23.4442 42.3098 23.7913 42.3098C24.1383 42.3098 24.3986 42.1371 24.3986 41.9212C24.3986 41.7054 25.0493 41.3168 25.8301 41.0146C28.1727 40.1511 29.1704 39.5899 29.1704 39.1581C29.1704 38.9423 28.8667 38.8559 28.5197 39.0286C28.1727 39.1581 27.869 39.0718 27.869 38.8559C27.869 38.2947 26.6977 38.2947 26.3507 38.8559ZM36.1112 46.3681C36.1112 46.4976 35.9377 46.7135 35.6774 46.843C35.4605 46.9725 35.2436 46.8862 35.2436 46.6703C35.2436 46.4112 35.4605 46.1954 35.6774 46.1954C35.9377 46.1954 36.1112 46.2817 36.1112 46.3681Z" fill="#FB0767"/>
<path d="M42.9624 40.0216C41.7911 40.1943 41.661 40.3238 41.5742 41.5327C41.5309 42.0076 43.3094 42.3962 49.4694 43.3891C50.5973 43.5618 52.1156 45.2024 52.159 46.2817C52.159 47.2316 50.1635 47.3611 49.1657 46.4544C48.7753 46.1091 47.6908 45.7205 46.7365 45.5478C45.3483 45.3319 45.1748 45.3751 45.7821 45.7637C47.9511 47.1452 50.5105 50.4696 50.684 52.1965C50.7708 52.8009 50.9443 53.7507 51.0745 54.2688C51.248 55.0891 51.1178 55.2618 50.2069 55.2618C49.4694 55.2618 48.9488 54.9164 48.6886 54.2688C47.9077 52.5419 45.652 49.6493 45.0446 49.6493C44.9579 49.6493 44.8277 50.7718 44.8277 52.1101C44.741 55.5208 44.2204 57.6363 43.483 57.6363C42.9624 57.6363 42.8756 57.1182 42.9624 55.1754C43.0492 53.7939 42.8756 52.6282 42.6154 52.4555C42.3985 52.326 42.1816 51.5489 42.1816 50.8149C42.1816 49.1744 39.3619 44.7275 38.6244 45.1592C38.3641 45.3319 38.2774 45.2888 38.4075 45.0729C38.7112 44.5116 37.9737 43.3028 37.5833 43.7345C37.4098 43.9072 37.4965 44.5116 37.7568 45.1161C38.0605 45.7205 38.2774 46.584 38.2774 47.0589C38.2774 47.4906 38.4509 47.9223 38.6678 48.0087C39.1016 48.1382 39.4486 55.6935 39.0582 56.3411C38.9281 56.6002 38.581 57.8954 38.234 59.2769C37.9303 60.6584 37.5399 61.8673 37.4098 61.9536C37.2363 62.0832 37.2796 62.9035 37.5399 63.8101C37.9303 65.278 38.234 65.537 39.8391 66.0119C41.3574 66.4437 42.008 66.4437 43.3528 65.9688C44.2638 65.6665 45.088 65.3212 45.2182 65.1916C45.3483 65.0621 46.0858 64.5009 46.8666 63.9396C48.2981 62.9466 48.3415 62.9466 50.2502 63.6806C51.2914 64.0691 52.159 64.544 52.159 64.7599C52.159 65.2348 53.7206 65.5802 54.7617 65.3212C55.2389 65.1916 55.6293 64.8894 55.6293 64.5872C55.6293 64.3282 56.1065 63.5942 56.7138 62.9466C57.8417 61.7378 58.1454 59.5359 57.3645 58.2839C57.0609 57.809 57.2778 57.3341 58.102 56.4706C58.7527 55.7799 59.4902 55.2618 59.7938 55.2618C60.4011 55.2618 61.0085 51.8943 60.4879 51.2035C60.271 50.9445 59.8372 49.9946 59.5769 49.088C59.2733 48.2245 58.7527 47.4906 58.449 47.4906C58.102 47.4906 57.5381 46.9293 57.1476 46.2817C56.7138 45.591 55.933 44.6843 55.3257 44.2094C54.7617 43.7777 53.6339 42.8279 52.8097 42.1803C52.0288 41.5327 51.2046 41.0578 50.9877 41.101C50.8142 41.1441 50.2069 40.9714 49.7297 40.6692C48.6452 40.108 44.6976 39.7194 42.9624 40.0216Z" fill="#FB0767"/>
<path d="M145.928 13.896C146.091 14.0117 146.219 14.1333 146.312 14.2606C146.417 14.3763 146.469 14.4863 146.469 14.5905C146.469 14.6715 146.428 14.7467 146.347 14.8162L146.033 15.0419C145.917 15.1229 145.806 15.1634 145.701 15.1634C145.597 15.1634 145.51 15.1287 145.44 15.0592C145.137 14.8046 144.882 14.6368 144.672 14.5557C144.463 14.4631 144.248 14.4168 144.027 14.4168C143.643 14.4168 143.271 14.5963 142.91 14.9551C142.561 15.3139 142.276 15.7884 142.055 16.3787C141.834 16.969 141.724 17.6114 141.724 18.3059V21.7955C141.724 22.1775 141.532 22.3685 141.148 22.3685H140.259C140.096 22.3685 139.956 22.3106 139.84 22.1949C139.724 22.0791 139.666 21.9402 139.666 21.7782V14.087C139.666 13.705 139.857 13.514 140.241 13.514H141.148C141.532 13.514 141.724 13.6877 141.724 14.0349C142.05 13.8266 142.404 13.6645 142.788 13.5488C143.172 13.433 143.585 13.3752 144.027 13.3752C144.387 13.3752 144.73 13.4157 145.056 13.4967C145.382 13.5661 145.672 13.6992 145.928 13.896Z" fill="white"/>
<path d="M137.917 21.7782C137.917 21.9402 137.859 22.0791 137.743 22.1949C137.627 22.3106 137.487 22.3685 137.324 22.3685H136.452C136.312 22.3685 136.185 22.328 136.068 22.2469C135.964 22.1543 135.9 22.0386 135.876 21.8997C135.504 22.0965 135.086 22.2527 134.62 22.3685C134.167 22.4842 133.672 22.5421 133.138 22.5421C132.312 22.5421 131.661 22.4148 131.184 22.1601C130.719 21.9055 130.375 21.4657 130.154 20.8406C129.945 20.2156 129.811 19.3591 129.753 18.2711C129.695 17.1831 129.666 15.8058 129.666 14.1391C129.666 13.9539 129.724 13.8034 129.84 13.6877C129.957 13.5719 130.096 13.514 130.259 13.514H131.131C131.294 13.514 131.434 13.5777 131.55 13.705C131.666 13.8208 131.724 13.9712 131.724 14.1564C131.724 15.4528 131.742 16.5407 131.777 17.4204C131.823 18.3001 131.882 19.0119 131.951 19.5559C132.033 20.0999 132.132 20.5108 132.248 20.7886C132.364 21.0663 132.492 21.2573 132.632 21.3615C132.783 21.4541 132.951 21.5004 133.138 21.5004C133.661 21.5004 134.126 21.3731 134.533 21.1184C134.94 20.8638 135.26 20.5166 135.493 20.0767C135.737 19.6253 135.859 19.1103 135.859 18.5315V14.1043C135.859 13.9423 135.917 13.8034 136.033 13.6877C136.15 13.5719 136.289 13.514 136.452 13.514H137.324C137.487 13.514 137.627 13.5719 137.743 13.6877C137.859 13.8034 137.917 13.9423 137.917 14.1043V21.7782Z" fill="white"/>
<path d="M124.184 13.3404C125.044 13.3404 125.8 13.5487 126.451 13.9654C127.103 14.3705 127.609 14.9261 127.969 15.6321C128.341 16.3382 128.527 17.1368 128.527 18.028C128.527 18.8845 128.353 19.6542 128.004 20.3371C127.667 21.02 127.19 21.5582 126.574 21.9518C125.957 22.3453 125.236 22.5421 124.41 22.5421C123.538 22.5421 122.771 22.3453 122.108 21.9518C121.456 21.5467 120.945 20.9969 120.573 20.3024C120.212 19.6079 120.032 18.8209 120.032 17.9412C120.032 17.05 120.2 16.2571 120.538 15.5627C120.887 14.8682 121.369 14.3242 121.986 13.9307C122.614 13.5372 123.346 13.3404 124.184 13.3404ZM124.184 14.3821C123.73 14.3821 123.34 14.5383 123.015 14.8509C122.689 15.1518 122.439 15.5743 122.265 16.1183C122.09 16.6507 122.003 17.2583 122.003 17.9412C122.003 19.1681 122.236 20.0709 122.701 20.6496C123.166 21.2168 123.736 21.5004 124.41 21.5004C124.934 21.5004 125.352 21.3325 125.666 20.9969C125.98 20.6612 126.207 20.2272 126.347 19.6947C126.486 19.1623 126.556 18.6068 126.556 18.028C126.556 16.9632 126.347 16.0893 125.928 15.4064C125.509 14.7235 124.928 14.3821 124.184 14.3821Z" fill="white"/>
<path d="M117.721 21.7782C117.721 21.9402 117.663 22.0791 117.546 22.1948C117.43 22.3106 117.291 22.3685 117.128 22.3685H116.081C115.918 22.3685 115.779 22.3106 115.662 22.1948C115.546 22.0791 115.488 21.9402 115.488 21.7782V10.2848C115.488 10.25 115.488 10.2269 115.488 10.2153H112.976C112.813 10.2153 112.674 10.169 112.557 10.0764C112.441 9.97225 112.383 9.84493 112.383 9.69446C112.383 9.544 112.441 9.42247 112.557 9.32987C112.674 9.2257 112.813 9.17361 112.976 9.17361H120.233C120.396 9.17361 120.535 9.2257 120.652 9.32987C120.768 9.42247 120.826 9.544 120.826 9.69446C120.826 9.84493 120.768 9.97225 120.652 10.0764C120.535 10.169 120.396 10.2153 120.233 10.2153H117.721V10.2848V21.7782Z" fill="white"/>
<path d="M103.669 11.3091C103.669 11.4711 103.611 11.61 103.495 11.7258C103.379 11.8415 103.239 11.8994 103.076 11.8994H102.03C101.867 11.8994 101.727 11.8415 101.611 11.7258C101.495 11.61 101.437 11.4711 101.437 11.3091V10.2848C101.437 10.1227 101.495 9.98382 101.611 9.86807C101.727 9.75233 101.867 9.69446 102.03 9.69446H103.076C103.239 9.69446 103.379 9.75233 103.495 9.86807C103.611 9.98382 103.669 10.1227 103.669 10.2848V11.3091ZM103.669 21.7782C103.669 21.9402 103.611 22.0791 103.495 22.1948C103.379 22.3106 103.239 22.3684 103.076 22.3684H102.03C101.867 22.3684 101.727 22.3106 101.611 22.1948C101.495 22.0791 101.437 21.9402 101.437 21.7782V14.1043C101.437 13.9423 101.495 13.8034 101.611 13.6876C101.727 13.5719 101.867 13.514 102.03 13.514H103.076C103.239 13.514 103.379 13.5719 103.495 13.6876C103.611 13.8034 103.669 13.9423 103.669 14.1043V21.7782Z" fill="white"/>
<path d="M94.4569 21.7782C94.4569 21.9402 94.3987 22.0791 94.2824 22.1948C94.1661 22.3106 94.0266 22.3685 93.8638 22.3685H92.9217C92.7589 22.3685 92.6194 22.3106 92.5031 22.1948C92.3868 22.0791 92.3286 21.9402 92.3286 21.7782V9.76391C92.3286 9.60187 92.3868 9.46298 92.5031 9.34723C92.6194 9.23149 92.7589 9.17361 92.9217 9.17361H93.8638C94.0266 9.17361 94.1661 9.23149 94.2824 9.34723C94.3987 9.46298 94.4569 9.60187 94.4569 9.76391V17.16L98.9227 13.5661C99.0158 13.4851 99.1262 13.4446 99.2542 13.4446C99.3472 13.4446 99.4344 13.4677 99.5158 13.514L99.7601 13.6529C100.004 13.7918 100.126 13.9828 100.126 14.2258C100.126 14.4226 100.033 14.5962 99.8473 14.7467L95.992 17.8544L99.795 21.1184C99.9927 21.2805 100.092 21.4656 100.092 21.674C100.092 21.8823 99.9927 22.0386 99.795 22.1427L99.3763 22.3685C99.3065 22.4032 99.2251 22.4205 99.1321 22.4205C98.9925 22.4205 98.8762 22.38 98.7832 22.299L94.8407 18.9135C94.8058 18.8903 94.7767 18.8614 94.7534 18.8267L94.4569 19.0697V21.7782Z" fill="white"/>
<path d="M90.8388 15.9967C90.8388 17.3162 90.612 18.4679 90.1584 19.4517C89.7165 20.424 89.1176 21.1821 88.3616 21.7261C87.6057 22.2701 86.7509 22.5421 85.7973 22.5421C84.7855 22.5421 83.8667 22.2816 83.041 21.7608C82.2153 21.2284 81.5582 20.4876 81.0697 19.5385C80.5929 18.5894 80.3545 17.484 80.3545 16.2224C80.3545 15.2618 80.4882 14.3474 80.7557 13.4793C81.0348 12.6112 81.4186 11.8415 81.9071 11.1702C82.3955 10.4989 82.9538 9.97225 83.5818 9.5903C84.2214 9.19677 84.8959 9 85.6054 9C86.338 9 87.0184 9.17362 87.6464 9.52085C88.286 9.85651 88.8443 10.3368 89.3211 10.9619C89.7979 11.5869 90.1701 12.3276 90.4376 13.1842C90.705 14.0407 90.8388 14.9782 90.8388 15.9967ZM88.6059 15.9967C88.6059 14.9319 88.4896 13.9654 88.257 13.0973C88.036 12.2293 87.7045 11.5406 87.2626 11.0313C86.8207 10.522 86.2683 10.2674 85.6054 10.2674C85.1518 10.2674 84.7389 10.441 84.3668 10.7882C83.9946 11.1239 83.6748 11.5811 83.4073 12.1598C83.1515 12.727 82.9479 13.3636 82.7968 14.0696C82.6572 14.7756 82.5874 15.4932 82.5874 16.2224C82.5874 17.2178 82.7153 18.1033 82.9712 18.8788C83.2271 19.6427 83.5934 20.2445 84.0702 20.6844C84.5587 21.1126 85.1344 21.3268 85.7973 21.3268C86.3787 21.3268 86.8788 21.0953 87.2975 20.6323C87.7162 20.1577 88.036 19.5154 88.257 18.7051C88.4896 17.8949 88.6059 16.9921 88.6059 15.9967Z" fill="white"/>
<path d="M96.7205 55.088L93.0872 54.896L93.2158 52.464L96.7526 52.624L96.8491 47.6L92.5727 48.112L92.3476 45.648L96.9134 45.136L97.042 38L99.6786 38.032L99.55 44.848L107.749 43.92L105.627 55.536L99.357 55.216L99.1641 65.808L96.5276 65.776L96.7205 55.088ZM84.2772 40.272L88.7465 43.952L87.1067 46L82.6052 42.352L84.2772 40.272ZM88.7143 45.232L91.3187 44.976L92.3798 56.176L89.8075 56.432L88.7143 45.232ZM81.7692 46.512L86.6244 49.68L85.1775 51.92L80.3545 48.752L81.7692 46.512ZM99.4857 47.312L99.3892 52.752L103.44 52.912L104.566 46.704L99.4857 47.312ZM86.1099 53.232L88.3285 54.672L83.1197 63.344L80.8689 61.904L86.1099 53.232Z" fill="white"/>
<path d="M157.862 50.0505L174.322 49.5666V51.5712L157.954 52.1703L157.862 50.0505Z" fill="white"/>
<path d="M149.956 45.1658L135.787 46.1336L135.533 44.129L153.614 43L148.798 51.9629L146.83 51.3638L149.956 45.1658ZM143.404 47.5621L145.65 47.7234L142.895 60.2346L140.881 60.0502L143.404 47.5621Z" fill="white"/>
<path d="M118.814 43.8065L120.759 43.4148L122.287 50.5574L120.18 51.1104L118.814 43.8065ZM127.727 43.6682L129.787 44.7511L120.805 60.6033L118.93 59.7738L127.727 43.6682ZM113.512 44.7972L115.364 44.1982L117.772 51.1104L115.781 51.8708L113.512 44.7972Z" fill="white"/>
<rect x="82.3638" y="31" width="90.4309" height="0.6" fill="white"/>
<path d="M184.06 33.4692L184.921 33.6518L184.586 34.5386C184.715 34.7041 184.785 34.9078 184.784 35.1173C184.783 35.3267 184.711 35.5298 184.581 35.694C184.45 35.8582 184.268 35.9741 184.063 36.0231C183.859 36.0722 183.643 36.0515 183.452 35.9645C183.261 35.8774 183.104 35.729 183.007 35.543C182.911 35.357 182.879 35.144 182.919 34.9382C182.958 34.7325 183.065 34.5457 183.224 34.4078C183.382 34.2699 183.582 34.1889 183.792 34.1776L184.06 33.4692ZM207.256 37.8304C206.967 38.0836 206.779 38.431 206.724 38.8101C206.67 39.1893 206.753 39.5753 206.959 39.8988C207.165 40.2222 207.48 40.462 207.848 40.5748C208.216 40.6876 208.612 40.6661 208.965 40.5143C209.319 40.3624 209.606 40.09 209.775 39.7462C209.945 39.4024 209.986 39.0097 209.89 38.6386C209.795 38.2676 209.57 37.9426 209.255 37.7221C208.94 37.5017 208.557 37.4001 208.174 37.4359L207.728 36.4017H206.635L207.256 37.8304ZM212.563 32.066C212.563 32.5681 212.546 33.0531 212.515 33.4921H213.296V30.9026H212.531C212.549 31.2724 212.562 31.6644 212.562 32.0688L212.563 32.066ZM210.807 35.1522H204.618C195.768 35.1522 188.246 32.9768 182.661 31.9118C180.243 31.4507 179.828 30.5737 179.828 29.5529C179.828 28.1872 180.567 25 182.837 25C184.722 25 186.908 29.6833 187.624 29.6833C187.93 29.6833 200.663 28.9854 200.663 28.9854C200.663 29.623 201.725 29.9414 202.788 29.9414C203.851 29.9414 204.927 29.6195 204.927 28.9782V27.2596C204.927 27.2596 206.757 28.2351 207.269 28.9818H210.805C211.48 28.9818 211.48 35.155 210.806 35.155L210.807 35.1522ZM209.566 32.1974C209.566 31.8923 209.286 31.6441 208.943 31.6441H197.248C196.903 31.6441 196.625 31.8915 196.625 32.1974C196.625 32.5034 196.905 32.7508 197.248 32.7508H208.939C209.285 32.7534 209.566 32.5052 209.566 32.2001L209.566 32.1974ZM215.24 27.8467C215.074 27.8467 214.916 27.9121 214.799 28.0285C214.682 28.145 214.616 28.3029 214.616 28.4675V35.6631C214.618 35.8274 214.685 35.9843 214.802 36.0998C214.92 36.2153 215.078 36.2801 215.243 36.2801C215.408 36.2801 215.566 36.2153 215.684 36.0998C215.801 35.9843 215.868 35.8274 215.87 35.6631V28.4728C215.87 28.3904 215.854 28.3088 215.822 28.2327C215.791 28.1566 215.744 28.0876 215.686 28.0295C215.627 27.9715 215.557 27.9257 215.48 27.8948C215.404 27.8638 215.322 27.8484 215.239 27.8493L215.24 27.8467Z" fill="white"/>
</svg>
