<svg width="18" height="18" viewBox="0 0 18 18" fill="none" xmlns="http://www.w3.org/2000/svg">
<g clip-path="url(#clip0_11186_1933)">
<path d="M10.2462 10.0963C10.2193 10.0963 10.1933 10.0869 10.1725 10.0674C10.1309 10.0274 10.13 9.96192 10.1699 9.9211C10.3294 9.75955 10.5096 9.6405 10.7063 9.56738C10.9585 9.47299 11.1492 9.48235 11.6094 9.50446C11.7047 9.50871 11.8113 9.51381 11.9335 9.51891C12.0592 9.52401 12.3763 9.53592 12.6069 9.53762C12.8322 9.53932 13.217 9.53167 13.964 9.44408C14.5889 9.37096 15.0014 9.32249 15.5768 9.19835C15.5855 9.19665 16.4885 8.99683 17.4557 8.47389C17.5398 8.42883 17.7937 8.29108 17.7859 8.19755C17.7789 8.11166 17.5597 8.01388 17.402 7.97562C16.414 8.02663 15.4373 8.13207 14.4987 8.28938C14.4095 8.30468 12.2984 8.65246 11.1388 8.43053C10.54 8.31574 10.1612 7.98412 10.1456 7.96966C10.1292 7.95521 10.1153 7.94245 10.1084 7.93565C10.0668 7.89569 10.065 7.83107 10.1058 7.7894C10.1456 7.74859 10.2124 7.74689 10.2548 7.78685C10.2618 7.7928 10.273 7.80386 10.2878 7.81661C10.2912 7.82001 10.6413 8.12442 11.1795 8.22731C12.301 8.44158 14.4424 8.08871 14.4641 8.0853C15.4148 7.9263 16.4053 7.82001 17.4072 7.76814C17.4167 7.76814 17.4271 7.76814 17.4366 7.77069C17.5259 7.7911 17.9739 7.90674 17.9965 8.18054C18.0147 8.40672 17.7287 8.56147 17.558 8.65416C16.6515 9.14393 15.7753 9.36756 15.6228 9.39817C15.0369 9.52656 14.6201 9.57503 13.9892 9.64901C13.23 9.73829 12.8357 9.74594 12.6051 9.74339C12.3712 9.74169 12.0514 9.72979 11.9248 9.72468C11.8018 9.71958 11.6943 9.71448 11.599 9.71023C11.1579 9.68897 10.9923 9.68047 10.7817 9.75955C10.6145 9.82247 10.4594 9.9245 10.3216 10.064C10.3008 10.0852 10.273 10.0954 10.2462 10.0954V10.0963Z" fill="white"/>
<path d="M6.80819 8.97412C6.79086 8.97412 6.77352 8.96987 6.75706 8.96136C6.70593 8.9333 6.68773 8.87123 6.71546 8.82106C6.77959 8.70712 6.80559 8.59829 6.79259 8.4971C6.74579 8.12892 6.19981 7.89084 5.99355 7.80155L5.97535 7.7939C5.95109 7.7837 3.51238 6.69616 1.52432 3.84511C1.34492 3.58747 1.32066 3.37319 1.30853 3.27031L1.30593 3.24735C1.27386 2.99311 1.39952 2.78649 1.46625 2.6751C1.49312 2.63003 1.55118 2.61217 1.59971 2.63343C1.74098 2.69465 1.87877 2.76693 2.00963 2.84856C2.24536 2.99481 2.46375 3.17252 2.65701 3.37659C3.03313 3.77283 3.45518 4.12911 3.86423 4.47433C4.13202 4.70051 4.40848 4.93434 4.6702 5.17668C5.47357 5.92239 6.5898 6.56437 7.98681 7.0856C8.04141 7.10601 8.06828 7.16553 8.04748 7.2191C8.02668 7.27267 7.96601 7.29903 7.91142 7.27862C6.4884 6.74718 5.34964 6.09075 4.52547 5.32633C4.26722 5.0874 3.99249 4.85442 3.72644 4.62994C3.31305 4.28131 2.88667 3.92079 2.50708 3.52114C2.43515 3.44547 2.22976 3.22864 1.89697 3.02287C1.80164 2.96335 1.70198 2.90978 1.60058 2.86131C1.54772 2.9574 1.49745 3.08154 1.51565 3.22184L1.51825 3.2482C1.52865 3.34088 1.54858 3.51434 1.69851 3.72947C3.65364 6.53291 6.03775 7.59578 6.06115 7.60599L6.07935 7.61364C6.31507 7.71567 6.94078 7.98777 7.00232 8.47244C7.02051 8.61784 6.98672 8.7692 6.90005 8.9214C6.88099 8.95541 6.84459 8.97497 6.80819 8.97497V8.97412Z" fill="white"/>
<path d="M10.1229 7.83119C10.1169 7.83119 10.1108 7.83119 10.1047 7.82949C10.0476 7.81929 10.0094 7.76572 10.019 7.7096C10.2928 6.18501 10.5641 4.86959 10.8249 3.79992C11.2227 2.16734 11.2652 1.99643 11.2808 1.96412C11.2834 1.95902 11.5399 1.41653 11.6352 0.544969C11.6439 0.469292 11.6474 0.360454 11.585 0.29328C11.5564 0.262669 11.5148 0.241412 11.4602 0.230358C11.4567 0.230358 11.4532 0.228657 11.4498 0.227807C11.3752 0.204849 11.305 0.200598 11.2409 0.214202C11.1646 0.231208 11.0381 0.352801 10.8657 0.57643C10.019 1.67332 9.67317 3.05846 9.33864 4.39768C9.19652 4.96568 9.05006 5.55324 8.86633 6.11528C8.86026 6.13399 8.85333 6.1578 8.84553 6.18501C8.79873 6.34827 8.71207 6.65352 8.47028 6.93072C8.39141 7.02085 8.30302 7.10248 8.20595 7.17476C8.15916 7.20962 8.09329 7.20027 8.05863 7.15435C8.02309 7.10843 8.03263 7.04381 8.07942 7.0098C8.16435 6.94688 8.24235 6.8746 8.31082 6.79637C8.52227 6.55404 8.59854 6.28789 8.6436 6.12974C8.65227 6.09998 8.6592 6.07362 8.66614 6.05236C8.84726 5.49797 8.99286 4.91381 9.13412 4.34921C9.47384 2.98958 9.82483 1.58319 10.6984 0.452286C10.9168 0.169987 11.0606 0.0424418 11.1958 0.0126813C11.2955 -0.00942651 11.4012 -0.00347441 11.5087 0.028837C11.604 0.0492442 11.682 0.0909089 11.7401 0.153831C11.8736 0.297532 11.8519 0.500753 11.8441 0.567077C11.7444 1.47605 11.4818 2.02959 11.4706 2.05255C11.4558 2.09847 11.2955 2.75575 11.0294 3.84498C10.7686 4.91381 10.4982 6.22497 10.2252 7.74531C10.2165 7.79548 10.1715 7.83034 10.1212 7.83034L10.1229 7.83119Z" fill="white"/>
<path d="M0.842847 13.9074C0.436395 13.9074 0.13394 13.7646 0.0100111 13.5044C-0.0081882 13.4661 -0.00125513 13.4219 0.0282104 13.3913C1.03264 12.3156 2.35339 11.5912 3.63081 10.8914C4.67077 10.3217 5.7454 9.73243 6.6415 8.95696C6.68483 8.91954 6.75156 8.92294 6.79056 8.96631C6.82869 9.00882 6.82522 9.0743 6.78103 9.11256C5.86759 9.90249 4.78257 10.4968 3.73307 11.0725C2.49205 11.7527 1.2103 12.4551 0.234469 13.4763C0.433795 13.7595 0.956376 13.7042 1.1193 13.6795C2.50419 13.4661 3.73307 12.7034 4.92123 11.9662C5.42561 11.6533 5.94646 11.3301 6.4751 11.0504L6.50717 11.0334C6.64583 10.9586 6.93442 10.8038 7.32787 10.7341C7.54367 10.6958 7.76552 10.6865 7.98738 10.706C8.04545 10.7111 8.08791 10.7613 8.08271 10.8183C8.07751 10.8752 8.02638 10.9169 7.96832 10.9118C7.76552 10.8939 7.56186 10.9033 7.36427 10.9373C7.00462 11.0011 6.74636 11.1397 6.60683 11.2145L6.57303 11.2324C6.05045 11.5087 5.53221 11.8301 5.03129 12.1405C3.82494 12.8887 2.57785 13.6625 1.14964 13.8827C1.04044 13.8998 0.93731 13.9074 0.83938 13.9074H0.842847Z" fill="white"/>
<path d="M11.7619 18.0002C11.4777 18.0002 11.1657 17.814 10.8901 17.4696C9.99748 16.3532 9.62222 14.9536 9.2591 13.599C9.10831 13.037 8.95231 12.4554 8.76166 11.9035C8.75472 11.8823 8.74692 11.8568 8.73739 11.827C8.68972 11.6689 8.60913 11.4053 8.39334 11.1655C8.32314 11.0881 8.24427 11.0175 8.15848 10.9555C8.11168 10.9223 8.10128 10.8568 8.13508 10.8109C8.16974 10.765 8.23561 10.7548 8.28241 10.7879C8.38034 10.8585 8.47133 10.9384 8.55106 11.0277C8.79805 11.3015 8.88992 11.6042 8.93932 11.7666C8.94712 11.7938 8.95491 11.8168 8.96098 11.8355C9.15424 12.3942 9.3111 12.9792 9.46276 13.5446C9.82068 14.8779 10.1899 16.2571 11.0556 17.3395C11.1579 17.467 11.502 17.8565 11.8443 17.7825C11.8399 16.3829 11.3893 15.0114 10.9534 13.6841C10.5851 12.5617 10.2037 11.401 10.0841 10.2123C10.0781 10.1553 10.1205 10.1052 10.1786 10.0992C10.2367 10.0932 10.2878 10.1349 10.2939 10.1919C10.4117 11.3585 10.7887 12.5081 11.1544 13.6203C11.6033 14.9867 12.067 16.3999 12.0549 17.859C12.0549 17.9007 12.0289 17.9381 11.989 17.9543C11.9162 17.9832 11.8399 17.9976 11.7611 17.9976L11.7619 18.0002Z" fill="white"/>
<path d="M11.0421 1.43948C10.9901 1.43948 10.9407 1.42588 10.8991 1.39952C10.7518 1.30514 10.7674 1.09936 10.8133 0.984573C10.8627 0.86128 10.9832 0.733735 11.1305 0.746489C11.2007 0.752441 11.2466 0.788154 11.2648 0.801759C11.3862 0.894441 11.4503 1.10191 11.3524 1.26177C11.3012 1.3451 11.212 1.40887 11.114 1.43098C11.0898 1.43608 11.0655 1.43948 11.0421 1.43948ZM11.0144 1.22606C11.0256 1.23286 11.0447 1.23456 11.0664 1.22946C11.108 1.22011 11.1504 1.19035 11.1721 1.15548C11.2137 1.08746 11.1773 0.997328 11.1348 0.964166C11.1279 0.959064 11.1201 0.952262 11.1123 0.952262C11.088 0.948861 11.0334 1.00073 11.0101 1.06025C10.9867 1.11892 10.9841 1.20735 11.0144 1.22691V1.22606Z" fill="white"/>
<path d="M10.7775 2.32475C10.7342 2.32475 10.6909 2.31284 10.6554 2.28903C10.599 2.25162 10.5635 2.187 10.5592 2.11217C10.554 2.03139 10.5852 1.95402 10.6424 1.9047C10.6961 1.85878 10.7741 1.83752 10.8503 1.84858C10.9136 1.85793 10.9647 1.88769 10.9925 1.93276C11.0098 1.95912 11.0167 1.99228 11.015 2.0399C11.0124 2.10707 11.0089 2.21931 10.911 2.28393C10.8711 2.31029 10.8243 2.3239 10.7784 2.3239L10.7775 2.32475ZM10.7732 2.11727C10.7775 2.11727 10.7871 2.11727 10.7914 2.11387C10.7983 2.10707 10.8009 2.07646 10.8018 2.0535C10.7931 2.0535 10.7845 2.0569 10.7793 2.06115C10.7663 2.07306 10.7645 2.10707 10.7723 2.11812L10.7732 2.11727Z" fill="white"/>
<path d="M10.32 3.86392C10.2749 3.86392 10.2298 3.85286 10.19 3.8299C10.0799 3.76698 10.0522 3.63944 10.0626 3.54931C10.0756 3.43196 10.1562 3.36394 10.209 3.31972C10.2472 3.28741 10.294 3.25425 10.3572 3.25085C10.4387 3.24575 10.5202 3.29507 10.5592 3.37414C10.5904 3.43792 10.5904 3.49489 10.586 3.5476C10.5782 3.63859 10.567 3.76273 10.4526 3.82905C10.4127 3.85201 10.3659 3.86392 10.32 3.86392ZM10.2957 3.65134C10.3113 3.65984 10.333 3.65814 10.3451 3.65134C10.3668 3.63859 10.372 3.57822 10.3763 3.5289C10.3798 3.49148 10.3763 3.47873 10.3702 3.46428C10.3702 3.46257 10.3685 3.46172 10.3676 3.46002C10.3642 3.46257 10.359 3.46598 10.3512 3.47278C10.3035 3.51359 10.2758 3.5374 10.2723 3.57226C10.2706 3.58417 10.2714 3.63689 10.2957 3.65049V3.65134Z" fill="white"/>
<path d="M9.41961 6.62054C9.38407 6.62054 9.34941 6.61374 9.31648 6.59674C9.22808 6.55167 9.17348 6.44368 9.16828 6.30678C9.16395 6.18264 9.20381 6.02363 9.32774 5.94966C9.43434 5.88589 9.6068 5.88503 9.69433 5.98537C9.72726 6.02278 9.73766 6.0636 9.74459 6.10271C9.76539 6.2192 9.79313 6.37906 9.6744 6.5049C9.61287 6.57038 9.51407 6.62139 9.41961 6.62139V6.62054ZM9.41354 6.41307C9.42827 6.41817 9.4846 6.40032 9.52014 6.3629C9.56433 6.31614 9.55567 6.24301 9.53747 6.13672C9.53487 6.12142 9.53314 6.11632 9.53227 6.11632C9.52274 6.10951 9.46727 6.10781 9.43694 6.12567C9.40314 6.14608 9.37887 6.2141 9.37801 6.28723C9.37801 6.3663 9.40401 6.40712 9.41267 6.41307H9.41354Z" fill="white"/>
<path d="M9.44636 7.27074C9.42989 7.27074 9.41343 7.26734 9.39783 7.25884L9.06677 7.08878C9.01477 7.06242 8.99484 7.00034 9.02171 6.94933C9.04857 6.89916 9.11184 6.87875 9.16384 6.90511L9.49489 7.07517C9.54689 7.10153 9.56682 7.1636 9.53995 7.21462C9.52089 7.25033 9.48449 7.26989 9.44636 7.26989V7.27074Z" fill="white"/>
<path d="M9.15367 8.19671C9.14587 8.19671 9.13807 8.19671 9.13027 8.19416C8.96561 8.15844 8.82435 8.0479 8.75068 7.89995C8.72555 7.84893 8.74721 7.78686 8.80008 7.7622C8.85208 7.73754 8.91534 7.7588 8.94047 7.81067C8.98554 7.90165 9.07567 7.97138 9.1762 7.99348C9.2334 8.00624 9.26893 8.06151 9.25593 8.11678C9.24466 8.16525 9.20133 8.19756 9.1528 8.19756L9.15367 8.19671Z" fill="white"/>
<path d="M7.94353 8.71651C7.91146 8.71651 7.88027 8.70291 7.85947 8.6757C7.82393 8.63063 7.83347 8.56516 7.8794 8.53115C7.93746 8.48778 7.97993 8.42571 7.99899 8.35684C8.01459 8.30157 8.07179 8.26926 8.12812 8.28456C8.18445 8.29987 8.21739 8.35599 8.20179 8.41126C8.17059 8.52349 8.10126 8.62468 8.00679 8.69526C7.98773 8.70971 7.9652 8.71651 7.94266 8.71651H7.94353Z" fill="white"/>
<path d="M7.21229 7.94168C7.16203 7.94168 7.11783 7.90682 7.10916 7.85665C7.09876 7.80053 7.13603 7.74696 7.19409 7.73591C7.26169 7.724 7.32755 7.68744 7.37262 7.63727C7.41162 7.59476 7.47748 7.5905 7.52168 7.62877C7.56501 7.66703 7.56934 7.73165 7.53034 7.77502C7.45321 7.8609 7.34662 7.91957 7.23222 7.93998C7.22616 7.94083 7.21922 7.94168 7.21316 7.94168H7.21229Z" fill="white"/>
<path d="M9.30089 9.22316C9.25322 9.22316 9.20989 9.1917 9.19863 9.14408C9.17869 9.06075 9.18129 8.97402 9.20816 8.89324C9.22549 8.83882 9.28529 8.80906 9.34075 8.82607C9.39622 8.84308 9.42655 8.90175 9.40922 8.95617C9.39448 9.00038 9.39275 9.05055 9.40402 9.09561C9.41788 9.15088 9.38322 9.207 9.32602 9.22061C9.31735 9.22231 9.30955 9.22316 9.30089 9.22316Z" fill="white"/>
<path d="M10.6582 9.1968C10.6088 9.1968 10.5646 9.16194 10.555 9.11262L10.5056 8.85243C10.4952 8.79631 10.5325 8.74274 10.5897 8.73169C10.6469 8.72148 10.7015 8.75805 10.7128 8.81417L10.7622 9.07436C10.7726 9.13048 10.7353 9.18405 10.6781 9.1951C10.672 9.19595 10.6651 9.1968 10.659 9.1968H10.6582Z" fill="white"/>
<path d="M8.47753 9.60826C8.47753 9.60826 8.4706 9.60826 8.46713 9.60826C8.34754 9.59721 8.24701 9.50112 8.23141 9.38463C8.22361 9.32766 8.26521 9.27664 8.32241 9.26899C8.3796 9.26134 8.43247 9.30215 8.44027 9.35827C8.44287 9.37868 8.4654 9.40079 8.48707 9.40249C8.54513 9.40759 8.5876 9.45861 8.5824 9.51473C8.5772 9.5683 8.53127 9.60826 8.47753 9.60826Z" fill="white"/>
<path d="M8.34916 10.3234C8.33963 10.3234 8.32923 10.3217 8.3197 10.3191C8.18017 10.2791 8.07791 10.1473 8.07617 10.0045C8.07617 9.94752 8.1221 9.90075 8.18017 9.8999H8.18103C8.2391 9.8999 8.2859 9.94582 8.28676 10.0019C8.28676 10.0538 8.3275 10.1057 8.37863 10.1201C8.43409 10.1363 8.46702 10.1933 8.45056 10.2485C8.43756 10.2936 8.39509 10.3234 8.34916 10.3234Z" fill="white"/>
<path d="M4.27312 11.9339C4.23759 11.9339 4.20292 11.9262 4.16999 11.9101C4.0816 11.865 4.02613 11.757 4.0218 11.6193C4.01747 11.4951 4.05733 11.3361 4.18126 11.2622C4.28786 11.1984 4.46032 11.1975 4.54785 11.2979C4.58078 11.3353 4.59118 11.3761 4.59811 11.4152C4.61804 11.5317 4.64664 11.6916 4.52791 11.8174C4.46552 11.8829 4.36759 11.9339 4.27312 11.9339ZM4.26706 11.7264C4.28179 11.7315 4.33812 11.7137 4.37365 11.6763C4.41785 11.6295 4.40918 11.5564 4.39098 11.4501C4.38838 11.4348 4.38665 11.4297 4.38579 11.4288C4.37625 11.422 4.32079 11.4203 4.29046 11.4382C4.25666 11.4586 4.23152 11.5266 4.23152 11.5997C4.23152 11.678 4.25752 11.7196 4.26619 11.7256L4.26706 11.7264Z" fill="white"/>
<path d="M16.9235 8.54458C16.8784 8.54458 16.8333 8.53353 16.7935 8.51057C16.6834 8.44765 16.6557 8.3201 16.6661 8.22997C16.6791 8.11263 16.7597 8.0446 16.8126 8.00039C16.8507 7.96808 16.8975 7.93491 16.9607 7.93151C17.0431 7.92641 17.1237 7.97573 17.1627 8.05481C17.1939 8.11858 17.1939 8.17555 17.1895 8.22742C17.1817 8.3184 17.1705 8.44254 17.0561 8.50972C17.0162 8.53268 16.9694 8.54458 16.9235 8.54458ZM16.8992 8.332C16.9148 8.34051 16.9365 8.33881 16.9486 8.332C16.9703 8.31925 16.9755 8.25888 16.9798 8.20956C16.9833 8.17215 16.9798 8.15939 16.9737 8.14494C16.9737 8.14324 16.972 8.14239 16.9711 8.14154C16.9677 8.14409 16.9625 8.14749 16.9547 8.15429C16.907 8.19511 16.8793 8.21892 16.8758 8.25378C16.8741 8.26568 16.8749 8.3184 16.8992 8.332Z" fill="white"/>
<path d="M16.2619 8.6851C16.2186 8.6851 16.1753 8.67319 16.1397 8.64939C16.0834 8.61197 16.0479 8.54735 16.0435 8.47252C16.0383 8.39174 16.0695 8.31437 16.1259 8.26505C16.1796 8.21913 16.2576 8.19788 16.3339 8.20893C16.3971 8.21828 16.4482 8.24804 16.476 8.29311C16.4933 8.32117 16.5002 8.35348 16.4985 8.40025C16.4959 8.46742 16.4924 8.57966 16.3945 8.64428C16.3547 8.67064 16.3079 8.68425 16.2619 8.68425V8.6851ZM16.2576 8.47848C16.2619 8.47848 16.2715 8.47848 16.2758 8.47507C16.2827 8.46827 16.2853 8.43766 16.2862 8.4147C16.2775 8.4147 16.2689 8.4181 16.2637 8.42236C16.2507 8.43341 16.2498 8.46827 16.2567 8.47933L16.2576 8.47848Z" fill="white"/>
<path d="M14.9489 9.06437C14.9038 9.06437 14.8588 9.05332 14.8189 9.03036C14.708 8.96744 14.6811 8.83989 14.6915 8.74976C14.7045 8.63242 14.7851 8.56439 14.838 8.51933C14.8761 8.48702 14.9229 8.45386 14.9862 8.45045C15.0685 8.4462 15.15 8.49467 15.1881 8.57375C15.2193 8.63752 15.2193 8.69449 15.215 8.74636C15.2072 8.83734 15.1959 8.96148 15.0815 9.02781C15.0416 9.05077 14.9948 9.06267 14.9489 9.06267V9.06437ZM14.9246 8.8518C14.9402 8.8603 14.9628 8.8586 14.974 8.8518C14.9957 8.83904 15.0009 8.77867 15.0052 8.72935C15.0087 8.69194 15.0052 8.67919 14.9992 8.66473C14.9992 8.66303 14.9974 8.66218 14.9966 8.66133C14.9931 8.66388 14.9879 8.66728 14.9801 8.67408C14.9324 8.7149 14.9056 8.73871 14.9012 8.77357C14.8995 8.78547 14.9004 8.83819 14.9246 8.8518Z" fill="white"/>
<path d="M3.58614 12.087C3.54281 12.087 3.49948 12.075 3.46395 12.0512C3.40761 12.0138 3.37208 11.9492 3.36775 11.8744C3.36255 11.7936 3.39375 11.7162 3.45008 11.6669C3.50381 11.621 3.58181 11.5997 3.65807 11.6108C3.72134 11.6201 3.77247 11.6499 3.8002 11.695C3.81753 11.7213 3.82447 11.7545 3.82273 11.8021C3.82013 11.8693 3.81667 11.9815 3.71874 12.0461C3.67887 12.0725 3.63207 12.0861 3.58614 12.0861V12.087ZM3.58181 11.8803C3.58614 11.8803 3.59567 11.8803 3.60001 11.8769C3.60694 11.8701 3.60954 11.8395 3.61127 11.8166C3.60261 11.8166 3.59394 11.82 3.58874 11.8242C3.57574 11.8361 3.57487 11.8701 3.58181 11.8812V11.8803Z" fill="white"/>
<path d="M2.11438 13.0718C2.06238 13.0718 2.01299 13.0582 1.97139 13.0318C1.82406 12.9375 1.83966 12.7317 1.88559 12.6169C1.93499 12.4936 2.05458 12.3661 2.20278 12.3788C2.27211 12.3848 2.31891 12.4205 2.33624 12.4341C2.45757 12.5268 2.5217 12.7342 2.42464 12.8941C2.37351 12.9774 2.28424 13.0412 2.18631 13.0633C2.16205 13.0684 2.13778 13.0718 2.11438 13.0718ZM2.18285 12.5846C2.15685 12.5846 2.10572 12.6339 2.08232 12.6926C2.05892 12.7512 2.05632 12.8397 2.08752 12.8592C2.09878 12.866 2.11785 12.8677 2.13951 12.8626C2.18111 12.8533 2.22358 12.8235 2.24438 12.7887C2.28597 12.7206 2.25044 12.6297 2.20711 12.5973C2.20104 12.5922 2.19238 12.5854 2.18458 12.5854C2.18458 12.5854 2.18371 12.5854 2.18285 12.5854V12.5846Z" fill="white"/>
<path d="M6.19251 7.4136C6.14051 7.4136 6.09111 7.4 6.04951 7.37364C5.90218 7.27926 5.91778 7.07348 5.96371 6.95869C6.01311 6.8354 6.13444 6.70786 6.2809 6.72061C6.35023 6.72656 6.39703 6.76228 6.41437 6.77588C6.53569 6.86941 6.59982 7.07604 6.50276 7.23589C6.45163 7.31922 6.36237 7.38299 6.26444 7.4051C6.24017 7.4102 6.21591 7.4136 6.19251 7.4136ZM6.16477 7.20018C6.17604 7.20783 6.19511 7.20868 6.21677 7.20358C6.25837 7.19423 6.30084 7.16447 6.32164 7.1296C6.36323 7.06158 6.32683 6.97145 6.28437 6.93829C6.2783 6.93319 6.26964 6.92638 6.26184 6.92638C6.23497 6.92298 6.18297 6.974 6.15957 7.03437C6.13618 7.09304 6.13358 7.18147 6.16477 7.20103V7.20018Z" fill="white"/>
<path d="M9.63782 11.5962C9.58582 11.5962 9.53642 11.5826 9.49482 11.5563C9.3475 11.4619 9.3631 11.2561 9.40903 11.1413C9.45843 11.018 9.57715 10.8905 9.72622 10.9032C9.79555 10.9092 9.84234 10.9449 9.85968 10.9585C9.98101 11.0512 10.0451 11.2587 9.94807 11.4185C9.89694 11.5027 9.80768 11.5656 9.70888 11.5877C9.68462 11.5928 9.66035 11.5962 9.63695 11.5962H9.63782ZM9.61009 11.3828C9.62135 11.3896 9.64042 11.3913 9.66208 11.3862C9.70368 11.3768 9.74615 11.3471 9.76781 11.3122C9.80941 11.2442 9.77301 11.1541 9.73055 11.1209C9.72448 11.1158 9.71495 11.109 9.70802 11.109C9.68635 11.1056 9.62915 11.1566 9.60575 11.217C9.58235 11.2757 9.57975 11.3641 9.61095 11.3836L9.61009 11.3828Z" fill="white"/>
<path d="M11.0949 16.6856C11.0429 16.6856 10.9935 16.672 10.9519 16.6456C10.8045 16.5512 10.8201 16.3455 10.8661 16.2307C10.9155 16.1074 11.0359 15.9798 11.1832 15.9926C11.2526 15.9985 11.2994 16.0342 11.3167 16.0479C11.438 16.1405 11.5022 16.348 11.4051 16.5079C11.354 16.5912 11.2647 16.655 11.1668 16.6771C11.1425 16.6822 11.1182 16.6856 11.0949 16.6856ZM11.0671 16.4722C11.0784 16.4798 11.0974 16.4807 11.1191 16.4756C11.1607 16.4662 11.2032 16.4364 11.224 16.4016C11.2656 16.3336 11.23 16.2426 11.1867 16.2103C11.1806 16.2052 11.172 16.1984 11.1642 16.1984C11.1408 16.1941 11.0853 16.246 11.0619 16.3063C11.0385 16.365 11.0359 16.4534 11.0671 16.473V16.4722Z" fill="white"/>
<path d="M10.1813 14.1966C10.1458 14.1966 10.1111 14.1889 10.0782 14.1728C9.9898 14.1277 9.93433 14.0197 9.93 13.882C9.92567 13.7578 9.96553 13.5988 10.0895 13.5249C10.1961 13.4611 10.3685 13.4602 10.456 13.5606C10.489 13.598 10.4994 13.6388 10.5063 13.6779C10.5271 13.7944 10.5548 13.9543 10.4361 14.0801C10.3746 14.1456 10.2758 14.1966 10.1813 14.1966ZM10.1753 13.9891C10.19 13.9942 10.2463 13.9764 10.2819 13.9389C10.3261 13.8922 10.3174 13.8191 10.2992 13.7128C10.2966 13.6975 10.2949 13.6924 10.294 13.6915C10.2845 13.6847 10.229 13.683 10.1987 13.7009C10.1649 13.7213 10.1397 13.7893 10.1397 13.8624C10.1397 13.9406 10.1657 13.9823 10.1744 13.9883L10.1753 13.9891Z" fill="white"/>
<path d="M9.96114 13.2442C9.91781 13.2442 9.87448 13.2323 9.83895 13.2085C9.78261 13.1711 9.74708 13.1064 9.74275 13.0316C9.73755 12.9508 9.76875 12.8734 9.82508 12.8241C9.87881 12.7782 9.95681 12.757 10.0331 12.768C10.0963 12.7774 10.1475 12.8071 10.1752 12.8522C10.1925 12.8786 10.1995 12.9117 10.1977 12.9593C10.1951 13.0265 10.1917 13.1387 10.0937 13.2034C10.0539 13.2297 10.0071 13.2433 9.96114 13.2433V13.2442ZM9.95681 13.0367C9.96114 13.0367 9.97067 13.0367 9.97501 13.0333C9.98194 13.0265 9.98454 12.9959 9.98541 12.9729C9.97674 12.9729 9.96807 12.9763 9.96287 12.9806C9.94987 12.9925 9.94901 13.0265 9.95594 13.0376L9.95681 13.0367Z" fill="white"/>
<path d="M2.31856 4.085C2.27523 4.085 2.2319 4.0731 2.19637 4.04929C2.14004 4.01187 2.1045 3.94725 2.10017 3.87243C2.09497 3.79165 2.12617 3.71427 2.1825 3.66495C2.23623 3.61904 2.31423 3.59778 2.39049 3.60883C2.45376 3.61819 2.50402 3.64795 2.53262 3.69301C2.54995 3.72022 2.55689 3.75338 2.55515 3.80015C2.55255 3.86732 2.54909 3.97956 2.45116 4.04419C2.41129 4.07055 2.36449 4.08415 2.31856 4.08415V4.085ZM2.31423 3.87838C2.31943 3.87838 2.3281 3.87838 2.33243 3.87498C2.33936 3.86817 2.34196 3.83756 2.34283 3.81461C2.33416 3.81461 2.3255 3.81801 2.3203 3.82226C2.3073 3.83331 2.30643 3.86817 2.31336 3.87923L2.31423 3.87838Z" fill="white"/>
<path d="M2.83118 4.9053C2.77918 4.9053 2.72978 4.8917 2.68818 4.86534C2.54086 4.77096 2.55646 4.56518 2.60239 4.45039C2.65178 4.3271 2.77051 4.19955 2.91957 4.21231C2.98891 4.21826 3.0357 4.25397 3.05304 4.26758C3.17437 4.36026 3.2385 4.56773 3.14143 4.72759C3.0903 4.81092 3.00104 4.87469 2.90311 4.8968C2.87884 4.9019 2.85458 4.9053 2.83118 4.9053ZM2.89964 4.41808C2.87364 4.41808 2.82165 4.4674 2.79825 4.52607C2.77485 4.58474 2.77225 4.67317 2.80345 4.69273C2.81471 4.69953 2.83378 4.70123 2.85544 4.69613C2.89704 4.68678 2.93951 4.65702 2.96031 4.62215C3.00191 4.55413 2.96637 4.46315 2.92304 4.43084C2.91697 4.42573 2.90744 4.41893 2.90051 4.41893C2.90051 4.41893 2.89964 4.41893 2.89878 4.41893L2.89964 4.41808Z" fill="white"/>
<path d="M3.66712 5.71575C3.61512 5.71575 3.56572 5.70214 3.52412 5.67578C3.37679 5.5814 3.39239 5.37563 3.43832 5.26084C3.48772 5.13754 3.60818 5.01085 3.75551 5.02275C3.82571 5.0287 3.87164 5.06442 3.88984 5.07802C4.01117 5.1707 4.0753 5.37818 3.97737 5.53803C3.92624 5.62136 3.83698 5.68514 3.73905 5.70724C3.71478 5.71234 3.69052 5.71575 3.66712 5.71575ZM3.63938 5.50232C3.65065 5.50912 3.66972 5.51082 3.69138 5.50572C3.73298 5.49637 3.77545 5.46661 3.79711 5.43175C3.83871 5.36372 3.80231 5.27359 3.75985 5.24043C3.75291 5.23533 3.74511 5.22852 3.73731 5.22852C3.71305 5.22427 3.65845 5.27699 3.63505 5.33651C3.61165 5.39518 3.60905 5.48361 3.63938 5.50317V5.50232Z" fill="white"/>
</g>
<defs>
<clipPath id="clip0_11186_1933">
<rect width="18" height="18" fill="white"/>
</clipPath>
</defs>
</svg>
